<svg width="79" height="73" viewBox="0 0 79 73" fill="none" xmlns="http://www.w3.org/2000/svg">
<g id="&#240;&#159;&#166;&#134; icon &#34;Hamburger&#34;">
<path id="Vector" d="M71.4041 36.5643H7.90408C5.96085 36.5643 4.09722 37.3797 2.72316 38.8311C1.34909 40.2825 0.577148 42.251 0.577148 44.3036C0.577148 46.3562 1.34909 48.3248 2.72316 49.7762C4.09722 51.2276 5.96085 52.043 7.90408 52.043H71.4041C73.3473 52.043 75.211 51.2276 76.585 49.7762C77.9591 48.3248 78.731 46.3562 78.731 44.3036C78.731 42.251 77.9591 40.2825 76.585 38.8311C75.211 37.3797 73.3473 36.5643 71.4041 36.5643ZM73.8464 57.2026H5.46177C4.81403 57.2026 4.19282 57.4744 3.73479 57.9582C3.27677 58.442 3.01946 59.0982 3.01946 59.7824V62.3621C3.01946 65.099 4.04871 67.7237 5.8808 69.6589C7.71289 71.5941 10.1977 72.6813 12.7887 72.6813H66.5195C69.1105 72.6813 71.5953 71.5941 73.4274 69.6589C75.2595 67.7237 76.2887 65.099 76.2887 62.3621V59.7824C76.2887 59.0982 76.0314 58.442 75.5734 57.9582C75.1154 57.4744 74.4942 57.2026 73.8464 57.2026ZM9.52821 31.4047H69.78C75.0569 31.4047 78.1174 24.3264 75.0951 19.1701C68.9618 8.70258 55.4604 0.463389 39.6541 0.447266C23.8493 0.463389 10.3464 8.70258 4.21314 19.1685C1.18773 24.3248 4.2513 31.4047 9.52821 31.4047ZM59.1926 13.3462C59.6756 13.3462 60.1478 13.4975 60.5494 13.781C60.9511 14.0644 61.2641 14.4674 61.449 14.9387C61.6338 15.4101 61.6822 15.9288 61.5879 16.4293C61.4937 16.9297 61.2611 17.3894 60.9195 17.7502C60.578 18.111 60.1428 18.3567 59.669 18.4562C59.1953 18.5557 58.7042 18.5047 58.2579 18.3094C57.8117 18.1141 57.4302 17.7835 57.1619 17.3592C56.8935 16.935 56.7503 16.4362 56.7503 15.926C56.7503 15.2418 57.0076 14.5856 57.4656 14.1018C57.9236 13.618 58.5448 13.3462 59.1926 13.3462ZM39.6541 8.18663C40.1371 8.18663 40.6093 8.33793 41.011 8.6214C41.4126 8.90487 41.7256 9.30778 41.9105 9.77917C42.0953 10.2506 42.1437 10.7693 42.0495 11.2697C41.9552 11.7701 41.7226 12.2298 41.3811 12.5906C41.0395 12.9514 40.6043 13.1971 40.1306 13.2966C39.6568 13.3962 39.1657 13.3451 38.7195 13.1498C38.2732 12.9546 37.8918 12.6239 37.6234 12.1997C37.355 11.7754 37.2118 11.2766 37.2118 10.7664C37.2118 10.0822 37.4691 9.42603 37.9271 8.94223C38.3851 8.45842 39.0064 8.18663 39.6541 8.18663ZM20.1156 13.3462C20.5987 13.3462 21.0709 13.4975 21.4725 13.781C21.8741 14.0644 22.1872 14.4674 22.372 14.9387C22.5569 15.4101 22.6052 15.9288 22.511 16.4293C22.4168 16.9297 22.1842 17.3894 21.8426 17.7502C21.501 18.111 21.0659 18.3567 20.5921 18.4562C20.1183 18.5557 19.6273 18.5047 19.181 18.3094C18.7347 18.1141 18.3533 17.7835 18.0849 17.3592C17.8166 16.935 17.6733 16.4362 17.6733 15.926C17.6733 15.2418 17.9306 14.5856 18.3886 14.1018C18.8467 13.618 19.4679 13.3462 20.1156 13.3462Z" fill="white"/>
</g>
</svg>
