<svg width="90" height="84" viewBox="0 0 90 84" fill="none" xmlns="http://www.w3.org/2000/svg">
<g id="&#240;&#159;&#166;&#134; icon &#34;Puzzle Piece&#34;">
<path id="Vector" d="M80.5082 47.1595C74.1472 47.1595 71.3924 52.2722 67.9364 52.2722C58.7479 52.2722 67.1115 23.7507 67.1115 23.7507C67.1115 23.7507 37.0391 36.6971 37.0391 23.2172C37.0391 17.4193 42.5987 15.7325 42.5987 9.30225C42.5987 3.55698 38.2913 0.447266 33.1825 0.447266C27.8733 0.447266 23.0149 3.50439 23.0149 9.56571C23.0149 16.2596 27.8732 19.1585 27.8732 22.7953C27.8733 34.0623 0.926758 27.4336 0.926758 27.4336V81.3612C0.926758 81.3612 28.2946 88.0038 28.2946 76.7229C28.2946 73.0861 22.1664 70.2324 22.1664 63.5384C22.1664 57.477 26.6477 54.42 31.9068 54.42C37.0656 54.42 41.373 57.5297 41.373 63.2748C41.373 69.7051 35.8135 71.3919 35.8135 77.1897C35.8135 87.0294 55.6804 81.3536 63.5789 81.3536C63.5789 81.3536 58.2589 61.9177 67.5358 61.9177C73.0454 61.9177 74.648 67.7682 80.7586 67.7682C86.2181 67.7683 89.1731 63.2355 89.1731 57.8066C89.1731 52.2722 86.2681 47.1595 80.5082 47.1595Z" fill="white"/>
</g>
</svg>
