<svg width="79" height="83" viewBox="0 0 79 83" fill="none" xmlns="http://www.w3.org/2000/svg">
<path id="Vector" d="M69.9941 0.447266H8.5875C3.96456 0.447266 0.213867 4.40908 0.213867 9.29225V74.1555C0.213867 79.0386 3.96456 83.0005 8.5875 83.0005H69.9941C74.6171 83.0005 78.3678 79.0386 78.3678 74.1555V9.29225C78.3678 4.40908 74.6171 0.447266 69.9941 0.447266ZM42.082 53.5172H33.7084V62.3622C33.7084 63.9837 32.4523 65.3105 30.9172 65.3105H25.3348C23.7996 65.3105 22.5436 63.9837 22.5436 62.3622V21.0856C22.5436 19.464 23.7996 18.1372 25.3348 18.1372H42.082C51.3105 18.1372 58.8293 26.0793 58.8293 35.8272C58.8293 45.5751 51.3105 53.5172 42.082 53.5172ZM42.082 29.9305H33.7084V41.7239H42.082C45.1524 41.7239 47.6644 39.0704 47.6644 35.8272C47.6644 32.584 45.1524 29.9305 42.082 29.9305Z" fill="white"/>
</svg>
