<svg width="79" height="68" viewBox="0 0 79 68" fill="none" xmlns="http://www.w3.org/2000/svg">
<g id="paw">
<path id="Vector" d="M39.6363 29.2321C27.5149 29.2321 10.3289 47.6358 10.3289 59.2527C10.3289 64.4848 14.4213 67.6105 21.2795 67.6105C28.7346 67.6105 33.6573 63.8507 39.6363 63.8507C45.6672 63.8507 50.6037 67.6105 57.9931 67.6105C64.8514 67.6105 68.9437 64.4848 68.9437 59.2527C68.9437 47.6358 51.7577 29.2321 39.6363 29.2321ZM17.1551 27.3417C15.5676 22.1471 10.6769 18.783 6.23197 19.8264C1.78701 20.8698 -0.528578 25.9265 1.05891 31.1211C2.64639 36.3156 7.53706 39.6798 11.982 38.6363C16.427 37.5929 18.7426 32.5363 17.1551 27.3417ZM30.087 24.2264C34.8097 23.0061 37.1726 16.7397 35.3654 10.2303C33.5581 3.72098 28.2644 -0.565107 23.5417 0.655206C18.8189 1.87552 16.456 8.14199 18.2633 14.6513C20.0706 21.1607 25.3657 25.4483 30.087 24.2264ZM73.0391 19.8279C68.5942 18.7845 63.705 22.1486 62.116 27.3432C60.5285 32.5378 62.8441 37.5944 67.2891 38.6378C71.734 39.6812 76.6232 36.3171 78.2122 31.1226C79.7997 25.928 77.4841 20.8713 73.0391 19.8279ZM49.1856 24.2264C53.9084 25.4468 59.202 21.1607 61.0093 14.6513C62.8166 8.14199 60.4537 1.87702 55.7309 0.655206C51.0082 -0.566606 45.7145 3.72098 43.9072 10.2303C42.1 16.7397 44.4629 23.0061 49.1856 24.2264Z" fill="white"/>
</g>
</svg>
