<svg width="80" height="84" viewBox="0 0 80 84" fill="none" xmlns="http://www.w3.org/2000/svg">
<g id="&#240;&#159;&#166;&#134; icon &#34;Volleyball Ball&#34;">
<path id="Vector" d="M36.1001 39.6409C35.9792 33.5895 34.7652 27.6182 32.5233 22.048C18.2157 29.1051 7.70566 42.4204 4.11302 58.1325C6.21551 63.221 9.26446 67.8113 13.0789 71.631C16.7063 58.3077 24.9173 46.8977 36.1001 39.6409ZM30.2857 17.2711C27.8892 12.8606 24.8351 8.88714 21.2411 5.50364C6.90204 13.7924 -1.57533 30.9526 1.54459 49.1447C6.8075 35.3134 17.0497 23.8455 30.2857 17.2711ZM59.8463 44.7506C61.2014 28.1397 55.5445 11.8784 44.483 0.743403C42.1667 0.460452 36.3523 -0.172026 28.8991 2.15816C38.018 12.1394 43.2732 25.3622 43.6321 39.2281C48.6537 42.1449 54.1574 44.0194 59.8463 44.7506ZM40.197 46.3318C35.296 49.4749 31.007 53.576 27.5597 58.4155C40.4807 67.9526 56.6318 70.9153 71.286 66.3714C74.4381 61.9103 76.7003 56.8199 77.9355 51.4083C73.7686 52.5298 69.4879 53.1111 65.1879 53.1393C56.5845 53.1226 48.0284 50.7925 40.197 46.3318ZM24.7077 62.9261C22.3126 67.2536 20.6581 71.9805 19.6496 76.9405C26.6394 81.4721 34.8056 83.5563 42.9831 82.8958C51.1606 82.2353 58.9317 78.8637 65.1879 73.2621C47.3981 75.9418 33.1535 69.1344 24.7077 62.9261ZM53.1179 2.90715C61.8317 14.6247 66.1176 29.7376 64.8728 45.1168C69.6732 45.1275 74.4445 44.3297 79.007 42.7533C79.007 42.4204 79.0543 42.0876 79.0543 41.7547C79.0543 23.8122 68.2291 8.6161 53.1179 2.90715Z" fill="white"/>
</g>
</svg>
