<svg width="79" height="59" viewBox="0 0 79 59" fill="none" xmlns="http://www.w3.org/2000/svg">
<g id="&#240;&#159;&#166;&#134; icon &#34;WiFi&#34;">
<path id="Vector" d="M77.7715 16.2975C56.1363 -4.84001 22.4874 -4.83227 0.860722 16.2975C0.0474325 17.0921 0.0315574 18.4374 0.817981 19.2617L4.99922 23.6434C5.74901 24.4303 6.95551 24.447 7.73461 23.6925C25.5537 6.44915 53.0761 6.44528 70.8989 23.6925C71.678 24.447 72.8845 24.429 73.6343 23.6434L77.8155 19.2617C78.6007 18.4374 78.5848 17.0921 77.7715 16.2975ZM39.3161 41.7239C34.9993 41.7239 31.5007 45.4194 31.5007 49.9792C31.5007 54.539 34.9993 58.2345 39.3161 58.2345C43.6329 58.2345 47.1315 54.539 47.1315 49.9792C47.1315 45.4194 43.6329 41.7239 39.3161 41.7239ZM64.0653 30.9417C49.9902 17.7938 28.6261 17.808 14.567 30.9417C13.7244 31.7285 13.6975 33.0945 14.4974 33.9278L18.703 38.3121C19.4357 39.0757 20.6154 39.1273 21.3957 38.4153C31.6473 29.0545 47.0082 29.0752 57.2354 38.4153C58.0157 39.1273 59.1953 39.077 59.928 38.3121L64.1337 33.9278C64.9347 33.0945 64.9066 31.7272 64.0653 30.9417Z" fill="white"/>
</g>
</svg>
