<svg width="466" height="348" viewBox="0 0 466 348" fill="none" xmlns="http://www.w3.org/2000/svg">
<path d="M199.302 128.83C189.696 138.7 198.405 162.868 213.73 159.372C230.179 155.616 227.717 129.961 212.832 125.75C207.024 124.105 202.395 125.648 199.302 128.83Z" fill="#56CCF2"/>
<path d="M275.641 160.688C271.983 164.229 267.739 166.968 262.703 168.12C253.112 170.312 244.101 166.089 236.1 161.241C227.55 156.043 219.023 150.773 210.957 144.843C205.191 140.602 199.293 136.095 195.704 129.754C191.538 122.403 191.296 113.569 192.145 105.365C192.725 99.7602 190.112 94.7328 188.96 89.3913C186.72 78.9925 189.014 66.7125 198.713 60.749C203.666 57.7044 208.846 58.153 214.055 60.3931C218.036 62.0948 221.76 64.4724 225.938 65.6687C234.838 68.1959 244.48 64.7147 253.204 62.9232C259.518 61.6223 266.42 60.9434 272.644 63.0249C279.574 65.3457 282.87 70.415 286.653 76.2799C289.886 81.2954 294.791 85.0787 298.7 89.5409C303.936 95.5224 305.527 103.077 303.766 110.775C301.179 122.08 294.677 131.797 289.03 141.714C285.421 148.058 281.207 155.301 275.641 160.688Z" fill="#163560"/>
<path d="M204.245 268.017C215.765 250.267 222.934 228.479 212.918 208.435C211.904 206.404 210.684 204.188 208.528 203.47C203.895 201.93 197.609 203.587 193.574 205.953C179.595 214.153 171.042 229.58 163.191 243.316C155.032 257.579 147.938 272.428 139.75 286.682C136.43 292.451 133.074 298.298 131.295 304.71C129.734 310.33 129.563 316.76 131.693 322.257C140.895 346.021 166.2 316.912 173.904 308.117C184.963 295.492 195.103 282.091 204.245 268.017Z" fill="#89A5F6"/>
<path d="M261.655 160.392C260.428 161.719 258.971 162.813 257.355 163.622C253.168 165.715 248.128 165.602 243.648 164.22C239.168 162.838 235.148 160.296 231.32 157.592C220.972 150.28 208.169 140.605 202.011 129.363C198.216 122.433 195.398 114.253 199.02 106.69C202.142 100.191 208.486 95.3908 215.744 94.7059C216.335 94.6056 216.941 94.6666 217.5 94.8824C218.098 95.1815 218.502 95.7796 218.852 96.3508C221.472 100.649 223.559 105.323 226.759 109.25C230.241 113.515 234.535 116.703 239.24 119.553C246.827 124.156 255.159 127.553 262.295 132.829C267.451 136.639 267.586 145.214 266.33 151.162C265.633 154.604 264.018 157.793 261.655 160.392Z" fill="#041B3D"/>
<path d="M319.882 243.025C323.533 230.143 325.424 216.963 317.153 208.189C313.418 204.226 306.766 201.466 301.32 199.51C290.699 195.683 279.84 190.543 268.471 188.871C256.483 187.112 243.152 186.03 231.206 188.544C223.617 190.135 216.507 193.097 209.735 196.279C200.626 200.56 194.138 203.439 191.218 212.242C187.974 222.011 186.008 232.046 184.909 242.134C181.696 271.661 185.948 301.26 185.846 330.802C185.846 333.695 185.882 336.727 187.408 339.336C190.401 344.485 198.585 344.543 204.465 344.543L262.672 344.459C270.751 344.459 276.913 345.272 284.493 346.568C290.87 347.662 296.346 344.98 299.404 340.03C302.301 335.347 302.523 329.879 302.834 324.614C304.056 304.048 307.541 283.665 313.23 263.813C314.852 258.186 317.682 250.789 319.882 243.025Z" fill="#AEC3FF"/>
<path d="M272.64 206.551C276.747 199.929 277.68 191.654 272.302 185.275C269.844 182.359 265.496 182.03 261.775 181.964C254.452 181.834 247.14 182.577 239.993 184.177C233.201 185.702 226.272 188.283 223.329 194.86C221.143 199.75 221.908 205.402 224.789 209.873C227.519 214.015 231.742 216.943 236.578 218.047C244.396 219.842 253.548 219.59 261.006 216.588C265.69 214.706 269.883 211.001 272.64 206.551Z" fill="#89A5F6"/>
<path d="M196.346 337.784C204.162 341.039 212.708 342.678 221.233 343.937C245.09 347.462 269.405 348.194 293.567 347.176C298.731 346.959 304.333 346.507 308.143 343.419C310.98 341.124 312.316 337.742 313.266 334.45C316.501 323.239 316.456 311.517 316.39 299.947C316.336 290.92 316.284 281.892 316.234 272.863C316.216 269.719 318.529 250.589 312.987 250.806C312.39 250.865 311.824 251.074 311.357 251.409C308.602 253.149 307.185 256.063 305.897 258.828C301.862 267.501 298.471 281.383 290.068 287.453C281.243 293.831 271.076 296.8 260.379 299.857C241.831 305.145 221.138 307.461 205.432 318.366C202.817 320.185 200.321 322.2 197.898 324.217C195.717 326.034 192.725 327.919 191.422 330.452C189.388 334.423 192.578 336.216 196.346 337.784Z" fill="#89A5F6"/>
<path d="M361.32 277.025C364.266 282.337 367.181 287.665 370.064 293.011C375.896 303.879 386.729 328.026 369.392 333.984C360.656 336.975 355.658 334.05 349.883 327.688C328.016 303.576 309.444 276.669 294.656 247.671C289.162 236.904 274.573 208.809 292.29 202.391C295.101 201.393 298.09 200.99 301.065 201.208C304.04 201.426 306.938 202.259 309.574 203.656C311.966 204.945 314.096 206.68 316.126 208.492C328.912 219.893 338.019 234.607 346.118 249.531C351.124 258.758 356.25 267.879 361.32 277.025Z" fill="#AEC3FF"/>
<path d="M272.991 315.994C274.516 315.737 276.044 315.486 277.576 315.249C285.021 314.095 292.43 312.728 299.803 311.149C314.404 308.021 329.085 305.332 343.946 303.929C345.519 303.782 347.096 303.648 348.675 303.529C355.335 303.026 362.315 302.853 368.414 305.957C374.512 309.061 379.342 316.425 377.84 323.525C376.785 328.513 372.879 332.276 368.539 334.178C364.2 336.08 359.426 336.415 354.743 336.732L309.233 339.803C301.72 340.306 294.209 340.821 286.7 341.35C279.523 341.849 272.246 342.845 265.056 342.845C262.015 342.845 258.62 342.295 256.066 340.315C252.519 337.563 250.384 331.692 250.055 327.105C249.881 324.712 250.354 321.826 252.229 320.349C253.231 319.556 254.502 319.314 255.725 319.092C261.482 318.067 267.222 316.975 272.991 315.994Z" fill="#AEC3FF"/>
<path d="M214.253 321.386H142.319V335.47H214.253V321.386Z" fill="#2F539B"/>
<path d="M154.662 322.753L136.508 230.339C136.273 229.158 135.635 228.095 134.703 227.332C133.772 226.568 132.604 226.151 131.4 226.152H10.7172C9.89934 226.153 9.09329 226.347 8.36536 226.72C7.63743 227.093 7.00843 227.633 6.53013 228.297H6.51518L0.94043 234.876L5.88413 233.794L23.7598 324.79C23.9957 325.971 24.6337 327.034 25.5651 327.797C26.4965 328.561 27.6637 328.978 28.868 328.977H149.548C150.318 328.979 151.08 328.809 151.777 328.481C152.474 328.152 153.09 327.673 153.579 327.077C154.069 326.482 154.42 325.785 154.607 325.037C154.794 324.289 154.813 323.509 154.662 322.753Z" fill="#2F539B"/>
<path d="M23.353 335.47H144.039C144.807 335.47 145.566 335.3 146.261 334.971C146.956 334.643 147.569 334.165 148.057 333.571C148.546 332.978 148.896 332.283 149.084 331.538C149.272 330.793 149.292 330.015 149.144 329.261L130.99 236.847C130.754 235.666 130.116 234.604 129.185 233.84C128.253 233.077 127.086 232.66 125.882 232.66H5.19921C4.43411 232.661 3.67857 232.83 2.98641 233.156C2.29425 233.482 1.68249 233.957 1.19471 234.546C0.706934 235.136 0.355129 235.826 0.164359 236.567C-0.026411 237.307 -0.0514532 238.081 0.0910142 238.833L18.2448 331.247C18.4734 332.435 19.1082 333.506 20.0403 334.276C20.9724 335.047 22.1437 335.469 23.353 335.47Z" fill="#E7F0FE"/>
<path d="M61.3204 281.762C62.4329 287.998 68.3905 293.052 74.6232 293.052C80.8559 293.052 84.9383 287.998 83.736 281.762C82.5337 275.526 76.5732 270.475 70.4242 270.475C64.2752 270.475 60.1989 275.529 61.3204 281.762Z" fill="#56CCF2"/>
<path d="M255.821 338.637C252.232 339.379 249.433 342.525 245.865 343.581C243.317 344.335 240.592 343.931 238.146 343.016C235.894 342.169 233.606 341.718 231.297 340.979C229.502 340.402 227.065 339.185 225.13 339.591C220.046 340.647 215.006 344.254 210.413 346.596C209.381 347.122 208.247 347.663 207.123 347.448C205.998 347.233 205.029 345.851 205.681 344.891C204.359 346.123 202.61 348.593 200.477 347.636C199.604 347.245 199.081 346.09 199.562 345.265C198.829 346.069 198.067 346.898 197.047 347.298C196.027 347.699 194.708 347.523 194.113 346.614C193.856 346.168 193.72 345.663 193.721 345.148C193.634 343.387 194.167 341.649 194.9 340.064C198.518 332.165 206.701 326.306 213.666 321.602C214.896 320.768 216.152 319.924 217.575 319.491C218.846 319.102 220.195 319.06 221.526 319.054C230.181 319.019 238.783 320.408 246.986 323.166C248.757 323.764 250.704 323.256 252.471 322.924C253.778 322.682 255.142 322.436 256.419 322.81C257.849 323.229 258.955 324.359 259.826 325.568C261.426 327.787 262.649 330.727 262.457 333.514C262.314 335.632 262.158 337.917 259.661 338.359C258.65 338.542 257.609 338.428 256.59 338.536C256.326 338.554 256.07 338.587 255.821 338.637Z" fill="#F8A17A"/>
<path d="M257.352 210.926C262.628 209.233 266.973 205.953 268.6 200.74C270.078 196.008 267.748 190.688 267.335 185.915C266.937 181.339 266.887 176.74 267.185 172.157C267.464 167.922 267.867 163.511 267.218 159.297C266.848 156.883 265.523 157.296 263.082 156.339C260.642 155.382 257.902 155.37 255.249 155.376C249.818 155.376 235.663 154.996 232.307 159.764C230.764 161.95 230.645 164.704 230.57 167.306C230.483 170.452 229.927 174.526 229.409 178.91C229.182 180.866 229.323 182.798 229.024 184.751C228.689 186.922 227.863 189.004 227.142 191.086C224.409 198.954 226.969 206.437 235.478 210.041C241.582 212.613 250.3 213.19 257.352 210.926Z" fill="#F8A17A"/>
<path d="M267.188 159.279C266.82 156.866 265.495 157.279 263.055 156.322C260.615 155.364 257.875 155.353 255.222 155.358C249.791 155.358 235.636 154.979 232.277 159.746C230.737 161.932 230.617 164.687 230.543 167.289C230.456 170.435 229.9 174.508 229.382 178.893C229.155 180.849 229.295 182.781 228.996 184.734C228.695 186.387 228.242 188.009 227.642 189.579C232.986 191.574 238.803 191.938 244.354 190.622C254.247 188.188 261.739 182.03 267.084 174.024C267.11 173.399 267.128 172.777 267.17 172.155C267.436 167.92 267.84 163.508 267.188 159.279Z" fill="#E5785C"/>
<path d="M275.075 128.283C275.03 121.03 274.031 114.152 272.165 108.439C264.114 83.7925 233.369 77.7033 214.856 95.3966C194.22 115.135 202.11 162.297 223.856 178.865C226.789 181.064 230.181 182.574 233.778 183.283C237.376 183.992 241.087 183.881 244.635 182.96C266.001 177.223 275.21 150.935 275.075 128.283Z" fill="#F8A17A"/>
<path d="M272.168 108.437C264.117 83.7898 233.372 77.7006 214.859 95.3939C212.522 97.6565 210.527 100.248 208.938 103.086C209.955 103.949 211.04 104.729 212.182 105.419C219.998 110.113 228.452 113.651 237.281 115.925C241.07 116.9 245.057 117.702 248.167 120.082C249.908 121.467 251.342 123.198 252.378 125.167C253.682 127.523 254.615 130.158 255.491 132.712C257.409 138.311 258.252 144.194 259.029 150.035C259.107 150.633 259.215 151.297 259.661 151.716C260.106 152.134 260.713 152.197 261.293 152.182C264.703 152.095 266.348 148.827 269.004 147.098C270.601 146.054 272.195 145.004 273.714 143.838C274.647 138.707 275.103 133.501 275.078 128.286C275.03 121.031 274.031 114.152 272.168 108.437Z" fill="#E5785C"/>
<path d="M255.853 124.224C256.84 126.73 257.423 129.464 257.947 132.108C259.122 137.907 259.197 143.853 259.209 149.753C259.209 150.351 259.23 151.03 259.619 151.503C260.007 151.975 260.6 152.101 261.18 152.176C264.571 152.529 266.626 149.502 269.482 148.129C272.446 146.706 275.434 145.264 278.024 143.236C285.393 137.461 283.706 127.93 283.476 119.454C283.347 114.797 283.21 110.075 281.843 105.622C280.348 100.765 277.455 96.4313 274.001 92.7048C264.03 81.9381 248.984 76.3514 234.413 77.2695C227.199 77.7241 219.061 80.7777 213.923 85.9696C209.491 90.4557 214.889 96.5359 218.541 99.428C225.681 105.097 233.605 109.702 242.066 113.099C245.697 114.555 249.543 115.868 252.321 118.632C253.874 120.23 255.077 122.135 255.853 124.224Z" fill="#163560"/>
<path d="M271.034 128.89C280.491 123.719 283.404 136.815 281.777 143.332C281.104 146.024 280.039 148.65 278.37 150.863C276.121 153.854 269.697 158.794 265.977 155.532C264.293 154.036 264.12 151.536 264.069 149.296C263.931 143.287 264.622 132.398 271.034 128.89Z" fill="#F8A17A"/>
<path d="M407.72 280.291C409.051 277.542 408.812 274.65 407.974 272.03C407.167 269.339 405.728 267.042 404.17 264.517C402.612 261.993 400.988 259.32 400.004 256.054C399.02 252.788 399.292 249.049 400.21 245.918C402.19 239.53 406.252 234.822 409.048 230.007C410.451 227.573 411.596 225.096 412.039 222.36C412.547 219.647 412.374 216.758 411.04 214.034C413.352 216.055 414.47 219.33 414.629 222.504C414.787 225.677 413.965 228.964 412.736 231.823C410.307 237.622 406.67 242.329 405.259 247.419C404.457 249.941 404.26 252.381 404.828 254.827C405.307 257.331 406.623 259.861 407.795 262.603C409.045 265.295 410.241 268.376 410.508 271.558C410.774 274.692 410.056 278.236 407.72 280.291Z" fill="#14A0EC"/>
<path d="M429.398 295.421C420.797 295.421 413.825 302.494 413.825 311.221C413.825 319.948 420.797 327.024 429.398 327.024C437.999 327.024 444.971 319.948 444.971 311.221C444.971 302.494 437.999 295.421 429.398 295.421ZM429.398 321.387C428.072 321.377 426.762 321.107 425.54 320.59C424.319 320.074 423.212 319.323 422.282 318.378C421.351 317.434 420.616 316.316 420.118 315.087C419.62 313.858 419.369 312.544 419.379 311.218C419.379 305.604 423.865 301.05 429.398 301.05C434.931 301.05 439.417 305.601 439.417 311.218C439.435 313.894 438.39 316.467 436.511 318.372C434.632 320.278 432.074 321.359 429.398 321.378V321.387Z" fill="#2F539B"/>
<path d="M391.029 283.802H426.894V327.697C426.894 329.68 426.107 331.582 424.704 332.984C423.302 334.387 421.4 335.174 419.417 335.174H398.506C396.523 335.174 394.621 334.387 393.219 332.984C391.817 331.582 391.029 329.68 391.029 327.697V283.802Z" fill="#56CCF2"/>
<path opacity="0.2" d="M396.392 315.674C395.878 315.673 395.386 315.468 395.022 315.105C394.659 314.742 394.454 314.25 394.451 313.736V288.734C394.454 288.22 394.659 287.728 395.022 287.365C395.386 287.002 395.878 286.797 396.392 286.796C396.906 286.797 397.398 287.002 397.761 287.365C398.124 287.728 398.329 288.22 398.33 288.734V313.736C398.329 314.25 398.124 314.742 397.761 315.105C397.398 315.468 396.906 315.673 396.392 315.674Z" fill="white"/>
<path d="M418.61 283.802V326.091C418.61 328.5 417.653 330.811 415.95 332.514C414.247 334.217 411.936 335.174 409.527 335.174H417.818C420.227 335.174 422.537 334.217 424.24 332.514C425.944 330.811 426.901 328.5 426.901 326.091V283.802H418.61Z" fill="#2F539B"/>
<path d="M195.246 102.62C191.185 91.2547 183.041 82.0791 187.725 69.3146C189.065 65.6644 191.485 62.509 194.663 60.2683C197.841 58.0275 201.625 56.8078 205.514 56.7714C209.283 56.7123 213 57.6612 216.28 59.5199C220.168 61.751 222.702 65.3937 227.23 66.6139C237.847 69.4731 248.841 61.3771 258.991 59.493C269.04 57.6238 279.729 60.9226 284.643 70.5139C286.584 74.2972 287.406 78.6697 289.957 82.0701C294.213 87.7525 302.498 89.6965 305.868 95.9502C311.368 106.155 300.063 120.896 294.312 128.738" stroke="#163560" stroke-width="4" stroke-miterlimit="10"/>
<path d="M240.224 172.032C237.884 172.031 235.548 171.858 233.234 171.514L233.65 168.679C241.971 169.954 250.483 168.765 258.135 165.258C259.995 164.418 261.769 163.399 263.432 162.216C266.215 160.192 268.55 157.616 270.293 154.649L272.769 156.1C270.825 159.409 268.22 162.281 265.116 164.537C263.303 165.829 261.369 166.941 259.341 167.86C253.348 170.624 246.824 172.048 240.224 172.032Z" fill="#56CCF2"/>
<path d="M224.942 166.418C228.402 163.448 236.094 163.703 238.631 166.786C240.509 169.068 239.935 171.969 237.865 173.898C235.418 176.183 232.389 176.051 229.335 175.364C225.513 174.499 220.773 169.995 224.942 166.418Z" fill="#2F539B"/>
<path d="M221.944 76.7345C222.779 76.7614 223.607 76.8242 224.439 76.8003C225.27 76.7763 226.101 76.7764 226.93 76.7405C228.587 76.6388 230.237 76.4683 231.88 76.229C235.169 75.7804 238.435 75.1494 241.749 74.7097C245.08 74.221 248.452 74.0727 251.813 74.2671C252.656 74.319 253.498 74.4077 254.337 74.5333C255.18 74.6558 256.017 74.8215 256.843 75.0298C258.516 75.4373 260.126 76.0702 261.629 76.9109C262.378 77.3472 263.089 77.8476 263.752 78.4063C264.409 78.9761 265.017 79.5993 265.57 80.2695C266.114 80.952 266.593 81.6839 267 82.4558C267.402 83.2353 267.711 84.0595 267.921 84.9112C268.134 85.7695 268.226 86.6533 268.193 87.5371C268.159 88.4031 268.033 89.2632 267.819 90.1031C267.631 90.9256 267.425 91.7211 267.299 92.4957C267.172 93.2758 267.148 94.0693 267.23 94.8554C267.447 96.4603 267.932 98.0173 268.666 99.4612C269.366 100.957 270.209 102.377 270.99 103.861C271.787 105.345 272.403 106.919 272.826 108.55C273.025 109.369 273.126 110.21 273.125 111.053C273.116 111.893 272.974 112.726 272.703 113.521C273.089 111.904 273.024 110.213 272.515 108.631C272.016 107.059 271.329 105.552 270.469 104.145C269.638 102.715 268.735 101.306 267.957 99.8081C267.128 98.3025 266.567 96.664 266.3 94.9661C266.183 94.0977 266.183 93.2176 266.3 92.3492C266.42 91.4908 266.62 90.6684 266.791 89.8639C266.971 89.0865 267.071 88.2929 267.09 87.4952C267.104 86.7113 267.009 85.9292 266.808 85.1714C266.606 84.41 266.321 83.6729 265.959 82.9732C265.584 82.2738 265.144 81.611 264.646 80.9933C264.137 80.3806 263.577 79.8123 262.971 79.2946C262.36 78.7834 261.706 78.3261 261.015 77.9278C259.609 77.1284 258.099 76.5247 256.529 76.1333C254.947 75.7383 253.332 75.4812 251.705 75.3647C248.415 75.1346 245.111 75.2157 241.836 75.607C238.546 75.9599 235.256 76.4683 231.915 76.7823C230.25 76.9319 228.578 77.0156 226.909 77.0306C225.249 77.043 223.591 76.944 221.944 76.7345Z" fill="white"/>
<path d="M275.006 125.167C261.656 128.588 256.497 153.74 271.391 158.75C287.394 164.133 298.66 140.946 288.157 129.59C284.059 125.161 279.304 124.063 275.006 125.167Z" fill="#56CCF2"/>
<path d="M279.382 128.394C270.168 129.874 264.488 149.455 273.999 154.844C284.206 160.634 293.785 143.198 287.78 133.155C285.426 129.237 282.337 127.918 279.382 128.394Z" fill="#2F539B"/>
<path d="M281.245 126.925L277.683 126.512C280.099 105.64 279.067 78.9592 260.45 70.4475C251.633 66.413 243.585 63.521 229.25 66.3412C227.971 66.1655 226.724 65.8091 225.545 65.2825C238.507 58.9511 252.423 62.8331 261.942 67.1876C282.519 76.6025 283.796 104.871 281.245 126.925Z" fill="#56CCF2"/>
<path d="M330.458 105.087L452.872 105.087C459.644 105.087 465.134 99.597 465.134 92.8249V28.1231C465.134 21.3509 459.644 15.861 452.872 15.861L330.458 15.861C323.685 15.861 318.195 21.3509 318.195 28.1231V92.8249C318.195 99.597 323.685 105.087 330.458 105.087Z" fill="#003F54"/>
<path d="M337.534 128.573V87.5701L369.646 105.087L337.534 128.573Z" fill="#003F54"/>
<path d="M410.624 56.7087H343.267C341.78 56.7087 340.575 57.9138 340.575 59.4004V61.802C340.575 63.2886 341.78 64.4937 343.267 64.4937H410.624C412.111 64.4937 413.316 63.2886 413.316 61.802V59.4004C413.316 57.9138 412.111 56.7087 410.624 56.7087Z" fill="white"/>
<path d="M440.06 56.7087H421.601C420.114 56.7087 418.909 57.9138 418.909 59.4004V61.802C418.909 63.2886 420.114 64.4937 421.601 64.4937H440.06C441.546 64.4937 442.751 63.2886 442.751 61.802V59.4004C442.751 57.9138 441.546 56.7087 440.06 56.7087Z" fill="white"/>
<path d="M372.703 46.8123L440.06 46.8123C441.547 46.8123 442.752 45.6072 442.752 44.1206V41.719C442.752 40.2324 441.547 39.0273 440.06 39.0273L372.703 39.0273C371.216 39.0273 370.011 40.2324 370.011 41.719V44.1206C370.011 45.6072 371.216 46.8123 372.703 46.8123Z" fill="white"/>
<path d="M343.264 46.8123H361.723C363.21 46.8123 364.415 45.6072 364.415 44.1206V41.719C364.415 40.2324 363.21 39.0273 361.723 39.0273H343.264C341.778 39.0273 340.573 40.2324 340.573 41.719V44.1206C340.573 45.6072 341.778 46.8123 343.264 46.8123Z" fill="white"/>
<path d="M388.971 72.8677H343.267C341.78 72.8677 340.575 74.0728 340.575 75.5593V77.9609C340.575 79.4475 341.78 80.6526 343.267 80.6526H388.971C390.458 80.6526 391.663 79.4475 391.663 77.9609V75.5593C391.663 74.0728 390.458 72.8677 388.971 72.8677Z" fill="white"/>
<path d="M457.157 347.598H8.62311C4.0552 347.598 0.350586 344.603 0.350586 340.909C0.350586 337.215 4.0552 334.22 8.62311 334.22H457.157C461.725 334.22 465.429 337.215 465.429 340.909C465.429 344.603 461.725 347.598 457.157 347.598Z" fill="#003F54"/>
<path d="M109.173 27.9377H89.8404C85.8774 27.9472 82.0794 29.5257 79.277 32.328C76.4747 35.1304 74.8962 38.9284 74.8867 42.8915C74.8917 45.3111 75.4838 47.6934 76.6121 49.8338C77.7404 51.9743 79.3712 53.809 81.3647 55.1804V65.6989L92.1314 57.8332H109.179C113.142 57.8237 116.94 56.2452 119.742 53.4429C122.544 50.6406 124.123 46.8426 124.132 42.8795C124.12 38.9175 122.539 35.1216 119.736 32.3217C116.932 29.5218 113.135 27.9456 109.173 27.9377Z" fill="#003F54"/>
<path d="M90.8858 43.4052C91.1726 42.1864 90.417 40.966 89.1983 40.6792C87.9795 40.3925 86.7591 41.148 86.4723 42.3668C86.1856 43.5855 86.9411 44.8059 88.1599 45.0927C89.3786 45.3794 90.599 44.6239 90.8858 43.4052Z" fill="white"/>
<path d="M101.108 44.4831C101.993 43.5978 101.993 42.1624 101.108 41.2771C100.223 40.3918 98.7871 40.3918 97.9018 41.2771C97.0165 42.1624 97.0165 43.5978 97.9018 44.4831C98.7871 45.3684 100.223 45.3685 101.108 44.4831Z" fill="white"/>
<path d="M111.934 44.4814C112.819 43.5961 112.819 42.1607 111.934 41.2754C111.049 40.3901 109.613 40.3901 108.728 41.2754C107.843 42.1607 107.843 43.5961 108.728 44.4814C109.613 45.3667 111.049 45.3667 111.934 44.4814Z" fill="white"/>
<path d="M355.311 165.225C352.32 160.125 344.807 157.565 337.537 166.065C330.266 157.565 322.741 160.125 319.763 165.225C312.417 177.786 337.537 192.581 337.537 192.581C337.537 192.581 362.653 177.792 355.311 165.225Z" fill="#56CCF2"/>
<path d="M231.688 1H194.315C192.333 1 190.727 2.6068 190.727 4.5889V27.1361C190.727 29.1182 192.333 30.725 194.315 30.725H231.688C233.67 30.725 235.277 29.1182 235.277 27.1361V4.5889C235.277 2.6068 233.67 1 231.688 1Z" fill="#56CCF2"/>
<path d="M191.448 1.96606L210.954 20.8795C211.509 21.4019 212.242 21.6928 213.004 21.6928C213.766 21.6928 214.499 21.4019 215.054 20.8795L234.56 1.96606" stroke="white" stroke-width="4" stroke-miterlimit="10"/>
<path d="M191.448 29.7651L207.452 17.4731" stroke="white" stroke-width="4" stroke-miterlimit="10"/>
<path d="M234.56 29.7651L218.557 17.4731" stroke="white" stroke-width="4" stroke-miterlimit="10"/>
<path d="M155.921 110.975H111.634C109.652 110.975 108.045 112.582 108.045 114.564V143.132C108.045 145.114 109.652 146.721 111.634 146.721H155.921C157.903 146.721 159.51 145.114 159.51 143.132V114.564C159.51 112.582 157.903 110.975 155.921 110.975Z" fill="#56CCF2"/>
<path d="M133.774 158.014L142.797 145.844H124.751L133.774 158.014Z" fill="#56CCF2"/>
<path d="M147.314 133.442H145.089V127.347L145.109 126.348L145.145 125.25C144.777 125.621 144.52 125.849 144.377 125.98L143.165 126.952L142.092 125.612L145.486 122.921H147.314V133.442Z" fill="white"/>
<path d="M130.81 122.556H123.507C122.011 122.56 120.577 123.156 119.519 124.214C118.46 125.272 117.864 126.706 117.86 128.202C117.862 129.117 118.086 130.018 118.513 130.827C118.939 131.636 119.556 132.329 120.31 132.847V136.819L124.371 133.858H130.81C132.306 133.854 133.74 133.258 134.798 132.201C135.856 131.143 136.452 129.71 136.457 128.214C136.456 126.716 135.861 125.279 134.803 124.218C133.744 123.158 132.309 122.56 130.81 122.556Z" fill="white"/>
</svg>
