<svg width="464" height="383" viewBox="0 0 464 383" fill="none" xmlns="http://www.w3.org/2000/svg">
<path d="M0 47.9329L230.662 220.199L412.174 95.6224L450.131 70.5611L453.294 75.184L430.179 91.7294L460.107 83.4567L464 88.323L416.554 101.462L0 382.49V374.46L224.822 224.092L0 55.4756V47.9329Z" fill="url(#paint0_linear_205_2957)"/>
<path fill-rule="evenodd" clip-rule="evenodd" d="M338.937 145.988L253.047 1.45988L255.723 0L341.127 144.529L338.937 145.988ZM304.873 176.889L400.739 287.597L402.928 285.894L307.063 175.429L304.873 176.889Z" fill="url(#paint1_linear_205_2957)"/>
<path d="M329.447 217.036L238.204 286.868L246.477 303.413L288.813 276.892L299.519 291.004L286.38 303.413L309.495 331.394L353.778 294.654L341.126 278.352L314.605 289.301L300.736 269.349L336.016 232.852L329.447 217.036Z" fill="#AEC3FF"/>
<path d="M423.123 139.662L403.658 153.775L412.904 166.67L426.53 156.694L424.34 153.775L429.936 148.422L423.123 139.662Z" fill="#AEC3FF"/>
<path d="M262.779 145.259L237.718 156.208L242.097 164.724L238.691 166.913L241.854 171.78L247.694 168.373L249.154 170.563L256.21 166.67L254.506 163.264L267.645 154.261L262.779 145.259Z" fill="#AEC3FF"/>
<path d="M195.624 96.1092L268.132 54.0159L304.872 116.548L230.175 154.261L195.624 96.1092Z" fill="#AEC3FF"/>
<path d="M370.324 110.221L365.944 103.165L374.947 97.0825L379.57 104.625L370.324 110.221Z" fill="#AEC3FF"/>
<path d="M381.516 100.732L372.514 86.1332L392.465 73.9675L401.711 88.5664L381.516 100.732Z" fill="#AEC3FF"/>
<path d="M211.683 58.1522L192.218 42.5801L248.423 10.4626L258.156 27.4946L211.683 58.1522Z" fill="#AEC3FF"/>
<path d="M322.634 141.122L311.685 124.577L338.449 106.572L349.398 123.117L322.634 141.122Z" fill="#AEC3FF"/>
<path d="M208.002 245.983C207.452 246.356 206.866 246.631 206.244 246.808C205.623 246.97 205.082 247.028 204.619 246.982L204.259 245.177C204.708 245.204 205.187 245.152 205.698 245.022C206.208 244.891 206.669 244.687 207.079 244.409C207.563 244.081 207.858 243.766 207.965 243.464C208.08 243.156 208.047 242.869 207.867 242.603C207.72 242.386 207.536 242.274 207.315 242.266C207.087 242.248 206.834 242.29 206.556 242.392C206.278 242.494 205.974 242.62 205.646 242.771C205.325 242.917 204.99 243.05 204.642 243.171C204.294 243.277 203.948 243.332 203.603 243.336C203.252 243.329 202.909 243.238 202.574 243.063C202.24 242.887 201.919 242.572 201.612 242.119C201.271 241.617 201.096 241.102 201.087 240.577C201.072 240.041 201.21 239.53 201.504 239.044C201.798 238.542 202.241 238.091 202.832 237.691C203.275 237.391 203.762 237.147 204.294 236.959C204.825 236.772 205.312 236.686 205.754 236.703L206.115 238.507C205.649 238.492 205.23 238.553 204.857 238.691C204.485 238.814 204.143 238.981 203.831 239.192C203.363 239.509 203.071 239.829 202.955 240.152C202.847 240.47 202.88 240.757 203.053 241.013C203.214 241.249 203.408 241.377 203.635 241.395C203.863 241.413 204.119 241.376 204.404 241.284C204.689 241.191 204.991 241.072 205.312 240.927C205.634 240.766 205.969 240.633 206.316 240.527C206.663 240.421 207.009 240.366 207.354 240.363C207.701 240.344 208.041 240.422 208.376 240.598C208.71 240.774 209.028 241.083 209.328 241.527C209.662 242.019 209.829 242.531 209.83 243.063C209.839 243.588 209.692 244.105 209.389 244.612C209.08 245.109 208.617 245.566 208.002 245.983Z" fill="#2F539B"/>
<path d="M214.78 241.391C214.058 241.88 213.349 242.036 212.655 241.86C211.954 241.674 211.306 241.142 210.712 240.265L205.915 233.186L207.454 232.144L212.221 239.178C212.475 239.553 212.749 239.791 213.046 239.892C213.35 239.987 213.646 239.938 213.933 239.743C214.277 239.51 214.491 239.207 214.574 238.834L215.896 239.858C215.836 240.157 215.704 240.441 215.502 240.707C215.299 240.974 215.059 241.202 214.78 241.391ZM207.055 237.201L206.054 235.723L210.436 232.754L211.437 234.232L207.055 237.201Z" fill="#2F539B"/>
<path d="M217.452 239.429L212.105 231.537L213.569 230.544L215.041 232.717L214.438 232.198C214.275 231.533 214.309 230.92 214.54 230.361C214.78 229.796 215.216 229.299 215.848 228.871L217.04 230.63C216.961 230.655 216.892 230.686 216.835 230.725C216.771 230.754 216.71 230.788 216.653 230.827C216.07 231.222 215.747 231.743 215.682 232.39C215.611 233.028 215.85 233.751 216.397 234.559L218.991 238.386L217.452 239.429Z" fill="#2F539B"/>
<path d="M223.063 235.778C222.784 235.967 222.469 236.015 222.119 235.921C221.762 235.818 221.463 235.59 221.223 235.235C220.969 234.861 220.867 234.498 220.917 234.148C220.961 233.788 221.122 233.513 221.401 233.324C221.68 233.135 221.994 233.087 222.345 233.181C222.689 233.264 222.987 233.493 223.241 233.867C223.482 234.222 223.583 234.584 223.547 234.954C223.503 235.314 223.342 235.589 223.063 235.778Z" fill="#2F539B"/>
<path d="M231.826 229.904C231.153 230.36 230.432 230.683 229.663 230.874C228.888 231.054 228.196 231.085 227.588 230.965L227.13 229.097C227.695 229.189 228.305 229.17 228.961 229.042C229.617 228.914 230.211 228.67 230.745 228.308C231.196 228.002 231.521 227.696 231.72 227.389C231.919 227.081 232.017 226.785 232.015 226.499C232.006 226.203 231.915 225.927 231.741 225.671C231.527 225.355 231.263 225.168 230.947 225.109C230.625 225.04 230.275 225.054 229.898 225.151C229.523 225.233 229.117 225.35 228.681 225.501C228.253 225.648 227.811 225.782 227.355 225.904C226.901 226.011 226.452 226.063 226.008 226.062C225.565 226.046 225.13 225.924 224.701 225.697C224.272 225.47 223.87 225.081 223.496 224.529C223.116 223.968 222.892 223.372 222.824 222.742C222.758 222.097 222.886 221.464 223.208 220.843C223.531 220.207 224.087 219.622 224.874 219.089C225.391 218.738 225.958 218.47 226.573 218.282C227.189 218.095 227.785 218.022 228.363 218.061L228.87 219.896C228.297 219.882 227.762 219.949 227.265 220.099C226.762 220.239 226.321 220.437 225.944 220.693C225.5 220.993 225.183 221.302 224.991 221.619C224.807 221.931 224.719 222.234 224.728 222.53C224.745 222.821 224.844 223.099 225.024 223.365C225.238 223.68 225.501 223.875 225.816 223.95C226.131 224.009 226.473 223.993 226.842 223.901C227.219 223.804 227.629 223.684 228.072 223.542C228.508 223.39 228.95 223.256 229.398 223.14C229.854 223.018 230.299 222.96 230.735 222.967C231.179 222.968 231.611 223.085 232.032 223.317C232.461 223.544 232.859 223.928 233.226 224.47C233.6 225.022 233.82 225.62 233.886 226.265C233.954 226.895 233.826 227.528 233.503 228.164C233.173 228.791 232.614 229.37 231.826 229.904Z" fill="#2F539B"/>
<path d="M239.192 224.848C238.47 225.337 237.762 225.494 237.068 225.317C236.367 225.131 235.719 224.599 235.125 223.723L230.328 216.644L231.867 215.601L236.634 222.636C236.887 223.01 237.162 223.248 237.458 223.349C237.763 223.445 238.058 223.395 238.346 223.201C238.69 222.967 238.904 222.664 238.987 222.292L240.309 223.315C240.249 223.615 240.117 223.898 239.915 224.165C239.712 224.431 239.471 224.659 239.192 224.848ZM231.468 220.658L230.467 219.181L234.849 216.211L235.85 217.689L231.468 220.658Z" fill="#2F539B"/>
<path d="M244.808 221.043C244.078 221.538 243.321 221.799 242.537 221.827C241.756 221.839 241.006 221.642 240.288 221.237C239.579 220.827 238.961 220.232 238.433 219.454C237.899 218.666 237.572 217.874 237.452 217.078C237.333 216.267 237.412 215.517 237.687 214.827C237.97 214.132 238.44 213.562 239.096 213.117C239.736 212.684 240.42 212.465 241.148 212.46C241.875 212.456 242.59 212.662 243.291 213.078C243.992 213.495 244.623 214.117 245.184 214.944C245.237 215.023 245.293 215.114 245.352 215.219C245.418 215.317 245.478 215.413 245.53 215.508L240.052 219.219L239.221 217.993L243.886 214.832L243.543 215.624C243.244 215.166 242.896 214.82 242.498 214.586C242.1 214.352 241.691 214.234 241.271 214.232C240.858 214.224 240.467 214.345 240.098 214.595C239.72 214.851 239.455 215.175 239.301 215.566C239.156 215.952 239.121 216.378 239.197 216.844C239.275 217.295 239.474 217.756 239.795 218.229L239.995 218.525C240.315 218.998 240.689 219.355 241.117 219.598C241.544 219.84 241.989 219.948 242.451 219.923C242.913 219.898 243.357 219.74 243.784 219.451C244.153 219.201 244.438 218.907 244.64 218.569C244.842 218.231 244.958 217.836 244.987 217.385L246.583 217.964C246.568 218.578 246.412 219.151 246.114 219.683C245.818 220.2 245.383 220.653 244.808 221.043Z" fill="#2F539B"/>
<path d="M249.515 217.703L243.866 209.367C243.306 208.54 243.059 207.743 243.128 206.978C243.197 206.198 243.61 205.552 244.365 205.04C244.636 204.857 244.913 204.719 245.198 204.627C245.491 204.529 245.769 204.498 246.034 204.535L246.557 206.208C246.368 206.177 246.184 206.187 246.003 206.238C245.815 206.279 245.643 206.352 245.487 206.458C245.167 206.675 244.998 206.947 244.981 207.275C244.957 207.593 245.089 207.964 245.376 208.388L245.977 209.274L246.587 210.069L251.053 216.66L249.515 217.703ZM244.125 212.082L243.124 210.604L247.506 207.635L248.507 209.112L244.125 212.082Z" fill="#2F539B"/>
<path d="M257.778 212.103L256.697 210.507L256.38 210.225L254.487 207.432C254.12 206.89 253.701 206.563 253.23 206.451C252.752 206.329 252.239 206.455 251.689 206.827C251.32 207.077 251.001 207.394 250.734 207.776C250.474 208.153 250.305 208.548 250.226 208.962L248.711 208.025C248.844 207.461 249.099 206.936 249.476 206.45C249.855 205.949 250.307 205.521 250.832 205.165C251.784 204.52 252.705 204.298 253.596 204.5C254.488 204.686 255.322 205.35 256.096 206.493L259.231 211.119L257.778 212.103ZM255.78 213.608C255.288 213.941 254.791 214.135 254.288 214.188C253.778 214.231 253.301 214.145 252.855 213.929C252.411 213.698 252.036 213.356 251.729 212.903C251.428 212.459 251.244 212.002 251.176 211.531C251.116 211.053 251.217 210.575 251.479 210.096C251.741 209.617 252.204 209.152 252.869 208.701L254.777 207.409L255.608 208.635L253.811 209.853C253.286 210.209 253.003 210.551 252.963 210.881C252.916 211.2 252.992 211.507 253.193 211.803C253.42 212.138 253.711 212.329 254.066 212.376C254.421 212.423 254.795 212.313 255.189 212.046C255.567 211.79 255.833 211.459 255.988 211.052C256.152 210.639 256.162 210.186 256.02 209.693L257.029 210.626C257.195 211.19 257.172 211.73 256.96 212.247C256.756 212.759 256.363 213.213 255.78 213.608Z" fill="#2F539B"/>
<path d="M259.527 199.273C260.052 198.917 260.603 198.723 261.18 198.692C261.766 198.654 262.351 198.811 262.936 199.162C263.515 199.504 264.074 200.073 264.615 200.871L267.679 205.394L266.141 206.436L263.237 202.15C262.763 201.451 262.269 201.023 261.757 200.867C261.252 200.706 260.754 200.792 260.262 201.126C259.9 201.37 259.641 201.676 259.482 202.042C259.323 202.409 259.286 202.822 259.37 203.282C259.456 203.727 259.679 204.216 260.04 204.748L262.744 208.738L261.205 209.781L255.858 201.889L257.322 200.896L258.764 203.024L258.065 202.549C257.954 201.891 258.026 201.282 258.281 200.721C258.537 200.145 258.953 199.662 259.527 199.273Z" fill="#2F539B"/>
<path d="M276.119 199.826C275.429 200.293 274.697 200.538 273.922 200.56C273.148 200.566 272.402 200.367 271.685 199.962C270.967 199.557 270.345 198.965 269.817 198.187C269.283 197.399 268.965 196.601 268.861 195.795C268.751 194.978 268.845 194.217 269.145 193.51C269.453 192.799 269.951 192.209 270.641 191.742C271.281 191.308 271.95 191.085 272.647 191.072C273.347 191.044 274.027 191.244 274.689 191.673L274.068 193.301C273.617 193.06 273.188 192.948 272.781 192.966C272.382 192.977 272.018 193.094 271.69 193.317C271.312 193.573 271.039 193.902 270.869 194.305C270.699 194.708 270.654 195.154 270.736 195.646C270.81 196.127 271.021 196.624 271.368 197.136C271.716 197.648 272.102 198.033 272.528 198.291C272.947 198.539 273.376 198.658 273.813 198.65C274.25 198.641 274.657 198.509 275.035 198.253C275.363 198.031 275.607 197.736 275.765 197.37C275.932 196.998 275.987 196.558 275.931 196.05L277.673 196.077C277.819 196.84 277.756 197.552 277.484 198.21C277.214 198.854 276.759 199.392 276.119 199.826Z" fill="#2F539B"/>
<path d="M283.248 194.995C282.518 195.49 281.761 195.751 280.978 195.779C280.196 195.791 279.446 195.594 278.728 195.189C278.019 194.779 277.401 194.184 276.873 193.406C276.339 192.618 276.012 191.826 275.892 191.03C275.774 190.219 275.852 189.469 276.127 188.779C276.41 188.084 276.88 187.514 277.537 187.069C278.177 186.636 278.86 186.417 279.588 186.412C280.315 186.408 281.03 186.614 281.731 187.03C282.432 187.447 283.063 188.069 283.624 188.896C283.677 188.975 283.733 189.067 283.792 189.171C283.858 189.269 283.918 189.365 283.97 189.46L278.492 193.171L277.661 191.945L282.326 188.784L281.983 189.577C281.684 189.118 281.336 188.772 280.938 188.538C280.541 188.304 280.131 188.186 279.711 188.184C279.298 188.176 278.907 188.297 278.538 188.547C278.16 188.803 277.895 189.127 277.741 189.518C277.596 189.904 277.561 190.33 277.637 190.796C277.715 191.247 277.914 191.708 278.235 192.181L278.435 192.477C278.755 192.95 279.129 193.307 279.557 193.55C279.985 193.792 280.429 193.9 280.891 193.875C281.353 193.85 281.797 193.692 282.224 193.403C282.593 193.153 282.878 192.859 283.08 192.521C283.282 192.183 283.398 191.788 283.428 191.337L285.023 191.916C285.008 192.53 284.852 193.103 284.554 193.635C284.258 194.152 283.823 194.605 283.248 194.995Z" fill="#2F539B"/>
<path d="M287.745 191.796L280.315 180.831L281.853 179.788L289.284 190.754L287.745 191.796Z" fill="#2F539B"/>
<path d="M294.853 186.98L287.843 176.635L289.16 175.743L298.043 180.742L297.354 181.21L295.942 171.147L297.259 170.255L304.281 180.591L302.767 181.617L297.678 174.133L297.998 173.916L299.123 182.362L298.409 182.845L290.932 178.703L291.302 178.453L296.379 185.946L294.853 186.98Z" fill="#2F539B"/>
<path d="M310.51 176.37L309.429 174.774L309.112 174.493L307.219 171.7C306.852 171.158 306.433 170.831 305.962 170.719C305.484 170.597 304.97 170.722 304.421 171.095C304.051 171.345 303.733 171.661 303.465 172.044C303.206 172.421 303.037 172.816 302.957 173.229L301.443 172.293C301.576 171.729 301.831 171.204 302.208 170.718C302.587 170.217 303.039 169.788 303.564 169.433C304.516 168.788 305.437 168.566 306.328 168.767C307.22 168.953 308.054 169.618 308.828 170.761L311.963 175.386L310.51 176.37ZM308.512 177.875C308.02 178.209 307.523 178.402 307.02 178.455C306.51 178.499 306.033 178.412 305.587 178.197C305.143 177.966 304.768 177.623 304.461 177.17C304.16 176.727 303.976 176.269 303.908 175.798C303.848 175.321 303.949 174.843 304.211 174.363C304.473 173.884 304.936 173.419 305.601 172.969L307.509 171.676L308.34 172.903L306.543 174.12C306.018 174.476 305.735 174.819 305.695 175.148C305.648 175.467 305.724 175.775 305.925 176.07C306.152 176.405 306.443 176.596 306.798 176.643C307.153 176.69 307.527 176.58 307.921 176.313C308.299 176.058 308.565 175.726 308.72 175.319C308.884 174.906 308.894 174.454 308.752 173.961L309.761 174.894C309.927 175.457 309.904 175.997 309.692 176.515C309.488 177.027 309.095 177.48 308.512 177.875Z" fill="#2F539B"/>
<path d="M313.937 174.048L308.589 166.156L310.054 165.164L311.526 167.336L310.923 166.818C310.76 166.152 310.794 165.54 311.025 164.98C311.265 164.415 311.701 163.919 312.333 163.491L313.524 165.249C313.445 165.274 313.377 165.306 313.32 165.345C313.256 165.374 313.195 165.408 313.137 165.447C312.555 165.842 312.231 166.363 312.167 167.01C312.096 167.647 312.335 168.37 312.882 169.178L315.476 173.006L313.937 174.048Z" fill="#2F539B"/>
<path d="M322.145 168.637C321.415 169.132 320.658 169.393 319.874 169.421C319.093 169.433 318.343 169.237 317.625 168.832C316.916 168.421 316.298 167.827 315.77 167.048C315.236 166.26 314.909 165.468 314.789 164.673C314.67 163.862 314.749 163.111 315.024 162.422C315.307 161.727 315.777 161.157 316.433 160.712C317.073 160.278 317.757 160.059 318.485 160.055C319.212 160.051 319.927 160.257 320.628 160.673C321.329 161.089 321.96 161.711 322.521 162.539C322.574 162.618 322.63 162.709 322.689 162.813C322.755 162.912 322.815 163.008 322.867 163.102L317.389 166.814L316.558 165.587L321.223 162.426L320.88 163.219C320.581 162.76 320.233 162.414 319.835 162.18C319.437 161.947 319.028 161.829 318.607 161.826C318.195 161.818 317.804 161.939 317.435 162.19C317.057 162.445 316.792 162.769 316.638 163.161C316.493 163.547 316.458 163.973 316.534 164.439C316.612 164.889 316.811 165.351 317.132 165.824L317.332 166.119C317.652 166.592 318.026 166.95 318.454 167.192C318.881 167.434 319.326 167.543 319.788 167.517C320.25 167.492 320.694 167.335 321.12 167.046C321.49 166.795 321.775 166.501 321.977 166.163C322.179 165.825 322.295 165.43 322.324 164.979L323.92 165.558C323.905 166.172 323.749 166.745 323.451 167.278C323.155 167.795 322.719 168.248 322.145 168.637Z" fill="#2F539B"/>
<path d="M109.151 138.207C108.468 137.678 107.874 137.087 107.368 136.433C106.881 135.778 106.547 135.188 106.366 134.663L108.163 133.861C108.358 134.367 108.655 134.889 109.053 135.429C109.451 135.968 109.904 136.435 110.414 136.83C111.016 137.296 111.509 137.555 111.893 137.607C112.287 137.666 112.585 137.566 112.787 137.306C112.951 137.094 112.982 136.865 112.881 136.617C112.787 136.359 112.614 136.087 112.363 135.8C112.112 135.513 111.822 135.203 111.492 134.871C111.173 134.546 110.859 134.203 110.552 133.842C110.262 133.479 110.029 133.105 109.853 132.722C109.684 132.33 109.612 131.928 109.637 131.516C109.663 131.104 109.847 130.677 110.19 130.235C110.57 129.744 111.046 129.435 111.618 129.308C112.197 129.172 112.826 129.213 113.505 129.431C114.202 129.648 114.917 130.041 115.651 130.61C116.202 131.036 116.713 131.525 117.184 132.075C117.655 132.625 117.992 133.148 118.195 133.644L116.399 134.446C116.183 133.924 115.906 133.471 115.568 133.086C115.248 132.699 114.894 132.356 114.506 132.055C113.925 131.605 113.429 131.351 113.016 131.293C112.614 131.244 112.316 131.344 112.123 131.594C111.944 131.825 111.901 132.069 111.995 132.327C112.089 132.584 112.258 132.862 112.501 133.158C112.745 133.454 113.026 133.765 113.346 134.09C113.683 134.413 113.996 134.756 114.286 135.119C114.576 135.482 114.809 135.855 114.985 136.238C115.179 136.619 115.264 137.016 115.238 137.427C115.213 137.839 115.033 138.261 114.697 138.694C114.324 139.175 113.847 139.475 113.265 139.594C112.694 139.721 112.054 139.672 111.347 139.448C110.648 139.213 109.916 138.8 109.151 138.207Z" fill="#2F539B"/>
<path d="M117.571 144.733C116.674 144.038 116.149 143.284 115.995 142.472C115.849 141.65 116.107 140.811 116.771 139.955L122.128 133.042L124.04 134.524L118.716 141.393C118.433 141.759 118.31 142.118 118.347 142.47C118.394 142.83 118.596 143.148 118.953 143.425C119.381 143.756 119.82 143.927 120.269 143.937L119.809 145.636C119.451 145.635 119.075 145.552 118.681 145.386C118.288 145.219 117.918 145.002 117.571 144.733ZM118.3 135.203L119.418 133.76L124.862 137.979L123.744 139.422L118.3 135.203Z" fill="#2F539B"/>
<path d="M121.057 147.273L127.03 139.567L128.85 140.977L127.205 143.098L127.472 142.312C128.12 141.982 128.808 141.884 129.536 142.017C130.275 142.159 131.037 142.534 131.822 143.142L130.491 144.859C130.424 144.777 130.355 144.708 130.284 144.653C130.22 144.588 130.153 144.528 130.081 144.472C129.357 143.911 128.625 143.667 127.883 143.739C127.15 143.802 126.477 144.228 125.865 145.017L122.969 148.755L121.057 147.273Z" fill="#2F539B"/>
<path d="M127.863 152.709C127.516 152.44 127.306 152.101 127.233 151.69C127.167 151.269 127.269 150.886 127.537 150.539C127.82 150.174 128.166 149.98 128.575 149.958C128.991 149.926 129.373 150.045 129.719 150.313C130.066 150.582 130.276 150.922 130.349 151.333C130.43 151.734 130.328 152.117 130.045 152.483C129.776 152.829 129.43 153.023 129.007 153.065C128.591 153.096 128.209 152.978 127.863 152.709Z" fill="#2F539B"/>
<path d="M135.472 158.445L143.302 148.343L147.981 151.969C149.143 152.87 149.998 153.872 150.547 154.974C151.096 156.077 151.324 157.193 151.232 158.323C151.139 159.453 150.698 160.528 149.908 161.547C149.125 162.558 148.194 163.253 147.116 163.634C146.045 164.005 144.907 164.063 143.702 163.807C142.497 163.55 141.314 162.972 140.152 162.071L135.472 158.445ZM138.691 158.398L141.29 160.413C142.096 161.037 142.901 161.43 143.705 161.592C144.52 161.761 145.287 161.709 146.006 161.434C146.735 161.167 147.368 160.688 147.905 159.995C148.449 159.293 148.755 158.56 148.824 157.797C148.911 157.033 148.771 156.277 148.403 155.53C148.046 154.791 147.464 154.11 146.659 153.486L144.059 151.471L138.691 158.398Z" fill="#2F539B"/>
<path d="M151.683 171.17C150.775 170.466 150.111 169.682 149.688 168.816C149.284 167.948 149.124 167.069 149.209 166.181C149.305 165.3 149.647 164.479 150.236 163.719C150.833 162.949 151.537 162.409 152.348 162.099C153.178 161.787 154.039 161.707 154.932 161.861C155.835 162.022 156.694 162.418 157.51 163.05C158.305 163.666 158.887 164.379 159.255 165.188C159.624 165.997 159.755 166.838 159.65 167.711C159.544 168.584 159.178 169.425 158.552 170.233C158.492 170.31 158.42 170.393 158.335 170.481C158.261 170.577 158.185 170.665 158.107 170.743L151.303 165.47L152.231 164.272L158.026 168.763L156.986 168.558C157.34 168.123 157.545 167.659 157.602 167.164C157.659 166.669 157.584 166.187 157.376 165.718C157.178 165.257 156.85 164.849 156.392 164.493C155.923 164.13 155.435 163.906 154.929 163.822C154.433 163.746 153.949 163.802 153.477 163.99C153.022 164.177 152.616 164.501 152.258 164.963L152.035 165.252C151.677 165.713 151.472 166.209 151.42 166.739C151.369 167.269 151.472 167.788 151.731 168.296C151.989 168.805 152.384 169.264 152.914 169.675C153.373 170.031 153.838 170.283 154.309 170.433C154.781 170.583 155.271 170.624 155.78 170.557L155.943 172.462C155.263 172.582 154.557 172.535 153.825 172.322C153.11 172.107 152.396 171.723 151.683 171.17Z" fill="#2F539B"/>
<path d="M161.103 178.471C160.247 177.807 159.613 177.046 159.201 176.188C158.807 175.328 158.652 174.454 158.737 173.565C158.823 172.676 159.16 171.851 159.749 171.091C160.345 170.322 161.059 169.79 161.891 169.495C162.731 169.191 163.613 169.127 164.536 169.304C165.47 169.489 166.365 169.913 167.221 170.577C168.017 171.193 168.596 171.888 168.959 172.662C169.339 173.434 169.46 174.236 169.321 175.068L167.227 174.739C167.265 174.183 167.173 173.681 166.951 173.231C166.738 172.789 166.428 172.41 166.021 172.094C165.552 171.731 165.054 171.499 164.528 171.399C164.001 171.3 163.489 171.349 162.992 171.549C162.502 171.739 162.063 172.084 161.675 172.585C161.288 173.085 161.059 173.601 160.99 174.132C160.928 174.654 161.011 175.158 161.239 175.642C161.467 176.127 161.816 176.551 162.285 176.915C162.693 177.231 163.137 177.436 163.618 177.532C164.109 177.635 164.618 177.599 165.146 177.423L165.988 179.369C165.225 179.701 164.414 179.789 163.556 179.633C162.716 179.474 161.899 179.087 161.103 178.471Z" fill="#2F539B"/>
<path d="M169.961 185.335C169.054 184.632 168.389 183.848 167.967 182.982C167.563 182.114 167.403 181.235 167.488 180.347C167.583 179.466 167.926 178.645 168.515 177.885C169.111 177.115 169.815 176.575 170.627 176.265C171.456 175.953 172.317 175.873 173.21 176.026C174.114 176.187 174.973 176.584 175.789 177.216C176.584 177.832 177.166 178.545 177.534 179.354C177.902 180.163 178.034 181.004 177.928 181.877C177.823 182.75 177.457 183.591 176.83 184.399C176.771 184.476 176.699 184.559 176.614 184.647C176.539 184.743 176.463 184.831 176.386 184.909L169.581 179.636L170.509 178.438L176.305 182.929L175.265 182.724C175.618 182.289 175.823 181.824 175.88 181.33C175.937 180.835 175.862 180.353 175.655 179.884C175.457 179.423 175.129 179.015 174.67 178.659C174.201 178.296 173.714 178.072 173.208 177.988C172.712 177.912 172.228 177.968 171.756 178.156C171.301 178.343 170.895 178.667 170.537 179.129L170.313 179.417C169.955 179.879 169.75 180.375 169.699 180.905C169.647 181.435 169.751 181.954 170.009 182.462C170.268 182.971 170.662 183.43 171.193 183.841C171.651 184.197 172.116 184.449 172.588 184.599C173.059 184.749 173.549 184.79 174.059 184.723L174.222 186.628C173.542 186.748 172.836 186.701 172.103 186.488C171.389 186.273 170.675 185.889 169.961 185.335Z" fill="#2F539B"/>
<path d="M180.162 193.241C179.469 192.704 178.964 192.081 178.647 191.374C178.331 190.667 178.238 189.902 178.369 189.08C178.518 188.256 178.939 187.396 179.633 186.502C180.334 185.597 181.066 184.979 181.829 184.647C182.603 184.322 183.368 184.23 184.125 184.37C184.899 184.508 185.617 184.833 186.28 185.347C187.085 185.971 187.667 186.684 188.025 187.485C188.394 188.294 188.529 189.13 188.431 189.994C188.343 190.865 187.99 191.7 187.371 192.498C186.752 193.297 186.031 193.848 185.21 194.15C184.398 194.46 183.551 194.543 182.668 194.398C181.803 194.251 180.967 193.865 180.162 193.241ZM175.714 189.632L184.013 178.924L185.924 180.405L182.211 185.196L180.47 187.127L178.943 189.224L177.534 191.042L175.714 189.632ZM181.145 191.531C181.603 191.886 182.086 192.106 182.592 192.19C183.108 192.282 183.615 192.229 184.112 192.029C184.609 191.829 185.048 191.484 185.429 190.993C185.816 190.493 186.041 189.982 186.103 189.46C186.172 188.929 186.098 188.424 185.88 187.947C185.672 187.479 185.339 187.066 184.88 186.711C184.422 186.355 183.934 186.131 183.418 186.039C182.902 185.947 182.395 186.001 181.898 186.201C181.408 186.391 180.969 186.736 180.581 187.236C180.201 187.727 179.976 188.238 179.907 188.77C179.837 189.301 179.912 189.806 180.13 190.282C180.348 190.759 180.686 191.175 181.145 191.531Z" fill="#2F539B"/>
<path d="M191.124 201.575L192.332 200.016L192.482 199.601L194.596 196.874C195.006 196.344 195.154 195.805 195.042 195.256C194.936 194.697 194.542 194.153 193.859 193.623C193.401 193.268 192.895 192.984 192.342 192.771C191.799 192.566 191.281 192.465 190.789 192.468L191.058 190.574C191.742 190.596 192.445 190.764 193.166 191.076C193.904 191.386 194.599 191.794 195.252 192.3C196.434 193.217 197.138 194.193 197.363 195.23C197.605 196.265 197.294 197.34 196.429 198.456L192.928 202.973L191.124 201.575ZM188.476 199.685C187.865 199.211 187.404 198.7 187.094 198.152C186.792 197.594 186.648 197.043 186.661 196.499C186.693 195.954 186.88 195.46 187.223 195.017C187.558 194.584 187.967 194.278 188.45 194.097C188.943 193.925 189.517 193.931 190.173 194.116C190.829 194.301 191.57 194.714 192.396 195.354L194.766 197.191L193.838 198.388L191.605 196.658C190.953 196.152 190.436 195.914 190.055 195.942C189.682 195.961 189.383 196.114 189.16 196.403C188.906 196.73 188.842 197.096 188.969 197.502C189.095 197.908 189.402 198.3 189.892 198.68C190.361 199.043 190.857 199.266 191.381 199.348C191.914 199.439 192.416 199.35 192.884 199.082L192.367 200.413C191.833 200.723 191.229 200.817 190.556 200.696C189.893 200.583 189.2 200.246 188.476 199.685Z" fill="#2F539B"/>
<path d="M195.381 204.874L203.68 194.166L205.592 195.647L197.293 206.356L195.381 204.874Z" fill="#2F539B"/>
<path fill-rule="evenodd" clip-rule="evenodd" d="M284.319 67.5207C284.319 49.06 299.616 33.8225 318.442 33.8225C336.975 33.8225 352.271 49.0599 352.271 67.5206C352.271 87.7392 331.386 113.526 318.442 128.47C305.499 112.647 284.319 88.6185 284.319 67.5207Z" fill="#003F54"/>
<path d="M308.033 82.3683C308.033 83.0062 307.841 83.5508 307.457 84.0023C307.043 84.4734 306.522 84.7089 305.892 84.7089H299.337V82.9424H305.892C306.138 82.9424 306.261 82.751 306.261 82.3683C306.261 81.9855 306.138 81.7942 305.892 81.7942H301.123C300.493 81.7942 299.972 81.5586 299.558 81.0876C299.165 80.646 298.968 80.1062 298.968 79.4683C298.968 78.8304 299.17 78.2808 299.573 77.8196C299.977 77.3583 300.493 77.1277 301.123 77.1277H307.678V78.8942H301.123C300.877 78.8942 300.754 79.0855 300.754 79.4683C300.754 79.8412 300.877 80.0277 301.123 80.0277H305.892C306.522 80.0277 307.043 80.2632 307.457 80.7343C307.841 81.1857 308.033 81.7304 308.033 82.3683Z" fill="white"/>
<path d="M327.341 78.8942H321.022V80.0277H326.943V81.7942H321.022V84.7089H319.236V77.1277H327.341V78.8942Z" fill="white"/>
<path d="M338.03 78.8942H334.605V84.7089H332.833V78.8942H329.408V77.1277H338.03V78.8942Z" fill="white"/>
<path d="M306.94 94.0273H299.337V86.4461H301.108V92.2609H306.94V94.0273Z" fill="white"/>
<path d="M318.772 94.0273H317V91.6131H312.335V89.8466H317V88.7867C317 88.404 316.872 88.2126 316.616 88.2126H311.597C311.351 88.2126 311.228 88.404 311.228 88.7867V94.0273H309.456V88.7867C309.456 88.1488 309.653 87.5993 310.047 87.138C310.45 86.6768 310.967 86.4461 311.597 86.4461H316.616C317.256 86.4461 317.773 86.6768 318.167 87.138C318.57 87.5993 318.772 88.1488 318.772 88.7867V94.0273Z" fill="white"/>
<path d="M329.854 90.1852C330.474 90.568 330.784 91.1519 330.784 91.937C330.784 92.5062 330.602 92.9871 330.238 93.3796C329.844 93.8114 329.313 94.0273 328.644 94.0273H321.277V86.4461H328.511C329.18 86.4461 329.712 86.662 330.105 87.0939C330.46 87.4864 330.637 87.9673 330.637 88.5365C330.637 89.2431 330.376 89.7927 329.854 90.1852ZM328.511 89.3609C328.767 89.3609 328.895 89.1695 328.895 88.7867C328.895 88.404 328.767 88.2126 328.511 88.2126H323.048V89.3609H328.511ZM328.644 92.2609C328.9 92.2609 329.028 92.0695 329.028 91.6867C329.028 91.304 328.9 91.1126 328.644 91.1126H323.048V92.2609H328.644Z" fill="white"/>
<path d="M313.596 77.0012L317.118 78.8965V82.6871L313.596 84.5824L310.073 82.6871V78.8965L313.596 77.0012Z" fill="#56CCF2"/>
<path d="M333.749 92.2419L334.605 92.6878V93.5795L333.749 94.0254L332.893 93.5795V92.6878L333.749 92.2419Z" fill="#56CCF2"/>
<path d="M333.749 86.4863L334.605 86.9322V87.8239L333.749 88.2697L332.893 87.8239V86.9322L333.749 86.4863Z" fill="#56CCF2"/>
<path d="M333.749 89.4048L334.605 89.8506V90.7423L333.749 91.1882L332.893 90.7423V89.8506L333.749 89.4048Z" fill="#56CCF2"/>
<path d="M338.03 74.4454H330.601V64.3428H311.039V56.9506H330.601V52.5153C330.601 50.9137 330.065 50.1129 328.992 50.1129H307.944C306.912 50.1129 306.396 50.9137 306.396 52.5153V74.4454H298.968V52.5153C298.968 49.8459 299.793 47.5461 301.444 45.616C303.136 43.6858 305.303 42.7207 307.944 42.7207H328.992C331.674 42.7207 333.841 43.6858 335.492 45.616C337.184 47.5461 338.03 49.8459 338.03 52.5153V74.4454Z" fill="white"/>
<path fill-rule="evenodd" clip-rule="evenodd" d="M403.9 129.853C403.9 122.165 409.815 115.82 417.095 115.82C424.262 115.82 430.177 122.165 430.177 129.853C430.177 138.273 422.1 149.011 417.095 155.235C412.09 148.645 403.9 138.639 403.9 129.853Z" fill="#2F539B"/>
<path fill-rule="evenodd" clip-rule="evenodd" d="M408.528 125.322C408.528 127.399 408.506 131.421 408.48 134.259C408.454 137.098 408.46 139.322 408.492 139.203C408.61 138.769 412.869 121.629 412.869 121.588C412.869 121.565 411.893 121.547 410.699 121.547H408.528L408.528 125.322ZM421.841 121.875C423.404 122.638 424.115 124.476 423.471 126.088C423.067 127.097 421.863 128.048 420.954 128.073C420.748 128.079 420.779 128.109 421.109 128.22C422.363 128.642 423.794 130.381 424.29 132.086C424.537 132.934 424.58 134.278 424.387 135.128C423.958 137.017 422.479 138.685 420.699 139.288L419.988 139.529L422.704 139.558C424.198 139.574 425.431 139.574 425.444 139.558C425.456 139.542 425.5 135.507 425.541 130.592L425.614 121.655L423.508 121.658L421.401 121.66L421.841 121.875ZM413.98 123.025C413.98 123.061 413.634 124.516 413.211 126.258C412.788 127.999 412.201 130.414 411.908 131.624L411.374 133.824H411.899H412.424L413.076 131.259L413.728 128.693L415.305 128.71L416.882 128.727L416.996 128.24C417.202 127.361 417.294 127.414 415.557 127.414H414.004L414.377 125.811L414.75 124.209L417.661 124.154L420.572 124.1L420.707 123.611C420.782 123.342 420.844 123.085 420.845 123.041C420.845 122.996 419.301 122.959 417.413 122.959C415.525 122.959 413.98 122.989 413.98 123.025ZM417.181 129.597C415.971 129.904 414.887 130.847 414.355 132.056C414.057 132.733 414.031 132.88 414.031 133.879C414.032 134.838 414.064 135.041 414.312 135.61C414.872 136.901 415.694 137.672 416.941 138.08C418.097 138.458 419.721 138.207 420.543 137.524L420.796 137.314L420.457 136.938L420.119 136.562L419.603 136.85C418.886 137.251 417.797 137.306 416.994 136.981C415.452 136.358 414.627 134.472 415.159 132.784C415.416 131.966 416.39 130.964 417.161 130.723C418.001 130.46 418.938 130.548 419.63 130.953L420.162 131.264L420.453 130.913C420.614 130.72 420.745 130.52 420.745 130.47C420.745 130.309 419.605 129.724 419.049 129.599C418.429 129.459 417.728 129.459 417.181 129.597Z" fill="white"/>
<path fill-rule="evenodd" clip-rule="evenodd" d="M277.378 238.881C277.378 231.348 283.174 225.13 290.307 225.13C297.33 225.13 303.126 231.348 303.126 238.881C303.126 247.132 295.212 257.654 290.307 263.752C285.403 257.295 277.378 247.49 277.378 238.881Z" fill="#2F539B"/>
<path fill-rule="evenodd" clip-rule="evenodd" d="M284.936 233.088C279.452 235.632 279.612 235.548 279.549 235.91C279.533 235.998 279.533 236.141 279.549 236.229C279.607 236.564 279.705 236.625 281.672 237.534L283.501 238.38L283.522 240.864L283.543 243.349L283.66 243.705C284.136 245.152 285.668 246.322 287.735 246.819C288.663 247.041 289.04 247.082 290.176 247.082C291.311 247.082 291.689 247.041 292.616 246.819C294.682 246.323 296.216 245.15 296.691 243.705L296.808 243.349L296.821 240.872L296.833 238.395L297.153 238.241L297.474 238.087L297.495 242.017C297.515 245.899 297.516 245.948 297.601 246.07C297.764 246.303 297.897 246.376 298.16 246.376C298.423 246.376 298.556 246.303 298.719 246.07C298.804 245.948 298.805 245.91 298.815 241.706L298.826 237.466L299.683 237.068C300.604 236.641 300.75 236.531 300.803 236.226C300.818 236.14 300.818 235.998 300.803 235.91C300.739 235.546 300.9 235.631 295.457 233.105C291.953 231.48 290.347 230.755 290.217 230.743C290.045 230.726 289.622 230.914 284.936 233.088ZM294.341 234.144C296.601 235.191 298.449 236.057 298.449 236.07C298.45 236.082 298.309 236.156 298.136 236.234L297.823 236.376L294.01 235.864C291.912 235.582 290.134 235.362 290.057 235.375C289.869 235.406 289.64 235.602 289.564 235.796C289.434 236.128 289.602 236.584 289.9 236.714C289.972 236.745 291.2 236.925 292.629 237.113C294.059 237.302 295.26 237.469 295.299 237.486C295.347 237.507 294.54 237.902 292.845 238.687C291.456 239.33 290.28 239.868 290.232 239.882C290.173 239.898 288.968 239.361 286.573 238.251C281.995 236.129 281.968 236.116 281.935 236.079C281.906 236.046 290.069 232.244 290.173 232.242C290.206 232.241 292.082 233.097 294.341 234.144ZM287.592 240.276C289.811 241.306 290.079 241.42 290.233 241.4C290.327 241.388 291.49 240.873 292.816 240.256C294.143 239.639 295.29 239.106 295.365 239.073L295.502 239.011L295.49 241.092L295.478 243.173L295.344 243.464C294.756 244.741 292.558 245.686 290.176 245.686C287.794 245.686 285.595 244.741 285.008 243.464L284.874 243.173L284.862 241.089L284.85 239.005L284.986 239.068C285.062 239.102 286.234 239.646 287.592 240.276Z" fill="white"/>
<path fill-rule="evenodd" clip-rule="evenodd" d="M234.555 135.027C234.555 127.58 240.285 121.433 247.337 121.433C254.279 121.433 260.009 127.58 260.009 135.027C260.009 143.183 252.185 153.585 247.337 159.614C242.489 153.231 234.555 143.538 234.555 135.027Z" fill="#2F539B"/>
<path fill-rule="evenodd" clip-rule="evenodd" d="M247.106 126.328C246.67 126.328 246.316 126.682 246.316 127.118V130.651H241.192C240.725 130.651 240.347 131.03 240.347 131.497C240.347 131.964 240.725 132.342 241.192 132.342H246.316V145.085C246.316 145.521 246.67 145.875 247.106 145.875C247.543 145.875 247.896 145.521 247.896 145.085V132.342H253.371C253.838 132.342 254.217 131.964 254.217 131.497C254.217 131.03 253.838 130.651 253.371 130.651H247.896V127.118C247.896 126.682 247.543 126.328 247.106 126.328Z" fill="white"/>
<path d="M246.316 130.651V130.901H246.566V130.651H246.316ZM240.347 131.497H240.097H240.347ZM246.316 132.342H246.566V132.092H246.316V132.342ZM247.896 132.342V132.092H247.646V132.342H247.896ZM247.896 130.651H247.646V130.901H247.896V130.651ZM246.566 127.118C246.566 126.82 246.808 126.578 247.106 126.578V126.078C246.532 126.078 246.066 126.544 246.066 127.118H246.566ZM246.566 130.651V127.118H246.066V130.651H246.566ZM241.192 130.901H246.316V130.401H241.192V130.901ZM240.597 131.497C240.597 131.168 240.863 130.901 241.192 130.901V130.401C240.587 130.401 240.097 130.891 240.097 131.497H240.597ZM241.192 132.092C240.863 132.092 240.597 131.826 240.597 131.497H240.097C240.097 132.102 240.587 132.592 241.192 132.592V132.092ZM246.316 132.092H241.192V132.592H246.316V132.092ZM246.566 145.085V132.342H246.066V145.085H246.566ZM247.106 145.625C246.808 145.625 246.566 145.383 246.566 145.085H246.066C246.066 145.659 246.532 146.125 247.106 146.125V145.625ZM247.646 145.085C247.646 145.383 247.405 145.625 247.106 145.625V146.125C247.681 146.125 248.146 145.659 248.146 145.085H247.646ZM247.646 132.342V145.085H248.146V132.342H247.646ZM253.371 132.092H247.896V132.592H253.371V132.092ZM253.967 131.497C253.967 131.826 253.7 132.092 253.371 132.092V132.592C253.976 132.592 254.467 132.102 254.467 131.497H253.967ZM253.371 130.901C253.7 130.901 253.967 131.168 253.967 131.497H254.467C254.467 130.891 253.976 130.401 253.371 130.401V130.901ZM247.896 130.901H253.371V130.401H247.896V130.901ZM247.646 127.118V130.651H248.146V127.118H247.646ZM247.106 126.578C247.405 126.578 247.646 126.82 247.646 127.118H248.146C248.146 126.544 247.681 126.078 247.106 126.078V126.578Z" fill="white"/>
<path fill-rule="evenodd" clip-rule="evenodd" d="M363.025 79.9638C363.025 72.3767 368.862 66.1144 376.047 66.1144C383.119 66.1144 388.957 72.3767 388.957 79.9638C388.957 88.2733 380.986 98.8711 376.047 105.013C371.107 98.5098 363.025 88.6347 363.025 79.9638Z" fill="#2F539B"/>
<path fill-rule="evenodd" clip-rule="evenodd" d="M374.983 69.6446C374.602 69.7796 374.336 70.0302 374.168 70.4146C374.088 70.596 374.072 70.6891 374.072 70.967C374.072 71.246 374.088 71.3379 374.169 71.5223C374.308 71.8385 374.501 72.049 374.792 72.1993L375.042 72.3286L374.663 73.0735C373.546 75.2702 367.684 86.8816 367.571 87.1219C367.226 87.8549 367.334 88.6381 367.858 89.1986C368.246 89.613 368.757 89.7907 369.285 89.6939C369.587 89.6384 369.727 89.5633 372.143 88.1596L373.631 87.2947L373.778 87.4446C373.977 87.6471 374.127 87.7209 374.338 87.7209C374.577 87.7209 374.815 87.588 374.951 87.3775C375.047 87.2303 375.062 87.1676 375.08 86.8341L375.101 86.4572L375.873 86.0091L376.645 85.5611L376.672 85.6873C376.687 85.7567 376.74 86.2994 376.791 86.8933C376.87 87.8312 376.893 87.9967 376.968 88.1515C377.193 88.621 377.782 88.7315 378.161 88.3755C378.402 88.1491 378.41 88.1053 378.539 86.1871C378.612 85.114 378.674 84.4197 378.699 84.3924C378.722 84.3678 379.716 83.7852 380.909 83.0977C382.101 82.4101 383.091 81.835 383.108 81.8197C383.136 81.7936 383.005 81.4677 382.966 81.4677C382.956 81.4677 382.018 82.0064 380.881 82.6648C379.744 83.3231 378.787 83.8729 378.754 83.8864C378.702 83.9076 378.696 83.885 378.711 83.7217C378.732 83.4993 378.835 83.2453 378.953 83.1273C378.999 83.0812 379.805 82.5993 380.744 82.0566C381.684 81.5138 382.508 81.0132 382.575 80.9442C382.965 80.5459 383.009 79.8629 382.674 79.4154C382.424 79.0826 382.42 79.0649 382.395 78.3608C382.376 77.804 382.362 77.6864 382.292 77.5324C382.172 77.2643 381.947 77.0596 381.497 76.8091C380.936 76.4973 380.864 76.4075 380.672 75.7915C380.408 74.943 380.204 74.7585 379.402 74.6427C378.812 74.5576 378.739 74.5113 378.39 73.9953C378.073 73.5255 377.874 73.3563 377.559 73.2864C377.383 73.2472 377.282 73.2531 376.864 73.327C376.312 73.4246 376.262 73.4174 375.905 73.1875C375.69 73.049 375.468 72.9921 375.249 73.0195C375.178 73.0284 375.12 73.028 375.12 73.0187C375.12 72.962 375.441 72.3696 375.48 72.3532C375.569 72.3166 376.521 72.4241 376.967 72.5209C379.481 73.0678 381.63 74.8358 382.744 77.2743C383.292 78.4742 383.535 79.5068 383.603 80.9171C383.632 81.5107 383.643 81.585 383.737 81.7885C383.862 82.0617 384.078 82.2922 384.345 82.4385C384.525 82.537 384.586 82.5492 384.896 82.5492C385.208 82.5492 385.268 82.537 385.453 82.4365C385.71 82.2971 385.925 82.0659 386.061 81.7823C386.163 81.5682 386.164 81.5593 386.16 80.8778C386.146 78.5459 385.376 76.1672 384.01 74.2313C382.235 71.7147 379.666 70.1065 376.753 69.6882C376.144 69.6007 375.175 69.5769 374.983 69.6446ZM376.204 70.0232C378.287 70.2255 380.137 71.0045 381.809 72.3828C382.268 72.7612 383.263 73.8342 383.615 74.3296C384.74 75.9148 385.477 77.7613 385.703 79.5603C385.725 79.7333 385.751 79.94 385.761 80.0195L385.779 80.1641L385.575 80.0329C385.09 79.7202 384.517 79.7587 384.08 80.1334L383.943 80.2506L383.926 80.1611C383.917 80.1118 383.881 79.8769 383.847 79.6389C383.694 78.5725 383.303 77.4262 382.765 76.473C381.513 74.2506 379.549 72.7302 377.205 72.1692C376.727 72.0546 375.913 71.9513 375.485 71.9507C375.323 71.9504 375.132 71.9229 375.028 71.8851C374.689 71.7615 374.422 71.3568 374.422 70.967C374.422 70.5874 374.688 70.1739 375.013 70.0513C375.206 69.9784 375.638 69.9682 376.204 70.0232ZM375.802 73.5732C376.163 73.8096 376.298 73.8276 376.902 73.7201L377.42 73.628L377.622 73.7273C377.8 73.8144 377.857 73.8738 378.086 74.2157C378.507 74.8459 378.605 74.9101 379.314 75.0214C380.032 75.1342 380.095 75.1906 380.334 75.9315C380.415 76.1829 380.506 76.4386 380.536 76.4996C380.636 76.7035 380.868 76.8947 381.343 77.1647C381.761 77.4023 381.826 77.4526 381.913 77.6114C382.006 77.7805 382.012 77.8269 382.032 78.4394C382.055 79.1491 382.089 79.277 382.333 79.5771C382.551 79.8447 382.599 80.1347 382.474 80.4301C382.436 80.5191 382.35 80.6364 382.282 80.6908C382.214 80.7452 381.431 81.2095 380.541 81.7227C379.652 82.2359 378.869 82.7 378.802 82.7541C378.628 82.8944 378.471 83.1419 378.41 83.3726C378.379 83.4884 378.295 84.4739 378.209 85.7273C378.127 86.9127 378.044 87.9157 378.024 87.9561C377.954 88.0947 377.798 88.1929 377.647 88.1929C377.531 88.1929 377.477 88.1663 377.38 88.0627C377.238 87.9112 377.244 87.9471 377.14 86.6787C377.055 85.6318 377.024 85.4407 376.904 85.2245C376.424 84.3551 375.239 84.4011 374.823 85.3053C374.74 85.4849 374.733 85.5555 374.714 86.2854C374.704 86.7181 374.681 87.1036 374.664 87.1423C374.627 87.2268 374.455 87.3276 374.348 87.3276C374.211 87.3276 374.077 87.2218 373.852 86.9356C373.614 86.6335 373.387 86.4553 373.153 86.3875C372.957 86.3307 372.67 86.336 372.504 86.3996C372.429 86.428 371.553 86.9346 370.557 87.5253C368.578 88.6991 368.564 88.7055 368.23 88.5693C368.034 88.489 367.826 88.2531 367.767 88.0448C367.735 87.93 367.735 87.8386 367.766 87.6785C367.797 87.5183 368.649 85.7997 371.187 80.7794L374.567 74.0936L374.697 74.1053C375.053 74.1371 375.477 74.4931 375.657 74.9108C375.747 75.1194 375.763 75.205 375.763 75.4906C375.763 75.7894 375.75 75.8539 375.644 76.0854C375.418 76.5765 374.992 76.8769 374.515 76.8828C374.373 76.8845 374.189 76.8716 374.106 76.8542L373.957 76.8224L373.895 76.989C373.862 77.0806 373.842 77.1634 373.851 77.173C373.887 77.2121 374.304 77.2977 374.458 77.2977C375.481 77.2979 376.288 76.2814 376.119 75.2047C376.015 74.5415 375.561 73.9689 374.982 73.7715C374.795 73.7076 374.791 73.7038 374.854 73.6287C374.889 73.5863 374.984 73.5181 375.065 73.4772C375.287 73.3647 375.532 73.3966 375.802 73.5732ZM378.622 75.5862C378.083 75.7664 377.682 76.3006 377.677 76.846C377.674 77.1443 377.77 77.3536 377.984 77.5152C378.297 77.7517 378.827 77.641 379.215 77.2581C379.407 77.0689 379.593 76.6952 379.626 76.4333C379.703 75.8161 379.201 75.3925 378.622 75.5862ZM379.07 75.9783C379.449 76.1479 379.23 76.8637 378.714 77.1394C378.466 77.272 378.419 77.2797 378.248 77.216C377.806 77.0509 378.1 76.1983 378.676 75.9785C378.854 75.9104 378.918 75.9104 379.07 75.9783ZM376.025 77.6814C375.924 77.6976 375.921 77.7048 375.943 77.8624C375.977 78.103 376.233 78.633 376.398 78.8054L376.542 78.955L376.659 78.8119L376.777 78.6689L376.643 78.5105C376.49 78.3293 376.343 78.016 376.309 77.8003C376.285 77.6443 376.278 77.6411 376.025 77.6814ZM378.487 78.2661C377.659 78.4805 377.103 79.3915 377.245 80.3008C377.471 81.7434 379.126 82.3189 380.087 81.2894C381.296 79.9948 380.153 77.8348 378.487 78.2661ZM379.44 78.7299C379.724 78.8685 379.976 79.1364 380.106 79.438C380.194 79.6419 380.21 79.7289 380.21 80.0126C380.21 80.2962 380.194 80.3833 380.106 80.5871C379.977 80.8879 379.726 81.1552 379.438 81.2986C379.251 81.392 379.171 81.4087 378.906 81.4087C378.64 81.4087 378.56 81.392 378.373 81.2986C378.085 81.1552 377.834 80.8879 377.705 80.5871C377.617 80.3834 377.601 80.296 377.601 80.0126C377.601 79.7286 377.616 79.6428 377.704 79.4423C378.018 78.722 378.782 78.4086 379.44 78.7299ZM373.635 79.2493C372.807 79.4637 372.251 80.3747 372.393 81.284C372.619 82.7266 374.274 83.3021 375.236 82.2726C376.445 80.978 375.301 78.818 373.635 79.2493ZM374.589 79.7132C374.873 79.8517 375.125 80.1197 375.255 80.4212C375.343 80.6251 375.358 80.7121 375.358 80.9958C375.358 81.2794 375.343 81.3665 375.255 81.5704C375.125 81.8711 374.874 82.1384 374.587 82.2818C374.4 82.3753 374.319 82.3919 374.054 82.3919C373.789 82.3919 373.708 82.3753 373.521 82.2818C373.234 82.1384 372.983 81.8711 372.853 81.5704C372.765 81.3666 372.75 81.2792 372.749 80.9958C372.749 80.7118 372.765 80.626 372.852 80.4255C373.166 79.7052 373.931 79.3918 374.589 79.7132ZM385.209 80.2743C385.586 80.4118 385.849 80.8582 385.803 81.2805C385.742 81.8327 385.246 82.2458 384.752 82.1565C384.51 82.1127 384.237 81.9074 384.118 81.6786C383.695 80.8706 384.39 79.9758 385.209 80.2743ZM373.092 83.5129C372.93 83.6549 372.523 83.8667 372.411 83.8667C372.302 83.8667 372.279 83.9199 372.308 84.1042C372.338 84.2896 372.39 84.3001 372.705 84.1842C372.953 84.0927 373.176 83.9546 373.374 83.7694L373.521 83.6319L373.392 83.5144C373.322 83.4498 373.255 83.3965 373.245 83.3959C373.234 83.3953 373.165 83.4479 373.092 83.5129ZM370.213 84.0808C369.662 84.2981 369.616 85.1046 370.122 85.6915C370.297 85.8954 370.636 86.0918 370.878 86.1307C371.411 86.2162 371.82 85.736 371.704 85.1599C371.556 84.4186 370.78 83.8573 370.213 84.0808ZM370.719 84.4735C371.158 84.6412 371.48 85.2189 371.319 85.5512C371.134 85.9335 370.486 85.6979 370.234 85.1565C370.11 84.8912 370.102 84.8409 370.162 84.6583C370.233 84.4407 370.447 84.3696 370.719 84.4735ZM376.196 85.062C376.505 85.2052 376.513 85.1949 375.791 85.6101C375.428 85.8193 375.12 85.9905 375.107 85.9905C375.055 85.9905 375.089 85.6467 375.155 85.4989C375.253 85.2806 375.304 85.2215 375.49 85.1075C375.679 84.9924 376.001 84.9716 376.196 85.062ZM373.039 86.78C373.125 86.8033 373.24 86.8608 373.294 86.9078L373.392 86.9933L371.692 87.9766C369.243 89.3934 369.403 89.3135 369.023 89.3136C368.756 89.3137 368.674 89.2973 368.504 89.2101C368.393 89.153 368.272 89.0813 368.234 89.0507C368.174 89.0013 368.194 88.9968 368.409 89.0114C368.567 89.0222 368.711 89.0068 368.826 88.9665C368.922 88.9327 369.791 88.4363 370.757 87.8632C371.724 87.2902 372.559 86.8039 372.614 86.7826C372.747 86.7304 372.852 86.7297 373.039 86.78Z" fill="white" stroke="white" stroke-width="0.2"/>
<path fill-rule="evenodd" clip-rule="evenodd" d="M215.617 14.1568C215.617 6.98036 221.528 1.05693 228.803 1.05693C235.965 1.05693 241.876 6.98036 241.876 14.1568C241.876 22.0166 233.805 32.0409 228.803 37.8503C223.802 31.6991 215.617 22.3584 215.617 14.1568Z" fill="#2F539B"/>
<path fill-rule="evenodd" clip-rule="evenodd" d="M222.272 6.40854C222.895 6.15941 223.84 5.93115 225.208 5.93115C226.627 5.93115 227.804 6.40214 228.864 6.82625L228.901 6.84094C229.993 7.27789 230.967 7.66075 232.127 7.66075C233.353 7.66075 234.137 7.45661 234.596 7.27334C234.825 7.18148 234.976 7.09374 235.061 7.03671C235.104 7.00812 235.131 6.98699 235.144 6.97655C235.147 6.97364 235.15 6.97155 235.151 6.97035C235.331 6.79836 235.596 6.74827 235.827 6.84383C236.062 6.94118 236.215 7.17051 236.215 7.4249V17.8025C236.215 17.9693 236.149 18.1293 236.031 18.2472L235.586 17.8025C236.031 18.2472 236.03 18.2476 236.03 18.2479L236.029 18.2486L236.028 18.25L236.025 18.2531C236.022 18.2552 236.02 18.2575 236.017 18.2601C236.012 18.2652 236.006 18.271 235.999 18.2776C235.984 18.2907 235.966 18.3067 235.943 18.3252C235.899 18.362 235.838 18.4084 235.759 18.4609C235.601 18.5661 235.374 18.6945 235.063 18.8189C234.44 19.068 233.495 19.2962 232.127 19.2962C230.708 19.2962 229.531 18.8253 228.471 18.4011L228.434 18.3865C227.341 17.9495 226.368 17.5666 225.208 17.5666C223.982 17.5666 223.198 17.7708 222.739 17.9541C222.51 18.0459 222.359 18.1337 222.274 18.1907C222.231 18.2193 222.204 18.2404 222.191 18.2508C222.188 18.2538 222.185 18.2558 222.184 18.257C222.004 18.429 221.739 18.4791 221.508 18.3836C221.273 18.2862 221.12 18.0569 221.12 17.8025V7.4249C221.12 7.25809 221.186 7.09812 221.304 6.98017L221.749 7.4249C221.304 6.98017 221.305 6.97984 221.305 6.9795L221.306 6.97882L221.307 6.97741L221.31 6.97434C221.312 6.97219 221.315 6.96985 221.318 6.96731C221.323 6.96223 221.329 6.95637 221.336 6.9498C221.351 6.93666 221.369 6.92066 221.391 6.90224C221.436 6.86538 221.497 6.81894 221.576 6.76646C221.734 6.66134 221.961 6.53288 222.272 6.40854ZM222.378 7.74871V16.7452C223 16.5126 223.916 16.3087 225.208 16.3087C226.627 16.3087 227.804 16.7797 228.864 17.2038L228.901 17.2185C229.993 17.6555 230.967 18.0383 232.127 18.0383C233.353 18.0383 234.137 17.8342 234.596 17.6509C234.751 17.5889 234.87 17.5288 234.957 17.4787V8.48219C234.335 8.71483 233.419 8.91865 232.127 8.91865C230.708 8.91865 229.531 8.44766 228.471 8.02355L228.434 8.00886C227.341 7.57191 226.368 7.18905 225.208 7.18905C223.982 7.18905 223.198 7.39319 222.739 7.57646C222.584 7.63849 222.465 7.69863 222.378 7.74871Z" fill="white"/>
<path fill-rule="evenodd" clip-rule="evenodd" d="M221.749 17.1733C222.096 17.1733 222.378 17.4549 222.378 17.8023V23.8559C222.378 24.2032 222.096 24.4848 221.749 24.4848C221.402 24.4848 221.12 24.2032 221.12 23.8559V17.8023C221.12 17.4549 221.402 17.1733 221.749 17.1733Z" fill="white"/>
<defs>
<linearGradient id="paint0_linear_205_2957" x1="464" y1="77.1571" x2="43.3349" y2="215.617" gradientUnits="userSpaceOnUse">
<stop offset="0.0416667" stop-color="#56CCF2" stop-opacity="0"/>
<stop offset="0.479167" stop-color="#56CCF2"/>
<stop offset="0.953125" stop-color="#56CCF2" stop-opacity="0"/>
</linearGradient>
<linearGradient id="paint1_linear_205_2957" x1="255.782" y1="-4.22779" x2="402.697" y2="287.49" gradientUnits="userSpaceOnUse">
<stop stop-color="#56CCF2" stop-opacity="0"/>
<stop offset="0.5" stop-color="#56CCF2"/>
<stop offset="1" stop-color="#56CCF2" stop-opacity="0"/>
</linearGradient>
</defs>
</svg>
