<svg width="38" height="50" viewBox="0 0 38 50" fill="none" xmlns="http://www.w3.org/2000/svg">
<g clip-path="url(#clip0_14_10624)">
<path d="M16.7632 45.957C18.0001 47.1777 20.009 47.1777 21.246 45.957L37.0793 30.332C38.3163 29.1113 38.3163 27.1289 37.0793 25.9082C35.8423 24.6875 33.8335 24.6875 32.5965 25.9082L22.1663 36.2109V6.25C22.1663 4.52148 20.7512 3.125 18.9996 3.125C17.248 3.125 15.8329 4.52148 15.8329 6.25V36.2012L5.40273 25.918C4.16576 24.6973 2.1569 24.6973 0.919922 25.918C-0.317057 27.1387 -0.317057 29.1211 0.919922 30.3418L16.7533 45.9668L16.7632 45.957Z" fill="white"/>
</g>
<defs>
<clipPath id="clip0_14_10624">
<rect width="38" height="50" fill="white"/>
</clipPath>
</defs>
</svg>
