<svg width="20" height="18" viewBox="0 0 20 18" fill="none" xmlns="http://www.w3.org/2000/svg">
<path id="Vector" d="M18.4205 18C16.1565 18 13.9196 17.5458 11.7098 16.6375C9.50008 15.7292 7.48957 14.4417 5.67831 12.775C3.86705 11.1083 2.46785 9.25833 1.48071 7.225C0.493569 5.19167 0 3.13333 0 1.05C0 0.75 0.108676 0.5 0.326027 0.3C0.543379 0.1 0.815068 0 1.1411 0H5.54247C5.79604 0 6.02245 0.0791667 6.22169 0.2375C6.42093 0.395833 6.53866 0.583333 6.57489 0.8L7.28128 4.3C7.3175 4.56667 7.30845 4.79167 7.25411 4.975C7.19977 5.15833 7.10015 5.31667 6.95525 5.45L4.31986 7.9C4.68212 8.51667 5.11229 9.1125 5.61039 9.6875C6.10849 10.2625 6.65639 10.8167 7.25411 11.35C7.8156 11.8667 8.40426 12.3458 9.02009 12.7875C9.63592 13.2292 10.288 13.6333 10.9763 14L13.5301 11.65C13.6932 11.5 13.906 11.3875 14.1686 11.3125C14.4312 11.2375 14.6893 11.2167 14.9429 11.25L18.6922 11.95C18.9458 12.0167 19.1541 12.1375 19.3171 12.3125C19.4801 12.4875 19.5616 12.6833 19.5616 12.9V16.95C19.5616 17.25 19.453 17.5 19.2356 17.7C19.0183 17.9 18.7466 18 18.4205 18Z" fill="black"/>
</svg>
