<svg width="22" height="20" viewBox="0 0 22 20" fill="none" xmlns="http://www.w3.org/2000/svg">
<path id="Vector" d="M10.8676 20C9.36423 20 7.95145 19.7375 6.62922 19.2125C5.307 18.6875 4.15685 17.975 3.17877 17.075C2.20068 16.175 1.42637 15.1167 0.855822 13.9C0.285274 12.6833 0 11.3833 0 10C0 8.61667 0.285274 7.31667 0.855822 6.1C1.42637 4.88333 2.20068 3.825 3.17877 2.925C4.15685 2.025 5.307 1.3125 6.62922 0.7875C7.95145 0.2625 9.36423 0 10.8676 0C12.3709 0 13.7837 0.2625 15.1059 0.7875C16.4282 1.3125 17.5783 2.025 18.5564 2.925C19.5345 3.825 20.3088 4.88333 20.8793 6.1C21.4499 7.31667 21.7352 8.61667 21.7352 10V11.45C21.7352 12.4333 21.3684 13.2708 20.6348 13.9625C19.9013 14.6542 19.0002 15 17.9315 15C17.2976 15 16.6998 14.875 16.1384 14.625C15.5769 14.375 15.1059 14.0167 14.7256 13.55C14.2003 14.0333 13.6071 14.3958 12.946 14.6375C12.2849 14.8792 11.5921 15 10.8676 15C9.36423 15 8.08276 14.5125 7.02317 13.5375C5.96358 12.5625 5.43379 11.3833 5.43379 10C5.43379 8.61667 5.96358 7.4375 7.02317 6.4625C8.08276 5.4875 9.36423 5 10.8676 5C12.3709 5 13.6524 5.4875 14.712 6.4625C15.7716 7.4375 16.3014 8.61667 16.3014 10V11.45C16.3014 11.8833 16.4553 12.25 16.7632 12.55C17.0712 12.85 17.4606 13 17.9315 13C18.4024 13 18.7919 12.85 19.0998 12.55C19.4077 12.25 19.5616 11.8833 19.5616 11.45V10C19.5616 7.76667 18.7194 5.875 17.0349 4.325C15.3505 2.775 13.2947 2 10.8676 2C8.44049 2 6.3847 2.775 4.70023 4.325C3.01575 5.875 2.17352 7.76667 2.17352 10C2.17352 12.2333 3.01575 14.125 4.70023 15.675C6.3847 17.225 8.44049 18 10.8676 18H16.3014V20H10.8676ZM10.8676 13C11.7732 13 12.543 12.7083 13.1769 12.125C13.8109 11.5417 14.1279 10.8333 14.1279 10C14.1279 9.16667 13.8109 8.45833 13.1769 7.875C12.543 7.29167 11.7732 7 10.8676 7C9.96195 7 9.19216 7.29167 8.55822 7.875C7.92428 8.45833 7.60731 9.16667 7.60731 10C7.60731 10.8333 7.92428 11.5417 8.55822 12.125C9.19216 12.7083 9.96195 13 10.8676 13Z" fill="black"/>
</svg>
