<svg width="39" height="34" viewBox="0 0 39 34" fill="none" xmlns="http://www.w3.org/2000/svg">
<path id="Vector" d="M27.1154 7.96875C27.1154 11.5945 22.2882 18.0559 20.1684 20.7188C19.66 21.3563 18.7157 21.3563 18.2138 20.7188C16.094 18.0559 11.2668 11.5945 11.2668 7.96875C11.2668 3.56602 14.813 0 19.1911 0C23.5693 0 27.1154 3.56602 27.1154 7.96875ZM27.6437 13.3078C27.8748 12.8496 28.0861 12.3914 28.2776 11.9398C28.3106 11.8602 28.3437 11.7738 28.3767 11.6941L36.0368 8.61289C37.0802 8.19453 38.2094 8.96484 38.2094 10.0938V28.0766C38.2094 28.7273 37.8132 29.3117 37.2122 29.5574L27.6437 33.4023V13.3078ZM9.25936 9.18398C9.41784 10.1203 9.73481 11.0633 10.1046 11.9398C10.2961 12.3914 10.5074 12.8496 10.7386 13.3078V30.0023L2.34542 33.3824C1.30206 33.8008 0.172852 33.0305 0.172852 31.9016V13.9188C0.172852 13.268 0.569065 12.6836 1.16999 12.4379L9.26596 9.18398H9.25936ZM21.8193 22.0469C22.7372 20.8914 24.1768 19.0121 25.5305 16.9336V33.4887L12.8517 29.843V16.9336C14.2054 19.0121 15.645 20.8914 16.5629 22.0469C17.9166 23.7469 20.4656 23.7469 21.8193 22.0469ZM19.1911 10.0938C19.8917 10.0938 20.5635 9.8139 21.0589 9.31575C21.5543 8.81761 21.8325 8.14198 21.8325 7.4375C21.8325 6.73302 21.5543 6.05739 21.0589 5.55925C20.5635 5.0611 19.8917 4.78125 19.1911 4.78125C18.4906 4.78125 17.8187 5.0611 17.3233 5.55925C16.828 6.05739 16.5497 6.73302 16.5497 7.4375C16.5497 8.14198 16.828 8.81761 17.3233 9.31575C17.8187 9.8139 18.4906 10.0938 19.1911 10.0938Z" fill="black"/>
</svg>
