<svg width="89" height="89" viewBox="0 0 89 89" fill="none" xmlns="http://www.w3.org/2000/svg">
<path d="M44.5 0L83.0381 22.25V66.75L44.5 89L5.96187 66.75V22.25L44.5 0Z" fill="#F7F7F7"/>
<path d="M31.0158 22.04C30.9456 22.0663 28.9581 23.2182 26.6012 24.5952C23.7456 26.265 22.279 27.143 22.2014 27.2255C22.1386 27.2968 22.0684 27.4206 22.0462 27.4994C21.9871 27.702 21.9834 57.3216 22.0425 57.5355C22.0647 57.6181 22.1349 57.7381 22.1977 57.8057C22.3528 57.9708 39.4016 67.9365 39.6085 67.9853C39.7045 68.0078 39.8117 68.004 39.9188 67.974C40.1515 67.914 57.156 57.9708 57.3074 57.8094C57.3702 57.7381 57.4404 57.6181 57.4626 57.5355C57.4921 57.4379 57.5032 55.8883 57.5032 52.6277V47.8624L61.6481 45.4423C65.5566 43.1572 65.7967 43.0146 65.8965 42.857L65.9999 42.6882V37.5552C65.9999 31.9683 66.011 32.2834 65.793 32.0808C65.7339 32.0283 63.7427 30.8464 61.3637 29.4543L57.0415 26.9253H56.8013H56.5612L52.3313 29.3943C50.004 30.7563 48.0239 31.9195 47.9278 31.9833C47.8318 32.047 47.7173 32.1671 47.6692 32.2534L47.5843 32.4035L47.5658 37.24L47.5473 42.0766L44.0563 44.1215C42.1353 45.2434 40.5357 46.1739 40.5025 46.1815C40.4397 46.2002 40.436 45.7387 40.436 36.8498V27.4957L40.3436 27.3343C40.2291 27.1392 40.7463 27.4506 35.5559 24.4189C31.2042 21.8749 31.3076 21.9275 31.0158 22.04ZM35.0166 25.7434C36.8378 26.8053 38.3266 27.6833 38.3266 27.6945C38.3266 27.7058 36.7307 28.6438 34.7802 29.7845L31.23 31.8557L27.6873 29.7845C25.7404 28.6438 24.1445 27.7058 24.1445 27.6945C24.1445 27.6833 25.7367 26.7452 27.6836 25.6083L31.2189 23.5409L31.4628 23.676C31.5994 23.751 33.199 24.6815 35.0166 25.7434ZM60.3515 30.5087C62.2688 31.6306 63.8536 32.5573 63.8683 32.5723C63.909 32.6099 56.8789 36.7185 56.7829 36.7147C56.6868 36.711 49.7417 32.6399 49.7454 32.5911C49.7491 32.5348 56.7348 28.4487 56.805 28.46C56.8383 28.4675 58.4342 29.3905 60.3515 30.5087ZM27.1368 31.1015L30.517 33.0789L30.5355 42.872L30.554 52.6652L30.6353 52.7965C30.6796 52.8678 30.7609 52.9616 30.82 53.0066C30.8754 53.0479 32.7557 54.136 34.9981 55.423L39.0691 57.7606V61.903C39.0691 64.1768 39.0544 66.0417 39.0359 66.0417C39.0211 66.0417 35.5005 63.993 31.2152 61.4865L23.4242 56.9314L23.4131 42.9283L23.4057 28.929L23.5793 29.0266C23.6791 29.0791 25.2787 30.0134 27.1368 31.1015ZM39.0691 37.9942V47.0182L38.9324 47.1082C38.7477 47.2283 31.9799 51.1831 31.9578 51.1831C31.9467 51.1831 31.9393 47.1082 31.9393 42.1291L31.943 33.0789L35.4784 31.0114C37.4215 29.8745 39.0248 28.9515 39.0433 28.959C39.058 28.9665 39.0691 33.0339 39.0691 37.9942ZM52.5567 35.9193L56.0994 37.9905V42.0953C56.0994 45.9901 56.0957 46.2002 56.0366 46.1777C55.9997 46.1627 54.3964 45.2284 52.4717 44.1028L48.9696 42.0578V37.953C48.9696 35.6942 48.9807 33.8481 48.9918 33.8481C49.0065 33.8481 50.6098 34.7786 52.5567 35.9193ZM64.633 37.9267C64.633 40.1742 64.6183 42.0278 64.6035 42.0466C64.5776 42.0878 57.5697 46.1927 57.5254 46.1927C57.5143 46.1927 57.5032 44.3466 57.5032 42.0878V37.983L61.0386 35.9155C62.9854 34.7786 64.5887 33.8481 64.6035 33.8481C64.622 33.8481 64.633 35.6829 64.633 37.9267ZM51.8659 45.3935C54.8471 47.1383 55.3606 47.4497 55.3089 47.491C55.2756 47.5135 54.1452 48.1739 52.8005 48.9543C51.4558 49.7348 47.9722 51.7534 45.0574 53.4419L39.7599 56.5149L39.59 56.4211C38.5778 55.8583 32.7077 52.4626 32.7077 52.4363C32.704 52.38 48.2418 43.3035 48.3047 43.3261C48.3342 43.3373 49.9375 44.2678 51.8659 45.3935ZM56.092 52.819L56.081 56.9314L48.2936 61.4865C44.0083 63.993 40.4877 66.0417 40.4692 66.0417C40.4508 66.0417 40.436 64.3682 40.436 61.903V57.7606L48.2418 53.2355C52.5308 50.7478 56.0551 48.7104 56.0736 48.7067C56.0883 48.7067 56.0957 50.5565 56.092 52.819Z" fill="#F9322C"/>
</svg>
