<svg width="89" height="89" viewBox="0 0 89 89" fill="none" xmlns="http://www.w3.org/2000/svg">
<path d="M44.5 0L83.0381 22.25V66.75L44.5 89L5.96187 66.75V22.25L44.5 0Z" fill="#F7F7F7"/>
<path fill-rule="evenodd" clip-rule="evenodd" d="M47.9077 22.9998C47.5896 22.9998 47.2941 23.0683 47.0214 23.1595C47.601 23.5474 47.9191 24.0607 48.0782 24.6424C48.0897 24.7224 48.1123 24.7794 48.1236 24.8592C48.135 24.9277 48.1465 24.996 48.1465 25.0645C48.1918 26.0685 47.885 26.1939 47.669 26.7872C47.3395 27.5516 47.4304 28.3729 47.8282 29.0345C47.8623 29.1143 47.9077 29.2056 47.9646 29.2854C47.5328 26.3994 49.9304 25.9658 50.3735 25.0645C50.4076 24.2774 49.7598 23.7527 49.2487 23.3876C48.7598 23.091 48.3167 22.9998 47.9077 22.9998ZM51.5213 23.6499C51.4756 23.9125 51.5098 23.844 51.4984 23.9808C51.4872 24.072 51.4872 24.1861 51.4757 24.2774C51.4531 24.3686 51.4304 24.4599 51.3963 24.5512C51.3734 24.6424 51.3395 24.7337 51.3053 24.825C51.2598 24.9163 51.2259 24.9962 51.1805 25.0873C51.1462 25.133 51.1235 25.1786 51.0894 25.2243L51.0212 25.3269C50.9644 25.4069 50.9076 25.4866 50.8508 25.5551C50.7826 25.6236 50.7259 25.7034 50.6463 25.7605V25.7719C50.578 25.829 50.51 25.8973 50.4303 25.9545C50.1917 26.1368 49.919 26.2738 49.6689 26.4449C49.5894 26.5019 49.51 26.5476 49.4417 26.6161C49.3622 26.6732 49.294 26.7302 49.226 26.7985C49.1463 26.867 49.0895 26.9355 49.0213 27.0153C48.9645 27.0838 48.8964 27.1636 48.8509 27.2436C48.7941 27.3234 48.7373 27.4031 48.6918 27.4831C48.6464 27.5744 48.6123 27.6542 48.5669 27.7455C48.5328 27.8367 48.4987 27.9167 48.476 28.0078C48.4456 28.1018 48.4191 28.1969 48.3963 28.2931C48.3851 28.3386 48.3851 28.3956 48.3736 28.4414C48.3622 28.4869 48.3622 28.5326 48.351 28.5782C48.351 28.6695 48.3395 28.7722 48.3395 28.8635C48.3395 28.9318 48.3395 29.0003 48.351 29.0688C48.351 29.1601 48.3624 29.2513 48.3851 29.3539C48.3965 29.4452 48.4192 29.5364 48.4419 29.6277C48.476 29.719 48.4987 29.8102 48.5328 29.9013C48.5556 29.9585 48.5896 30.0156 48.6123 30.0613L45.9989 29.0458C45.5557 28.9205 45.1238 28.8063 44.6807 28.7037L43.9649 28.5325C43.281 28.3956 42.5909 28.2928 41.8969 28.2246C41.874 28.2246 41.8626 28.2131 41.8399 28.2131C41.1582 28.1446 40.4877 28.1105 39.8059 28.1105C39.306 28.1105 38.8061 28.1333 38.3174 28.1676C37.6242 28.2131 36.931 28.3044 36.238 28.4184C36.0675 28.4414 35.8969 28.4754 35.7267 28.5097C35.3743 28.5782 35.0335 28.658 34.704 28.7379L34.1926 28.8748C34.022 28.9433 33.8631 29.0231 33.7039 29.0916L33.329 29.2628C33.3062 29.2741 33.2835 29.2741 33.2722 29.2854C33.1586 29.3424 33.0563 29.3881 32.9539 29.4452C32.92 29.4566 32.8971 29.4681 32.8745 29.4794C32.7496 29.5364 32.6246 29.6048 32.5222 29.662C32.4428 29.6962 32.3631 29.7417 32.295 29.776C32.2609 29.7989 32.2154 29.8217 32.1927 29.833C32.0904 29.89 31.9882 29.9471 31.8973 30.0043C31.7949 30.0611 31.704 30.1183 31.6245 30.1753C31.5451 30.2323 31.4654 30.2779 31.3974 30.3349C31.3859 30.3464 31.3745 30.3464 31.3632 30.3579C31.295 30.4034 31.2155 30.4604 31.1473 30.5175L31.1244 30.5404L30.9542 30.6772C30.9314 30.6885 30.9085 30.7115 30.886 30.7228C30.8292 30.7685 30.7724 30.8255 30.7154 30.8711C30.7042 30.894 30.6815 30.9053 30.6701 30.9168C30.6018 30.9853 30.5338 31.0421 30.4655 31.1106C30.4541 31.1106 30.4541 31.1221 30.4427 31.1336C30.3746 31.1906 30.3064 31.2589 30.2382 31.3274C30.2269 31.3389 30.2269 31.3504 30.2155 31.3504C30.1559 31.4085 30.099 31.4693 30.0451 31.5327C30.0222 31.5557 29.9883 31.5784 29.9656 31.6012C29.9088 31.6697 29.8406 31.738 29.7724 31.8065C29.7609 31.8295 29.7383 31.8408 29.727 31.8636C29.6361 31.9548 29.5564 32.0461 29.4655 32.1374L29.4316 32.1716C29.2498 32.3655 29.0565 32.5595 28.852 32.7305C28.6505 32.911 28.438 33.0787 28.2156 33.2324C27.9952 33.3876 27.7677 33.5323 27.5339 33.666C27.3019 33.7937 27.0629 33.908 26.818 34.0083C26.5763 34.1114 26.3299 34.2027 26.0794 34.282C25.6022 34.3847 25.1135 34.5785 24.6931 34.6128C24.6022 34.6128 24.5 34.6357 24.4091 34.647C24.3067 34.67 24.2158 34.6928 24.1249 34.7155L23.8524 34.8183C23.7613 34.8523 23.6704 34.8981 23.5794 34.9436C23.5 35.0006 23.409 35.0464 23.3296 35.1034C23.2499 35.1604 23.1704 35.2287 23.1022 35.2974C23.0227 35.3544 22.9432 35.4342 22.875 35.5027C22.8068 35.5825 22.7387 35.651 22.6818 35.7308C22.625 35.8221 22.5569 35.902 22.5114 35.9931C22.4546 36.0731 22.3978 36.1644 22.3524 36.2556C22.3067 36.3582 22.2615 36.4495 22.2274 36.5522C22.1915 36.6505 22.1574 36.7494 22.125 36.8488C22.1023 36.9401 22.0797 37.0314 22.0682 37.1225C22.0682 37.1341 22.0568 37.1454 22.0568 37.1569C22.0341 37.2594 22.0341 37.3964 22.0227 37.4648C22.0114 37.5447 22 37.6131 22 37.693C22 37.7386 22 37.7956 22.0114 37.8413C22.0229 37.9211 22.0343 37.9896 22.057 38.0581C22.0797 38.1264 22.1023 38.1949 22.1365 38.2634V38.2747C22.1706 38.3432 22.2159 38.4117 22.2613 38.4802C22.307 38.5485 22.3524 38.617 22.409 38.6855C22.466 38.7425 22.5342 38.8109 22.6024 38.8681C22.6705 38.9364 22.7387 38.9934 22.8182 39.0506C23.0909 39.2902 23.1592 39.37 23.5114 39.5525C23.5682 39.5867 23.625 39.6095 23.6932 39.6438C23.7046 39.6438 23.7159 39.6551 23.7273 39.6551C23.7273 39.678 23.7273 39.6893 23.7386 39.7123C23.75 39.8035 23.7727 39.8948 23.7956 39.9859C23.8172 40.0798 23.8476 40.1715 23.8863 40.2597C23.9204 40.3282 23.9433 40.3967 23.9772 40.4652C23.9886 40.488 24.0001 40.5107 24.0113 40.5222C24.0569 40.6135 24.1022 40.6933 24.1478 40.7731L24.3182 41.0126C24.375 41.0811 24.443 41.1609 24.5114 41.2294C24.5795 41.2979 24.6477 41.3548 24.7272 41.4234C24.7272 41.4234 24.7386 41.4347 24.75 41.4347C24.8181 41.4918 24.8863 41.549 24.9546 41.5945C25.034 41.6515 25.1135 41.6973 25.2044 41.7428C25.2841 41.7885 25.375 41.8341 25.4659 41.8681C25.534 41.9026 25.6136 41.9253 25.6931 41.9481C25.7045 41.9596 25.7158 41.9596 25.7385 41.9711C25.7842 41.9824 25.8408 41.9938 25.8862 42.0051C25.8522 42.6213 25.8408 43.203 25.9319 43.4083C26.0339 43.6365 26.534 42.9406 27.0339 42.1421C26.9657 42.9291 26.9203 43.8533 27.0339 44.127C27.159 44.4122 27.8407 43.5225 28.4315 42.5413C36.4881 40.6705 43.84 46.2604 44.6127 54.1545C44.465 52.9224 42.9536 52.238 42.2604 52.4091C41.9196 53.2533 41.34 54.337 40.4082 55.0102C40.4896 54.2484 40.4513 53.4785 40.2946 52.7286C40.0447 53.7781 39.5561 54.7591 38.8856 55.6033C37.8062 55.6831 36.7267 55.1585 36.1585 54.3711C36.113 54.337 36.1017 54.2687 36.0676 54.2228C36.0335 54.143 35.9994 54.0632 35.9767 53.9834C35.9436 53.9069 35.9206 53.8264 35.9085 53.7439C35.8971 53.6639 35.8971 53.5841 35.8971 53.4928V53.3216C35.9085 53.2418 35.9312 53.162 35.9539 53.0822C35.9767 53.0022 35.9994 52.9224 36.0335 52.8426C36.0789 52.7627 36.113 52.6829 36.1698 52.6031C36.3631 52.0555 36.3631 51.6106 36.0108 51.3482C35.9426 51.3034 35.8703 51.2652 35.7949 51.234C35.7494 51.2227 35.6926 51.1999 35.6472 51.1885C35.6131 51.177 35.5904 51.1655 35.5563 51.1542C35.4766 51.1313 35.3971 51.1085 35.3177 51.0972C35.2401 51.0747 35.1598 51.0631 35.079 51.063C34.9994 51.0515 34.9085 51.04 34.829 51.04C34.7722 51.04 34.7154 51.0517 34.6584 51.0517C34.5677 51.0517 34.4882 51.063 34.4087 51.0857C34.3291 51.0972 34.2496 51.1087 34.1699 51.1315C34.0904 51.1544 34.0108 51.1772 33.9313 51.2113C33.8518 51.2455 33.7836 51.2797 33.7041 51.314C33.6359 51.3482 33.5676 51.3938 33.4882 51.428C30.8406 53.162 32.4201 57.2233 34.2267 58.3983C33.545 58.5236 32.8518 58.6719 32.6587 58.8202L32.6358 58.8432C33.1247 59.1398 33.6359 59.3908 34.1699 59.6076C34.8972 59.847 35.6699 60.0638 36.0108 60.155V60.1665C36.9523 60.3603 37.915 60.4293 38.8743 60.3718C43.9081 60.0182 48.0329 56.1737 48.7828 51.1087C48.8057 51.2112 48.8284 51.3025 48.8511 51.4053C48.8852 51.6106 48.9305 51.8272 48.9532 52.0442V52.0555C48.9761 52.1582 48.9873 52.2609 48.9988 52.352V52.3979C49.0102 52.5003 49.0216 52.6031 49.0216 52.6945C49.0329 52.8199 49.0441 52.9452 49.0441 53.0709V53.2534C49.0441 53.3105 49.0556 53.3788 49.0556 53.4358C49.0556 53.5043 49.0441 53.5728 49.0441 53.6413V53.8009C49.0441 53.8809 49.0327 53.9492 49.0327 54.0292C49.0327 54.0747 49.0327 54.1204 49.0215 54.1774C49.0215 54.2572 49.01 54.337 49.01 54.4283C48.9986 54.4626 48.9986 54.4968 48.9986 54.531C48.9873 54.6223 48.9759 54.7023 48.9645 54.7934C48.9645 54.8276 48.9645 54.8619 48.9532 54.8961C48.9418 55.0102 48.9191 55.1129 48.9077 55.227V55.2497C48.885 55.3525 48.8623 55.4665 48.8395 55.5693V55.6033L48.7714 55.9114C48.7714 55.9229 48.76 55.9456 48.76 55.9571C48.7371 56.0597 48.7144 56.1624 48.6805 56.265V56.2993C48.6464 56.4135 48.6123 56.516 48.5896 56.6188C48.5782 56.6301 48.5782 56.6416 48.5782 56.6416L48.4758 56.9837C48.4304 57.0979 48.3963 57.2005 48.351 57.3145C48.3054 57.4287 48.2713 57.5428 48.2259 57.6454C48.1804 57.7596 48.135 57.8621 48.0895 57.9762H48.0782C48.0325 58.0789 47.9873 58.193 47.9305 58.2957C47.9191 58.33 47.9077 58.3527 47.8964 58.3755C47.885 58.387 47.885 58.3985 47.8735 58.4098C47.135 59.9042 46.0442 61.216 44.6805 62.2428C44.5896 62.2998 44.4987 62.3681 44.408 62.4368C44.3851 62.4595 44.351 62.4708 44.3283 62.4938C44.2488 62.5508 44.1692 62.6078 44.0784 62.6649L44.1124 62.7334H44.1238L44.6011 62.6649H44.6125C44.9079 62.6191 45.2033 62.5621 45.4988 62.5051C45.5782 62.4936 45.6693 62.4708 45.7488 62.4481C45.8056 62.4366 45.851 62.4253 45.9078 62.4138C45.9874 62.4025 46.0669 62.3796 46.1464 62.3683C46.2146 62.3453 46.2828 62.334 46.3511 62.3113C47.4874 62.0374 48.5896 61.6609 49.6464 61.216C47.8396 63.6916 45.4191 65.6879 42.5897 66.9998C43.8966 66.9085 45.2033 66.6919 46.4647 66.3268C51.044 64.9692 54.8961 61.8777 57.2027 57.7139C56.7345 60.3551 55.6908 62.8599 54.1461 65.049C55.2473 64.3197 56.2648 63.4704 57.18 62.5166C59.7253 59.8471 61.3957 56.459 61.9639 52.8199C62.3515 54.6253 62.4626 56.4795 62.2934 58.3185C70.4975 46.8308 62.9751 34.921 59.8275 31.7839C59.8163 31.761 59.8048 31.7497 59.8048 31.7269C59.7936 31.7382 59.7936 31.7382 59.7936 31.7497C59.7936 31.7382 59.7936 31.7382 59.7821 31.7267C59.7821 31.8637 59.7707 32.0006 59.7593 32.1375C59.7253 32.3999 59.6912 32.6509 59.6457 32.902C59.5889 33.1528 59.5208 33.4039 59.4526 33.6547C59.3718 33.9017 59.2808 34.1453 59.1801 34.3849C59.0755 34.6213 58.9617 34.8534 58.8389 35.0808C58.7141 35.2974 58.5776 35.5257 58.4299 35.731C58.2837 35.9432 58.1282 36.1487 57.9639 36.3471C57.7935 36.5524 57.6119 36.7349 57.43 36.9173C57.323 37.0157 57.2131 37.1108 57.1005 37.2026C57.0096 37.2824 56.9299 37.3509 56.839 37.4307C56.6345 37.5905 56.43 37.7387 56.2028 37.8756C55.9869 38.0126 55.7597 38.1494 55.5323 38.2636C55.2937 38.3776 55.0551 38.4802 54.8166 38.583C54.5778 38.6742 54.3278 38.7542 54.0779 38.8225C53.8266 38.8904 53.5726 38.9476 53.3165 38.9938C53.0552 39.0393 52.7939 39.0621 52.5438 39.0848C52.362 39.0963 52.1802 39.1078 51.9983 39.1078C51.737 39.1078 51.4757 39.0848 51.2257 39.0619C50.9644 39.0393 50.7031 39.0051 50.453 38.948C50.1917 38.9021 49.9417 38.8338 49.6916 38.754H49.6804C49.9304 38.7311 50.1803 38.7083 50.4303 38.6627C50.6867 38.6178 50.9408 38.5606 51.1917 38.4915C51.4416 38.4237 51.6881 38.3439 51.9303 38.2521C52.1802 38.1608 52.4188 38.0468 52.646 37.9326C52.8848 37.8185 53.1007 37.693 53.3279 37.5562C53.5439 37.4079 53.7596 37.2596 53.9643 37.0999C54.1679 36.941 54.3614 36.7695 54.5437 36.5865C54.737 36.4152 54.9074 36.2214 55.0778 36.0276C55.2439 35.8278 55.403 35.6223 55.555 35.4114C55.5779 35.3774 55.6005 35.3316 55.6232 35.2974C55.7368 35.1149 55.8504 34.9323 55.9528 34.7498C56.0777 34.5236 56.1915 34.2914 56.2937 34.054C56.3964 33.8153 56.4873 33.5716 56.5663 33.3239C56.6459 33.0843 56.7027 32.8333 56.7595 32.5824C56.8051 32.3201 56.8505 32.069 56.8731 31.818C56.896 31.5557 56.9187 31.2933 56.9187 31.0423C56.9187 30.8598 56.9072 30.6772 56.8958 30.4947C56.8733 30.2323 56.8392 29.9815 56.8051 29.7303C56.7603 29.473 56.7034 29.2179 56.6345 28.966C56.555 28.7265 56.4755 28.4756 56.3846 28.2361C56.2937 27.9965 56.1801 27.7569 56.0664 27.5287C55.9415 27.3006 55.8165 27.0725 55.68 26.8557C55.535 26.6419 55.3835 26.4327 55.2256 26.2283C55.0545 26.0315 54.8802 25.8375 54.7029 25.6464C54.6071 25.5485 54.5086 25.4535 54.4074 25.3613C53.8984 24.9644 53.3713 24.5913 52.828 24.2433C52.7485 24.1976 52.6803 24.1635 52.6006 24.1292C52.2257 23.8897 51.8735 23.7642 51.5213 23.6501V23.6499Z" fill="#E0234E"/>
</svg>
