<svg width="89" height="89" viewBox="0 0 89 89" fill="none" xmlns="http://www.w3.org/2000/svg">
<path d="M44.5 0L83.0381 22.25V66.75L44.5 89L5.96187 66.75V22.25L44.5 0Z" fill="#F7F7F7"/>
<path d="M44.0086 69.5193C43.3444 69.5193 42.6846 69.3453 42.1023 69.0106L36.0345 65.4242C35.1281 64.9182 35.5703 64.7392 35.8693 64.6361C37.0776 64.2138 37.3228 64.1184 38.6127 63.3871C38.7483 63.3099 38.9257 63.3371 39.0645 63.4189L43.7261 66.1804C43.8945 66.2714 44.1333 66.2714 44.2894 66.1804L62.4654 55.7064C62.6337 55.6111 62.7428 55.4158 62.7428 55.2159V34.2769C62.7428 34.0679 62.6337 33.8817 62.4617 33.7772L44.2929 23.3123C44.1247 23.2124 43.9017 23.2124 43.7334 23.3123L25.5683 33.7772C25.3922 33.8772 25.2803 34.0725 25.2803 34.2723V55.2114C25.2803 55.4112 25.3895 55.6019 25.5624 55.6973L30.5397 58.568C33.2423 59.9169 34.8937 58.3272 34.8937 56.7285V36.0619C34.8937 35.7667 35.1258 35.5397 35.4216 35.5397H37.7237C38.0103 35.5397 38.2469 35.7667 38.2469 36.0619V56.7374C38.2469 60.3348 36.2814 62.4015 32.8646 62.4015C31.8137 62.4015 30.9856 62.4014 28.6744 61.2659L23.9063 58.5225C23.3266 58.1849 22.8456 57.7015 22.5111 57.1206C22.1767 56.5396 22.0005 55.8814 22 55.2114V34.2723C22 32.9097 22.7279 31.6379 23.9063 30.9657L42.1004 20.4871C43.2515 19.8376 44.7803 19.8376 45.9222 20.4871L64.0937 30.9703C64.6733 31.3069 65.1544 31.7894 65.4889 32.3696C65.8233 32.9497 65.9996 33.6074 66 34.2769V55.2159C66 56.5739 65.2675 57.8412 64.0937 58.5225L45.9222 69.0011C45.3398 69.336 44.6789 69.5114 44.0069 69.5098" fill="#F7E01D"/>
<path d="M49.6233 55.091C41.6704 55.091 40.003 51.4463 40.003 48.3895C40.003 48.0988 40.2378 47.8672 40.5293 47.8672H42.877C43.1364 47.8672 43.3547 48.0556 43.3957 48.3113C43.7505 50.6996 44.8061 51.9042 49.6152 51.9042C53.4459 51.9042 55.0748 51.0403 55.0748 49.0122C55.0748 47.8449 54.6107 46.9774 48.6597 46.3959C43.6823 45.9054 40.6067 44.8108 40.6067 40.8365C40.6067 37.1756 43.7005 34.9954 48.8826 34.9954C54.7017 34.9954 57.5862 37.0121 57.9501 41.3451C57.9562 41.4181 57.9469 41.4914 57.9232 41.5604C57.8994 41.6296 57.8616 41.693 57.812 41.7469C57.7624 41.8007 57.7021 41.8436 57.635 41.873C57.568 41.9024 57.4956 41.9175 57.4224 41.9175H55.0611C54.8153 41.9175 54.6016 41.7448 54.5515 41.5087C53.9828 38.997 52.6088 38.1931 48.8735 38.1931C44.6923 38.1931 44.2055 39.6464 44.2055 40.7366C44.2055 42.0583 44.7788 42.4444 50.4205 43.1892C56.0074 43.9296 58.6599 44.9743 58.6599 48.8942C58.6599 52.8458 55.3568 55.1122 49.5969 55.1122L49.6233 55.091Z" fill="#F7E01D"/>
</svg>
