<svg width="89" height="89" viewBox="0 0 89 89" fill="none" xmlns="http://www.w3.org/2000/svg">
<path d="M44.5 0L83.0381 22.25V66.75L44.5 89L5.96187 66.75V22.25L44.5 0Z" fill="#F7F7F7"/>
<path d="M25.451 37.9998H31.9185C33.8168 38.0163 35.1924 38.5857 36.0452 39.7069C36.898 40.8281 37.1794 42.3594 36.8899 44.301C36.7774 45.1882 36.5279 46.0583 36.1417 46.9119C35.7716 47.7654 35.257 48.5352 34.5972 49.2215C33.7927 50.0916 32.9321 50.6439 32.0151 50.8784C31.098 51.1129 30.1486 51.2299 29.1674 51.2299H26.2715L25.3544 55.9998H22L25.451 37.9998ZM28.2745 40.8617L26.8265 48.3931C26.9231 48.4096 27.0196 48.4182 27.1161 48.4182C27.2286 48.4182 27.3415 48.4182 27.454 48.4182C28.9985 48.4347 30.2857 48.2761 31.3152 47.9412C32.3447 47.5897 33.0368 46.3681 33.3906 44.2759C33.6802 42.5186 33.3906 41.5059 32.5218 41.2382C31.669 40.9706 30.5994 40.8451 29.3122 40.8617C29.1191 40.8783 28.9343 40.8868 28.7571 40.8868C28.5964 40.8868 28.4275 40.8868 28.2504 40.8868L28.2745 40.8617Z" fill="#7278AA"/>
<path d="M41.3722 33.9998H44.6039L43.6906 38.522H46.5945C48.1869 38.5538 49.3733 38.8852 50.154 39.5165C50.9502 40.1477 51.1844 41.3476 50.8566 43.1154L49.2875 50.9998H46.009L47.5078 43.4705C47.6637 42.6811 47.6169 42.1209 47.3673 41.7894C47.1176 41.458 46.579 41.2922 45.7514 41.2922L43.152 41.2686L41.2317 50.9998H38L41.3722 33.9998Z" fill="#7278AA"/>
<path d="M54.451 37.9998H60.9185C62.8168 38.0163 64.1924 38.5857 65.0452 39.7069C65.898 40.8281 66.1794 42.3594 65.8899 44.301C65.7774 45.1882 65.5279 46.0583 65.1417 46.9119C64.7716 47.7654 64.257 48.5352 63.5972 49.2215C62.7927 50.0916 61.9321 50.6439 61.0151 50.8784C60.098 51.1129 59.1486 51.2299 58.1674 51.2299H55.2715L54.3544 55.9998H51L54.451 37.9998ZM57.2745 40.8617L55.8265 48.3931C55.9231 48.4096 56.0196 48.4182 56.1161 48.4182C56.2286 48.4182 56.3415 48.4182 56.454 48.4182C57.9985 48.4347 59.2857 48.2761 60.3152 47.9412C61.3447 47.5897 62.0368 46.3681 62.3906 44.2759C62.6802 42.5186 62.3906 41.5059 61.5218 41.2382C60.669 40.9706 59.5994 40.8451 58.3122 40.8617C58.1191 40.8783 57.9343 40.8868 57.7571 40.8868C57.5964 40.8868 57.4275 40.8868 57.2504 40.8868L57.2745 40.8617Z" fill="#7278AA"/>
</svg>
