<svg width="89" height="89" viewBox="0 0 89 89" fill="none" xmlns="http://www.w3.org/2000/svg">
<path d="M44.5 0L83.0381 22.25V66.75L44.5 89L5.96187 66.75V22.25L44.5 0Z" fill="#F7F7F7"/>
<path d="M42.954 23.019C40.1828 23.1803 37.9183 23.7304 36.0794 24.6803C34.3507 25.5752 33.301 26.7084 33.0477 27.9516C32.9963 28.1937 32.989 28.5824 32.989 30.5665V32.8953H38.4945H44V33.4454V33.9955H35.6133C26.4338 33.9955 26.9843 33.9845 26.4191 34.2046C24.6133 34.9124 23.0938 37.4209 22.3854 40.8536C22.1028 42.2325 22 43.3291 22 44.9978C22 46.3547 22.0404 46.9782 22.2019 48.0967C22.7634 51.9769 24.4224 55.0061 26.4191 55.791C26.9366 55.9927 27.021 56 29.5572 56H31.8879V55.4756C31.8879 54.2616 31.9833 52.5746 32.1118 51.5074C32.6476 47.0515 34.2186 45.1885 37.8852 44.6677C39.0817 44.499 40.359 44.4477 43.5963 44.4477C48.2649 44.4477 49.9056 44.3193 51.3113 43.8609C53.4731 43.1531 54.4348 41.5577 54.8238 38.048C54.978 36.6837 54.9927 36.1263 54.9927 31.9968V28.036L54.9082 27.7426C54.6917 26.9944 54.2035 26.305 53.4511 25.6742C51.4361 23.9945 47.7658 22.9676 43.8899 23.0006C43.4751 23.0043 43.0567 23.0116 42.954 23.019ZM38.4761 26.5324C39.1441 26.7084 39.7314 27.2952 39.9076 27.9626C39.9773 28.2414 39.9773 28.7475 39.9076 29.0262C39.7314 29.6937 39.1441 30.2804 38.4761 30.4565C38.355 30.4858 38.1201 30.5115 37.9513 30.5115C37.3677 30.5115 36.9126 30.3245 36.5125 29.9247C36.1088 29.5213 35.9253 29.0739 35.9253 28.4944C35.9253 27.915 36.1088 27.4675 36.5125 27.0641C36.9162 26.6607 37.342 26.4847 37.9256 26.481C38.1164 26.4773 38.3514 26.503 38.4761 26.5324Z" fill="#3471A4"/>
<path d="M56.0974 35.0663C56.0313 37.9746 55.7854 39.8303 55.2826 41.2642C54.4384 43.6481 52.8932 44.84 50.0597 45.2727C48.7127 45.4781 47.9933 45.5111 43.7064 45.5478C41.6363 45.5625 39.6983 45.5955 39.3937 45.6175C36.9896 45.7935 35.8078 46.1786 34.8939 47.0881C33.712 48.2617 33.1725 50.3228 33.0257 54.1845C33 54.8263 32.989 56.5904 32.9963 58.6221L33.0073 61.9961L33.0917 62.2712C33.2789 62.88 33.6166 63.4117 34.1415 63.9435C37.309 67.1122 45.5158 67.9923 50.9846 65.7515C53.1061 64.8787 54.4825 63.6611 54.9046 62.2712C54.989 61.9998 54.989 61.9778 55.0037 59.5463L55.0147 57.1001H49.5055H44V56.55V55.9999H52.3867C61.5662 55.9999 61.0157 56.0109 61.5809 55.7909C63.5812 55.006 65.2402 51.9694 65.7981 48.0783C65.9633 46.9231 66 46.3913 66 44.9977C66 43.6041 65.9633 43.0723 65.7981 41.917C65.2476 38.0663 63.6032 35.026 61.6396 34.2302C61.0634 33.9991 61.023 33.9954 58.4501 33.9954H56.1231L56.0974 35.0663ZM50.5882 59.539C51.2562 59.715 51.8435 60.3018 52.0197 60.9692C52.0894 61.248 52.0894 61.7541 52.0197 62.0328C51.8435 62.7003 51.2562 63.287 50.5882 63.4631C50.4671 63.4924 50.2322 63.5181 50.0634 63.5181C49.4798 63.5181 49.0247 63.3311 48.6246 62.9313C48.2209 62.5279 48.0374 62.0805 48.0374 61.501C48.0374 60.9216 48.2209 60.4741 48.6246 60.0707C49.0283 59.6673 49.4541 59.4913 50.0377 59.4876C50.2285 59.4839 50.4634 59.5096 50.5882 59.539Z" fill="#F7E01D"/>
</svg>
