<svg width="89" height="89" viewBox="0 0 89 89" fill="none" xmlns="http://www.w3.org/2000/svg">
<path d="M44.5 0L83.0381 22.25V66.75L44.5 89L5.96187 66.75V22.25L44.5 0Z" fill="#F7F7F7"/>
<path d="M59.8198 22.0056C56.3433 22.1257 53.3114 24.0305 51.0532 26.6625C48.5501 29.5497 46.8875 32.9748 45.6904 36.472C43.5471 34.7264 41.8935 32.467 38.4534 31.4786C35.7932 30.7185 33.0029 31.0309 30.4334 32.9328C29.2152 33.8371 28.3778 35.201 27.9818 36.484C26.9479 39.819 29.064 42.7874 30.0283 43.8539L32.1293 46.0893C32.5616 46.5279 33.6045 47.6726 33.0967 49.316C32.5464 51.1037 30.379 52.2574 28.1601 51.5784C27.1686 51.2719 25.7418 50.5387 26.0622 49.5082C26.1922 49.0847 26.4975 48.7662 26.6638 48.4026C26.8119 48.0872 26.8844 47.8528 26.9298 47.7146C27.3349 46.3957 26.7817 44.6832 25.3639 44.2475C24.0398 43.8449 22.6855 44.1634 22.1595 45.8578C21.564 47.7837 22.489 51.2749 27.4528 52.7982C33.2689 54.5738 38.1873 51.4251 38.8857 47.324C39.3271 44.7552 38.1571 42.8415 36.0168 40.3868L34.2757 38.4729C33.2176 37.4214 32.8578 35.6367 33.9491 34.2637C34.8712 33.104 36.1861 32.6113 38.3355 33.1911C41.4763 34.0354 42.876 36.2046 45.2097 37.9502C44.2453 41.0928 43.6166 44.2475 43.0452 47.0806L42.6946 49.1898C41.0229 57.8936 39.7502 62.6708 36.437 65.4169C35.7689 65.8885 34.8168 66.5946 33.3778 66.6456C32.6251 66.6697 32.3802 66.1529 32.3681 65.9276C32.353 65.4018 32.7973 65.1615 33.0936 64.9241C33.535 64.6837 34.206 64.2841 34.1608 63.0133C34.1123 61.505 32.8548 60.1981 31.041 60.2612C29.6807 60.3063 27.61 61.5772 27.6885 63.9056C27.7702 66.3091 30.0223 68.1118 33.4231 67.9946C35.2399 67.9346 39.2998 67.1985 43.2992 62.4754C47.9546 57.0585 49.2544 50.8482 50.2369 46.3026L51.3282 40.3026C51.9359 40.3747 52.5857 40.4228 53.2932 40.4409C59.0882 40.564 61.9872 37.5777 62.0326 35.4084C62.0597 34.0955 61.165 32.8005 59.9105 32.8306C59.0126 32.8576 57.885 33.4495 57.616 34.6843C57.353 35.8952 59.4601 36.9888 57.8095 38.0493C56.6396 38.8034 54.5387 39.3352 51.5821 38.9026L52.1203 35.9492C53.2175 30.3489 54.5719 23.4597 59.7048 23.2945C60.0797 23.2764 61.4492 23.3095 61.4794 24.2108C61.4884 24.5113 61.4159 24.5894 61.0592 25.2774C60.7324 25.7154 60.5632 26.2497 60.5785 26.7946C60.6299 28.2248 61.7243 29.1652 63.3052 29.1081C65.4244 29.039 66.032 26.9899 65.9987 25.9354C65.911 23.4597 63.284 21.8944 59.8137 22.0056H59.8198Z" fill="#222222"/>
</svg>
