<svg width="89" height="89" viewBox="0 0 89 89" fill="none" xmlns="http://www.w3.org/2000/svg">
<path d="M44.5 0L83.0381 22.25V66.75L44.5 89L5.96187 66.75V22.25L44.5 0Z" fill="#F7F7F7"/>
<path d="M44.4043 21.9534L22.4043 29.8328L25.7598 59.0486L44.4043 69.42L63.0488 59.0486L66.4043 29.8328L44.4043 21.9534Z" fill="#DD0031"/>
<path d="M44.4043 21.9534V27.2222V27.1984V51.2403V69.42L63.0488 59.0486L66.4043 29.8328L44.4043 21.9534Z" fill="#C3002F"/>
<path d="M44.4043 27.1985L30.6514 58.1705H35.7792L38.544 51.2404H50.2174L52.9822 58.1705H58.11L44.4043 27.1985ZM48.4215 46.9683H40.3871L44.4043 37.2614L48.4215 46.9683Z" fill="white"/>
</svg>
