<svg width="89" height="89" viewBox="0 0 89 89" fill="none" xmlns="http://www.w3.org/2000/svg">
<path d="M44.5 0L83.0381 22.25V66.75L44.5 89L5.96187 66.75V22.25L44.5 0Z" fill="#F6F6F6"/>
<path d="M57.8947 37.1896C57.4422 37.0393 56.9896 36.8973 56.537 36.7637C56.6124 36.4547 56.6795 36.1457 56.7466 35.8367C57.7773 30.8594 57.0986 26.8592 54.8107 25.5397C52.6066 24.2786 49.0114 25.5898 45.3742 28.7465C45.0138 29.0555 44.6618 29.3812 44.3266 29.7069C44.1004 29.4898 43.8657 29.2727 43.6311 29.0639C39.8179 25.69 35.9965 24.2703 33.7086 25.5981C31.5129 26.8675 30.8592 30.6339 31.7811 35.344C31.8732 35.8117 31.9738 36.271 32.0911 36.7387C31.5548 36.8889 31.0268 37.0559 30.5323 37.2313C26.0571 38.7764 22.8474 41.2149 22.8474 43.7369C22.8474 46.3425 26.2667 48.9565 30.9178 50.5432C31.295 50.6684 31.6721 50.7937 32.0576 50.9023C31.9318 51.4034 31.8229 51.8961 31.7224 52.4055C30.8424 57.0404 31.5296 60.7149 33.7253 61.9759C35.9881 63.2788 39.7928 61.9425 43.497 58.7107C43.7903 58.4518 44.0836 58.1845 44.3769 57.9006C44.7456 58.2596 45.1312 58.6021 45.5167 58.9361C49.1036 62.0094 52.6485 63.2537 54.8358 61.9927C57.0986 60.6899 57.836 56.7397 56.8806 51.9294C56.8052 51.562 56.7214 51.1862 56.6292 50.8021C56.8974 50.7269 57.1572 50.6434 57.417 50.5599C62.2525 48.9648 65.7556 46.3843 65.7556 43.7369C65.7556 41.2065 62.4537 38.7513 57.8947 37.1896ZM46.5559 30.0994C49.6734 27.3936 52.5814 26.333 53.9055 27.093C55.3219 27.9031 55.8666 31.1767 54.9783 35.4776C54.9196 35.7615 54.8609 36.0371 54.7855 36.3127C52.925 35.8952 51.0394 35.5945 49.1454 35.4275C48.056 33.8742 46.8659 32.3877 45.5754 30.993C45.9021 30.684 46.2206 30.3917 46.5559 30.0994ZM36.8597 48.0713C37.287 48.7977 37.7228 49.5243 38.1838 50.2341C36.8764 50.0922 35.5774 49.8835 34.2951 49.6078C34.664 48.4053 35.1249 47.1609 35.6612 45.8915C36.0467 46.6265 36.4406 47.3531 36.8597 48.0713ZM34.3204 38.0247C35.5271 37.7575 36.8093 37.5404 38.1418 37.3733C37.6977 38.0664 37.2619 38.7764 36.8512 39.4946C36.4406 40.2044 36.0383 40.931 35.6612 41.6658C35.1332 40.4216 34.6891 39.2023 34.3204 38.0247ZM36.6166 43.7787C37.1697 42.6262 37.7731 41.4988 38.41 40.3881C39.0469 39.2774 39.7341 38.2001 40.4548 37.1395C41.712 37.0476 42.9941 36.9976 44.3015 36.9976C45.6089 36.9976 46.8995 37.0476 48.1482 37.1395C48.8605 38.1917 49.5393 39.2691 50.1846 40.3714C50.8299 41.4738 51.4333 42.6012 52.0032 43.7453C51.4417 44.8978 50.8383 46.0335 50.193 47.1526C49.5561 48.2633 48.8772 49.3406 48.1649 50.4095C46.9162 50.5014 45.6172 50.5432 44.3015 50.5432C42.9857 50.5432 41.712 50.5014 40.48 50.4263C39.7508 49.3657 39.0637 48.28 38.4184 47.1693C37.7731 46.0586 37.1781 44.9312 36.6166 43.7787ZM51.7518 48.0545C52.1792 47.3196 52.5814 46.5764 52.9753 45.8248C53.5117 47.0357 53.981 48.2633 54.3916 49.5243C53.0926 49.8166 51.7769 50.0421 50.4528 50.1924C50.9053 49.4909 51.3327 48.7727 51.7518 48.0545ZM52.9586 41.6658C52.5647 40.931 52.1625 40.196 51.7434 39.4778C51.3327 38.768 50.9053 38.0664 50.4611 37.3733C51.8105 37.5404 53.101 37.7659 54.3078 38.0414C53.9224 39.2774 53.4697 40.4799 52.9586 41.6658ZM44.3182 32.2707C45.1982 33.2228 46.0279 34.2249 46.7989 35.2605C45.1396 35.1854 43.4719 35.1854 41.8125 35.2605C42.6338 34.1832 43.4802 33.181 44.3182 32.2707ZM34.5969 27.1515C36.0048 26.333 39.1307 27.5022 42.4243 30.4084C42.6338 30.5922 42.8433 30.7926 43.0612 30.993C41.7622 32.3877 40.5638 33.8742 39.4659 35.4275C37.572 35.5945 35.6947 35.8868 33.8342 36.296C33.7253 35.8701 33.6331 35.4359 33.541 35.0016C32.7532 30.9596 33.2728 27.9114 34.5969 27.1515ZM32.5436 49.1653C32.1916 49.065 31.8481 48.9565 31.5045 48.8395C29.7194 48.28 27.6913 47.3948 26.2248 46.2339C25.3783 45.6494 24.8085 44.7474 24.6492 43.7369C24.6492 42.2086 27.2975 40.2545 31.119 38.9266C31.5967 38.7596 32.0827 38.6093 32.5688 38.4673C33.1387 40.2795 33.8259 42.0584 34.622 43.7787C33.8175 45.5241 33.1219 47.3279 32.5436 49.1653ZM42.3154 57.3494C40.9326 58.6104 39.3319 59.6125 37.5887 60.2974C36.6585 60.74 35.5858 60.7818 34.6304 60.406C33.2979 59.6377 32.7448 56.6897 33.499 52.7228C33.5912 52.2552 33.6918 51.7875 33.8091 51.3281C35.6863 51.729 37.5804 52.0046 39.4995 52.1466C40.6057 53.7083 41.8209 55.2032 43.1199 56.6062C42.8517 56.865 42.5835 57.1155 42.3154 57.3494ZM44.3686 55.3201C43.5137 54.4015 42.6589 53.3826 41.8292 52.2886C42.6338 52.322 43.4635 52.3387 44.3015 52.3387C45.1647 52.3387 46.0112 52.322 46.8492 52.2802C46.0781 53.3408 45.2485 54.3513 44.3686 55.3201ZM55.3219 57.8255C55.2465 58.8443 54.7436 59.7963 53.9391 60.4394C52.6066 61.2077 49.7656 60.2055 46.6983 57.5832C46.3463 57.2826 45.9943 56.9569 45.634 56.6228C46.9162 55.2115 48.0978 53.7166 49.1706 52.1466C51.0897 51.9879 53.0005 51.6957 54.8861 51.2697C54.9699 51.6122 55.0453 51.9546 55.1123 52.2886C55.523 54.0924 55.5901 55.9715 55.3219 57.8255ZM56.8471 48.8479C56.6124 48.923 56.3779 48.9982 56.1348 49.065C55.5481 47.2444 54.8274 45.4656 53.9977 43.7369C54.8023 42.0332 55.4811 40.2795 56.051 38.484C56.4868 38.6093 56.9058 38.7429 57.308 38.8765C61.2134 40.2128 63.9538 42.2004 63.9538 43.7203C63.9538 45.3571 61.0289 47.4699 56.8471 48.8479ZM44.3015 47.5952C46.4217 47.5952 48.1398 45.8832 48.1398 43.7703C48.1398 41.6575 46.4217 39.9455 44.3015 39.9455C42.1812 39.9455 40.4633 41.6575 40.4633 43.7703C40.4633 45.8832 42.1812 47.5952 44.3015 47.5952Z" fill="#56CCF2"/>
</svg>
