<svg width="89" height="89" viewBox="0 0 89 89" fill="none" xmlns="http://www.w3.org/2000/svg">
<path d="M44.5 0L83.0381 22.25V66.75L44.5 89L5.96187 66.75V22.25L44.5 0Z" fill="#F7F7F7"/>
<path d="M46.7402 36.5491C45.5462 36.7092 44.6274 37.3221 44.1422 38.2789C43.9598 38.6399 43.891 38.9531 43.891 39.4401C43.891 39.9577 43.9633 40.2607 44.1973 40.7272C44.5241 41.3844 45.1298 41.8782 46.9295 42.9406C48.4607 43.8463 48.9254 44.2856 49.1146 45.0075C49.1868 45.2901 49.1868 45.937 49.1146 46.2197C48.9735 46.7611 48.619 47.1833 48.0823 47.4455C47.7209 47.6192 47.3631 47.7077 46.8228 47.7486C45.8146 47.8235 44.9096 47.6158 44.0699 47.1152C43.9633 47.0505 43.8635 46.9995 43.8532 46.9995C43.8394 46.9995 43.8359 47.2003 43.8394 47.4489L43.8498 47.8984L44.125 48.0142C45.0094 48.3819 45.6391 48.5114 46.4994 48.508C47.4869 48.508 48.1751 48.3274 48.7877 47.9188C49.032 47.7554 49.4931 47.2719 49.6445 47.0199C49.7994 46.7645 49.9404 46.3695 49.992 46.0392C50.054 45.6578 50.0196 45.0041 49.9232 44.701C49.6204 43.7612 49.0113 43.1925 47.2047 42.1642C46.2034 41.5955 45.6873 41.2448 45.3466 40.9043C44.9199 40.4821 44.7823 40.1722 44.741 39.5422C44.6996 38.9021 44.8752 38.4322 45.3259 37.9929C45.7595 37.5639 46.2069 37.3698 46.933 37.2881C47.5936 37.2165 48.4676 37.3357 49.2006 37.5979C49.3589 37.6558 49.4931 37.7035 49.5 37.7035C49.5069 37.7035 49.5103 37.5128 49.5103 37.2812V36.859L49.1249 36.7534C48.9115 36.6956 48.5984 36.624 48.4264 36.5968C48.0547 36.5287 47.0775 36.5015 46.7402 36.5491Z" fill="#3179C7"/>
<path d="M11.6034 36.7263C11.5966 36.7501 11.5931 37.0293 11.5966 37.346L11.6069 37.9249L13.3033 37.9351L14.9963 37.9419V43.1177V48.2935L15.6742 48.2867L16.3556 48.2765L16.3659 43.1075L16.3728 37.9419H18.0417H19.7106V37.312V36.682H15.6674C12.4018 36.682 11.6172 36.6888 11.6034 36.7263Z" fill="#3179C7"/>
<path d="M63.1711 36.7911C62.9578 36.9001 62.8615 37.0533 62.8615 37.2848C62.8615 37.8501 63.4602 38.1293 63.8835 37.7616C64.3308 37.3734 64.0452 36.7162 63.4292 36.7162C63.3707 36.7162 63.2537 36.7502 63.1711 36.7911Z" fill="#3179C7"/>
<path d="M75.0428 37.7511L74.7159 37.8634L74.7056 38.9394L74.6987 40.0189H73.9417H73.1846V40.3594V40.6999H73.9417H74.6953L74.7056 43.8224C74.7193 47.2922 74.7056 47.0743 74.9533 47.5952C75.2355 48.1878 75.8652 48.5044 76.6601 48.4533C76.9422 48.4329 77.3311 48.3376 77.5306 48.2389C77.6236 48.1912 77.6236 48.1844 77.6236 47.8643C77.6236 47.6156 77.6133 47.5408 77.5823 47.5544C77.0352 47.7859 77.0179 47.7928 76.7083 47.8098C75.9822 47.8473 75.6003 47.5476 75.4729 46.8461C75.4316 46.6248 75.4248 46.0221 75.4213 43.6521V40.7339H76.5225H77.6236V40.3934V40.0529H76.5225H75.4213V38.8441C75.4213 38.1801 75.4109 37.6353 75.3972 37.6387C75.38 37.6387 75.2217 37.6898 75.0428 37.7511Z" fill="#3179C7"/>
<path d="M54.517 39.8692C53.6912 40.0191 53.0099 40.3698 52.418 40.9555C51.9432 41.422 51.5715 42.0076 51.3686 42.6104C51.0037 43.6762 51.0279 45.1404 51.4236 46.1653C51.7746 47.071 52.418 47.7623 53.2749 48.1607C54.2349 48.6033 55.5872 48.5965 56.6573 48.1437C57.1391 47.9428 57.115 47.97 57.115 47.5409V47.1732L56.8879 47.3094C56.623 47.4694 56.2547 47.6227 55.8831 47.7215C55.515 47.8235 54.4311 47.8304 54.0869 47.7385C52.9445 47.4252 52.1875 46.4649 51.9501 45.0416C51.8916 44.6773 51.9019 43.8055 51.9707 43.4072C52.1599 42.2971 52.738 41.4118 53.6017 40.9044C54.5102 40.3698 55.8212 40.363 56.8845 40.8874L57.1839 41.0338V40.615V40.1961L57.0221 40.128C56.7537 40.0157 56.3993 39.9169 56.0689 39.8658C55.6767 39.8011 54.8818 39.8045 54.517 39.8692Z" fill="#3179C7"/>
<path d="M30.6874 39.8965C29.8271 40.077 29.1355 40.5503 28.6262 41.3097L28.5023 41.4935L28.492 40.7751L28.4852 40.0532H27.8141H27.1432V46.0802V52.1073H27.8141H28.4852V49.6012V47.0949L28.6332 47.2925C28.9463 47.7147 29.3764 48.0689 29.7859 48.2493C30.8045 48.6954 32.3254 48.5081 33.2338 47.8236C34.1526 47.1324 34.6791 46.0598 34.8167 44.599C34.9715 42.9237 34.5552 41.5038 33.657 40.6627C33.2958 40.3256 32.9242 40.1145 32.4183 39.9646C32.1499 39.8863 32.0432 39.8727 31.5133 39.8625C31.0935 39.8557 30.8423 39.8659 30.6874 39.8965ZM31.7163 40.993C32.3667 41.1564 32.9138 41.6502 33.196 42.3278C33.6502 43.4174 33.5366 45.2085 32.9551 46.1688C32.4906 46.9315 31.8402 47.3265 30.98 47.364C30.5016 47.3844 30.1885 47.3231 29.7928 47.1324C29.5554 47.0167 29.4418 46.9315 29.2044 46.6965C28.96 46.4514 28.8775 46.3424 28.7467 46.0768C28.4955 45.5763 28.4783 45.4299 28.4955 44.1734C28.5127 42.9509 28.5162 42.9169 28.8018 42.338C28.9531 42.0213 29.0116 41.9464 29.3075 41.6536C29.7549 41.2075 30.13 41.0202 30.7287 40.9385C30.9937 40.9045 31.4582 40.9283 31.7163 40.993Z" fill="#3179C7"/>
<path d="M38.8395 39.9135C37.3289 40.2404 36.2174 41.4901 35.8973 43.2301C35.8079 43.6966 35.8182 44.7726 35.9112 45.297C36.0798 46.23 36.3929 46.8872 36.9297 47.4388C37.494 48.0177 38.1616 48.3276 39.0529 48.4331C39.7514 48.5114 40.8456 48.4127 41.4753 48.2084C41.7851 48.1063 42.2428 47.8883 42.4114 47.7623L42.5249 47.6772V47.0676V46.4582L42.2565 46.642C41.5477 47.1255 40.7631 47.3741 39.9613 47.3741C38.929 47.3707 38.1995 47.0234 37.7108 46.3015C37.4286 45.8827 37.2738 45.3924 37.205 44.708L37.1843 44.4798H40.1299H43.0754V43.8737C43.0754 43.2165 43.0169 42.6955 42.9 42.2596C42.5766 41.0644 41.792 40.2438 40.6839 39.951C40.2813 39.842 39.2627 39.8216 38.8395 39.9135ZM40.2675 41.0236C41.1175 41.2415 41.6508 41.9838 41.7232 43.0394L41.7438 43.3561H39.483H37.2257L37.2463 43.2607C37.3254 42.8964 37.4218 42.6172 37.5525 42.3482C37.9345 41.565 38.5367 41.0917 39.304 40.9691C39.5346 40.935 40.0233 40.9623 40.2675 41.0236Z" fill="#3179C7"/>
<path d="M61.0375 39.8828C60.5523 39.9407 60.1601 40.1416 59.7678 40.5332C59.4787 40.8158 59.3376 41.0338 59.1587 41.456C59.0899 41.6126 59.0245 41.7693 59.0073 41.8067C58.9901 41.8476 58.9763 41.5003 58.9763 40.9452L58.9729 40.019H58.6115H58.2502V44.1563V48.2935H58.6115H58.9729V46.1551C58.9729 43.9656 58.9901 43.5399 59.1105 42.9032C59.3411 41.691 60.0121 40.7988 60.8552 40.5809C61.2268 40.4855 61.7498 40.5366 62.0285 40.7035C62.0905 40.7375 62.149 40.7682 62.1593 40.7682C62.1662 40.7682 62.1731 40.5979 62.1731 40.3936C62.1731 40.019 62.1731 40.0156 62.0836 39.985C61.8221 39.8862 61.3679 39.842 61.0375 39.8828Z" fill="#3179C7"/>
<path d="M69.1587 39.8863C68.5738 39.951 67.9544 40.1859 67.5173 40.5094C67.1492 40.7818 66.6089 41.4254 66.5263 41.6876C66.4609 41.8885 66.4403 41.6876 66.4403 40.9044V40.0531H66.0618H65.6832V46.0801V52.1072H66.0618H66.4403L66.4472 49.458L66.4575 46.8123L66.5608 46.9791C67.2421 48.0892 68.3467 48.6341 69.6233 48.4978C70.5799 48.3956 71.3335 47.9938 71.9219 47.272C72.6067 46.4275 72.9163 45.5047 72.9679 44.1563C73.0264 42.515 72.5895 41.2892 71.681 40.5469C71.041 40.0259 70.1154 39.7807 69.1587 39.8863ZM70.0259 40.5775C70.893 40.741 71.5778 41.3539 71.915 42.2699C72.1111 42.7977 72.1627 43.1518 72.1662 43.935C72.1662 44.7454 72.1008 45.1813 71.891 45.7737C71.6845 46.3697 71.4263 46.7919 71.0582 47.1494C70.518 47.6772 69.9777 47.8713 69.1587 47.8407C68.794 47.827 68.677 47.8066 68.3948 47.7146C67.4933 47.4184 66.8016 46.6284 66.5401 45.5967C66.4816 45.3685 66.4644 45.1642 66.4506 44.5445C66.4231 43.4106 66.4988 42.8487 66.7672 42.2494C66.9943 41.7421 67.5104 41.1462 67.9268 40.9112C68.5084 40.5809 69.3445 40.4481 70.0259 40.5775Z" fill="#3179C7"/>
<path d="M18.3752 40.0771C18.3855 40.1111 19.115 41.9703 19.9994 44.2109L21.6098 48.2834L21.2106 49.2061C20.7839 50.2039 20.6738 50.4014 20.3813 50.6738C19.9581 51.0721 19.4591 51.1471 18.6849 50.9292L18.6092 50.9088L18.616 51.4978L18.6264 52.0869L18.764 52.121C18.8397 52.138 19.1425 52.1516 19.435 52.155C19.9236 52.155 19.9925 52.1482 20.2437 52.0631C20.6394 51.9337 20.9216 51.7567 21.2588 51.4263C21.5926 51.0994 21.8988 50.6636 22.1534 50.1494C22.2464 49.9621 23.1996 47.616 24.2697 44.9396C25.3433 42.2597 26.2277 40.06 26.238 40.043C26.2449 40.0294 25.9421 40.0226 25.5567 40.026L24.8616 40.0362L23.6778 43.22C23.0275 44.9702 22.4597 46.5365 22.4184 46.7C22.3805 46.8669 22.3289 46.9996 22.3083 46.9996C22.2911 46.9996 22.2395 46.8737 22.1947 46.717C22.15 46.5638 21.627 45.0587 21.0283 43.3732C20.4295 41.6877 19.9202 40.2439 19.8927 40.1622L19.8411 40.0192H19.1012C18.413 40.0192 18.3614 40.0226 18.3752 40.0771Z" fill="#3179C7"/>
<path d="M63.1022 44.1903V48.3275H63.4807H63.8593V44.1903V40.0531H63.4807H63.1022V44.1903Z" fill="#3179C7"/>
</svg>
