<svg width="89" height="89" viewBox="0 0 89 89" fill="none" xmlns="http://www.w3.org/2000/svg">
<path d="M44.5 0L83.0381 22.25V66.75L44.5 89L5.96187 66.75V22.25L44.5 0Z" fill="#F7F7F7"/>
<path d="M66 27.9656C66 24.7775 63.3973 22.193 60.1867 22.193C57.2552 22.193 54.8318 24.3481 54.4325 27.1497C54.3952 27.13 54.3736 27.1189 54.3736 27.1189C49.6195 24.9896 45.6148 28.761 45.6148 28.761L35.022 39.3312L39.2075 43.3337L47.7335 35.0159C51.7148 31.0623 53.8827 33.7383 53.8827 33.7383C56.8798 36.2525 53.986 39.2287 53.986 39.2287L58.275 43.3337C61.7773 39.5775 61.9804 36.2992 60.9158 33.6914C63.782 33.335 66 30.9084 66 27.9656Z" fill="#F9AE41"/>
<path d="M60.9697 54.5136C60.9894 54.4768 61.0006 54.4553 61.0006 54.4553C63.1451 49.7343 59.347 45.7578 59.347 45.7578L48.7021 35.2388L44.6716 39.3952L53.048 47.8615C57.0294 51.8151 54.3346 53.9678 54.3346 53.9678C51.8027 56.944 48.8056 54.0704 48.8056 54.0704L44.6716 58.3292C48.4541 61.807 51.7556 62.0087 54.3817 60.9516C54.7406 63.7979 57.1845 66.0004 60.1479 66.0004C63.3586 66.0004 65.9611 63.4159 65.9611 60.2278C65.9611 57.3168 63.791 54.9103 60.9697 54.5136Z" fill="#EE4035"/>
<path d="M48.7927 44.6674L40.2667 52.9849C36.2852 56.9387 34.1174 54.2629 34.1174 54.2629C31.1202 51.7486 34.0141 48.7725 34.0141 48.7725L29.7253 44.6675C26.223 48.4235 26.0198 51.7018 27.0842 54.3097C24.2179 54.666 22 57.0925 22 60.0354C22 63.2235 24.6027 65.8079 27.8133 65.8079C30.7448 65.808 33.1683 63.6531 33.5675 60.8515C33.6048 60.8712 33.6265 60.8821 33.6265 60.8821C38.3807 63.0117 42.3852 59.24 42.3852 59.24L52.9782 48.6696L48.7927 44.6674Z" fill="#4F91CD"/>
<path d="M34.952 40.1394C30.9705 36.1857 33.665 34.0331 33.665 34.0331C36.1972 31.0569 39.1942 33.9305 39.1942 33.9305L43.3282 29.6719C39.5457 26.1941 36.2443 25.9923 33.6183 27.0493C33.2592 24.2028 30.8157 22.0005 27.8519 22.0005C24.6414 22.0005 22.0389 24.585 22.0387 27.7731C22.0387 30.6843 24.2088 33.0908 27.0301 33.4872C27.0104 33.5243 26.9994 33.5458 26.9994 33.5458C24.8545 38.2666 28.6528 42.2429 28.6528 42.2429L39.2979 52.762L43.3283 48.6057L34.952 40.1394Z" fill="#7AC043"/>
</svg>
