<svg width="89" height="89" viewBox="0 0 89 89" fill="none" xmlns="http://www.w3.org/2000/svg">
<path d="M44.5 0L83.0381 22.25V66.75L44.5 89L5.96187 66.75V22.25L44.5 0Z" fill="#F7F7F7"/>
<path d="M25.481 31.0236C23.9407 31.2734 22.7305 32.2763 22.2061 33.7419C21.986 34.3554 21.9934 33.9183 22.0044 42.0732L22.0154 49.5301L22.1181 49.8791C22.3271 50.5881 22.6498 51.1538 23.1486 51.6717C23.7867 52.3366 24.6669 52.7774 25.591 52.8913C25.7964 52.917 28.7596 52.928 34.4807 52.928H43.0586L44.9326 53.9713C45.9631 54.548 47.7088 55.5214 48.8163 56.1349C49.9202 56.752 50.8223 57.2369 50.8223 57.2112C50.8223 57.1891 50.5693 56.55 50.2576 55.7933C49.5974 54.1696 49.1317 53.0382 49.1097 52.9758C49.095 52.939 50.5179 52.928 55.7989 52.917C60.8305 52.9096 62.5468 52.895 62.6862 52.8619C63.6067 52.6415 64.3108 52.2484 64.8902 51.635C65.466 51.0252 65.8474 50.2538 65.9684 49.4567C65.9941 49.2803 66.0051 46.8743 65.9978 41.7793C65.9831 34.4068 65.9831 34.3591 65.9098 34.1019C65.7227 33.4628 65.5357 33.0807 65.1763 32.6069C64.5932 31.8281 63.7094 31.2697 62.7485 31.0714C62.3818 30.9979 62.3561 30.9979 43.9754 31.0016C33.8535 31.0053 25.5324 31.0163 25.481 31.0236ZM41.5403 33.4921C41.973 33.6281 42.3471 33.944 42.5268 34.3333C42.6148 34.5207 42.6258 34.5868 42.6258 34.9468V35.3509L42.3801 35.8651C41.654 37.3969 41.1332 39.454 40.6675 42.6425C40.3374 44.8943 40.2494 45.9963 40.2384 47.9065C40.231 49.6367 40.22 49.7358 40.033 50.1142C39.6699 50.8415 38.8521 51.0105 38.0967 50.5183C37.9866 50.4448 37.7483 50.2354 37.5722 50.0518C36.0943 48.5383 34.7667 46.0588 33.8939 43.1752C33.7985 42.874 33.7142 42.6132 33.6995 42.5948C33.6848 42.5801 33.0871 43.7372 32.3719 45.1662C31.0224 47.8734 30.7253 48.4391 30.3292 49.0526C29.5041 50.3383 28.7193 50.9444 28.1435 50.7497C27.6117 50.566 27.2523 49.9636 26.7719 48.4281C26.0605 46.1543 25.36 42.8776 24.5238 37.9039C24.1938 35.957 24.1534 35.5272 24.2525 35.2186C24.3881 34.7925 24.7035 34.4399 25.0666 34.304C25.7377 34.0542 26.4529 34.157 26.8159 34.5611C27.102 34.8807 27.113 34.9137 27.4247 36.9304C27.8354 39.5606 28.3525 42.2348 28.8623 44.3874C28.921 44.6482 28.9833 44.876 28.998 44.8907C29.009 44.9053 29.9002 43.234 30.9784 41.1805C32.0529 39.1271 33.0101 37.3345 33.0981 37.1986C33.4061 36.7247 33.7985 36.4713 34.2606 36.4419C34.752 36.4125 35.1078 36.5815 35.3682 36.9745C35.5552 37.2574 35.6542 37.5696 35.8229 38.3924C36.076 39.6598 36.2887 40.5414 36.593 41.592C36.7911 42.2789 37.2018 43.5095 37.3302 43.7997L37.4109 43.9833L37.4952 43.2486C37.9536 39.3181 38.6614 36.4088 39.6186 34.5244C39.8827 34.0101 40.0697 33.7676 40.3264 33.617C40.6675 33.415 41.1405 33.3672 41.5403 33.4921ZM48.8603 35.4574C50.0448 35.7219 50.9543 36.328 51.5741 37.261C52.0802 38.0214 52.4066 38.9177 52.5533 39.9426C52.6267 40.4422 52.612 41.8932 52.5313 42.4405C52.3699 43.5646 52.0839 44.4866 51.6108 45.4343C50.6536 47.3555 49.4581 48.4355 47.9251 48.7624C47.441 48.8653 46.5572 48.8579 46.0548 48.7477C44.6209 48.4244 43.6673 47.6677 42.9999 46.3306C42.2371 44.8062 42.1014 42.6719 42.6258 40.6038C43.0806 38.8222 44.1441 37.0884 45.3176 36.2178C45.8457 35.8284 46.6049 35.5015 47.21 35.4096C47.5291 35.3582 48.5522 35.3876 48.8603 35.4574ZM60.2474 35.5088C61.1092 35.7292 61.6446 36.0268 62.2131 36.5962C63.0676 37.4484 63.603 38.6422 63.7717 40.0822C63.8267 40.5671 63.7937 42.0585 63.7167 42.5691C63.6323 43.1054 63.4233 43.9429 63.2473 44.4241C63.1666 44.6445 62.9722 45.0927 62.8145 45.4159C61.8207 47.44 60.5334 48.5493 58.8905 48.7991C57.8233 48.9571 56.6167 48.7073 55.7329 48.1342C55.3918 47.9138 54.7794 47.3004 54.5447 46.9477C53.8479 45.8788 53.5215 44.6592 53.5215 43.1017C53.5252 41.4487 53.8369 40.1116 54.5483 38.7083C55.3992 37.0333 56.5287 35.9423 57.8159 35.5529C58.3147 35.4023 58.5787 35.3692 59.2205 35.3839C59.7486 35.395 59.8806 35.4133 60.2474 35.5088Z" fill="#7F54B3"/>
<path d="M47.5583 38.4659C47.1146 38.6165 46.7442 38.9581 46.3004 39.6304C45.875 40.2695 45.5926 40.9197 45.424 41.6471C45.3176 42.1099 45.2883 43.2376 45.3726 43.6895C45.4496 44.1009 45.6183 44.6041 45.7907 44.9311C46.3445 45.9963 47.298 46.011 48.2955 44.9715C48.9189 44.3213 49.3737 43.2707 49.5387 42.0915C49.5937 41.6948 49.5864 40.8426 49.5204 40.4716C49.3407 39.4394 48.8456 38.5945 48.3285 38.4402C48.0608 38.3594 47.8407 38.3667 47.5583 38.4659Z" fill="#7F54B3"/>
<path d="M58.9014 38.4144C58.3073 38.5687 57.6362 39.2776 57.1228 40.3025C56.4517 41.6433 56.338 43.2192 56.8147 44.4938C57.1375 45.3497 57.5482 45.7428 58.1203 45.7391C58.52 45.7354 58.9235 45.5297 59.3929 45.0926C60.2474 44.2918 60.7975 42.8078 60.7975 41.298C60.7975 40.7249 60.7314 40.3025 60.5554 39.7809C60.2474 38.8552 59.8513 38.4328 59.2645 38.3997C59.1288 38.3923 58.9675 38.3997 58.9014 38.4144Z" fill="#7F54B3"/>
</svg>
