<svg width="89" height="89" viewBox="0 0 89 89" fill="none" xmlns="http://www.w3.org/2000/svg">
<path d="M44.5 0L83.0381 22.25V66.75L44.5 89L5.96187 66.75V22.25L44.5 0Z" fill="#F7F7F7"/>
<path d="M42.0802 22.0849C32.9624 22.8952 25.2101 29.3422 22.8051 38.1056C21.748 41.9545 21.7304 45.9178 22.7611 49.7403C24.7784 57.253 30.7512 63.2245 38.2657 65.2414C43.8949 66.7563 49.8941 65.9812 54.8979 63.1188C59.9986 60.1859 63.7338 55.3594 65.2402 49.7403C66.2533 45.9795 66.2533 42.0338 65.2402 38.273C63.2052 30.6721 57.1267 24.6567 49.5065 22.7102C47.0311 22.0761 44.5292 21.8647 42.0802 22.0849ZM46.9077 24.4101C50.5813 24.9737 54.0346 26.5415 56.8536 28.9371L57.3205 29.3334L56.7127 29.4391C55.9198 29.5712 55.3296 29.8795 54.8098 30.4343C54.0258 31.2711 53.6822 32.3808 53.8584 33.517C54.017 34.5562 54.1755 34.8821 55.8405 37.7533C56.7743 39.3739 57.2412 40.7919 57.3557 42.3772C57.4615 43.8833 57.25 44.9138 55.8934 49.3792C55.4177 50.9557 54.7658 53.0959 54.4574 54.1352C54.1403 55.1745 53.8584 55.9671 53.832 55.8967C53.6382 55.3858 46.7316 34.7324 46.7492 34.7148C46.7668 34.706 47.313 34.6619 47.9649 34.6091C48.6168 34.5562 49.2246 34.4858 49.3127 34.4505C49.5153 34.3713 49.7268 33.9573 49.7268 33.6579C49.7268 33.517 49.6211 33.3144 49.4537 33.1558C49.1982 32.8916 49.1718 32.8828 48.5551 32.9445C45.5951 33.1999 42.4061 33.2175 39.499 32.9973C38.8559 32.9445 38.2128 32.9269 38.0719 32.9621C37.5521 33.0766 37.3671 33.8869 37.7636 34.292C37.9574 34.4858 38.1071 34.5122 39.1554 34.6091L40.3359 34.7148L41.8776 38.9335L43.4192 43.1523L41.2609 49.617C40.0804 53.1664 39.0938 56.0728 39.0674 56.0728C39.0145 56.0728 31.9141 34.9261 31.9229 34.8028C31.9229 34.75 32.2753 34.6883 32.6981 34.6531C34.1429 34.5474 34.4072 34.4946 34.6274 34.2744C34.8653 34.0366 34.9093 33.4993 34.7243 33.2527C34.4688 32.918 34.2662 32.8916 32.9184 32.9973C32.2048 33.0502 30.6984 33.1206 29.5708 33.147C27.9058 33.1911 27.527 33.1823 27.527 33.0854C27.527 32.8652 28.8044 31.2711 29.8086 30.2318C33.2531 26.7 37.3055 24.7888 42.459 24.2427C43.1814 24.1723 46.018 24.2779 46.9077 24.4101ZM61.7428 35.1728C62.5885 36.8726 63.2933 39.1449 63.6104 41.1882C63.8307 42.5886 63.8307 45.4246 63.6104 46.825C63.2933 48.8859 62.5885 51.1407 61.7252 52.8581C60.2276 55.8614 57.6729 58.7063 54.8098 60.5999C54.3782 60.8817 54.017 61.0931 53.9993 61.0755C53.9817 61.0578 55.356 57.0416 57.0474 52.1535C58.7476 47.2566 60.2717 42.8617 60.439 42.3772C60.8355 41.2235 61.1526 39.9728 61.3288 38.8719C61.4697 37.9295 61.5226 35.3753 61.4081 34.8645C61.3024 34.4241 61.4169 34.5298 61.7428 35.1728ZM30.4341 48.2782C32.8655 54.9631 34.9798 60.7408 35.1119 61.1283C35.4202 61.9386 35.4731 61.9386 34.1253 61.1723C31.6058 59.7367 29.1567 57.4292 27.4829 54.9279C26.3025 53.1576 25.3511 51.0174 24.8313 48.9828C24.3556 47.0892 24.2323 46.0499 24.2323 44.0066C24.2235 41.9633 24.3556 40.9064 24.8401 39.0304C25.1661 37.7533 25.8356 35.939 25.9325 36.0535C25.9765 36.0887 27.9939 41.5934 30.4341 48.2782ZM47.4716 54.2673C49.163 58.9 50.5284 62.696 50.5108 62.7224C50.4227 62.8017 48.4758 63.3125 47.6125 63.4711C45.0842 63.9467 42.6704 63.9291 40.1685 63.427C38.8119 63.154 38.4507 63.0483 38.4507 62.925C38.4507 62.7577 44.2913 45.8562 44.353 45.8562C44.3794 45.8562 45.789 49.6434 47.4716 54.2673Z" fill="#003C56"/>
</svg>
