<svg width="89" height="89" viewBox="0 0 89 89" fill="none" xmlns="http://www.w3.org/2000/svg">
<path d="M44.5 0L83.0381 22.25V66.75L44.5 89L5.96187 66.75V22.25L44.5 0Z" fill="#F7F7F7"/>
<path d="M62.3307 29.7584C62.3307 30.5323 62.044 31.2379 61.5734 31.7797C64.351 35.4631 66 40.0423 66 45.0001C66 57.1307 56.131 67.0002 44.0001 67.0002C31.8693 67.0002 22 57.1307 22 45.0001C22 32.8693 31.869 23 43.9999 23C48.9577 23 53.5369 24.649 57.22 27.4268C57.7624 26.9563 58.4675 26.6698 59.2416 26.6698C60.9472 26.6698 62.3307 28.0523 62.3307 29.7584ZM43.9999 66.26C55.7227 66.26 65.2598 56.7225 65.2593 44.9996C65.2593 40.2326 63.6823 35.828 61.0229 32.2782C60.519 32.635 59.9056 32.8465 59.2411 32.8465C57.5355 32.8465 56.1525 31.464 56.1525 29.7582C56.1525 29.0939 56.364 28.4798 56.7208 27.9761C53.171 25.3167 48.7664 23.7397 43.9999 23.7397C32.2773 23.7397 22.7397 33.2773 22.7397 44.9999C22.7397 56.7225 32.2773 66.26 43.9999 66.26ZM44.0001 53.9822C39.0393 53.9822 35.0178 49.9607 35.0178 44.9999C35.0178 40.0391 39.0393 36.0175 44.0001 36.0175C48.9609 36.0175 52.9825 40.0391 52.9825 44.9999C52.9825 49.9607 48.9609 53.9822 44.0001 53.9822Z" fill="#4E8EF7"/>
</svg>
