<svg width="89" height="89" viewBox="0 0 89 89" fill="none" xmlns="http://www.w3.org/2000/svg">
<path d="M44.5 0L83.0381 22.25V66.75L44.5 89L5.96187 66.75V22.25L44.5 0Z" fill="#F7F7F7"/>
<path d="M57.939 37.6384C57.475 37.4817 57.0109 37.3337 56.5468 37.1945C56.6242 36.8723 56.6929 36.5503 56.7617 36.2282C57.8187 31.0401 57.1227 26.8705 54.7766 25.4951C52.5164 24.1807 48.8297 25.5473 45.1 28.8378C44.7304 29.1598 44.3695 29.4993 44.0258 29.8388C43.7938 29.6125 43.5531 29.3862 43.3125 29.1686C39.4023 25.6518 35.4836 24.1719 33.1375 25.556C30.8859 26.8792 30.2156 30.8051 31.161 35.7146C31.2554 36.2021 31.3586 36.6809 31.4789 37.1684C30.9289 37.325 30.3875 37.4991 29.8805 37.6819C25.2914 39.2924 22 41.8342 22 44.463C22 47.179 25.5063 49.9036 30.2758 51.5576C30.6625 51.6881 31.0492 51.8187 31.4445 51.9318C31.3156 52.4541 31.2039 52.9678 31.1008 53.4987C30.1984 58.3299 30.9031 62.1601 33.1547 63.4745C35.475 64.8325 39.3765 63.4397 43.175 60.0709C43.4758 59.8011 43.7765 59.5225 44.0773 59.2265C44.4554 59.6008 44.8508 59.9578 45.2461 60.3059C48.9243 63.5093 52.5594 64.8064 54.8023 63.492C57.1227 62.134 57.8789 58.0165 56.8992 53.0025C56.8219 52.6195 56.736 52.2278 56.6414 51.8274C56.9164 51.749 57.1828 51.662 57.4492 51.5749C62.4078 49.9123 66 47.2225 66 44.463C66 41.8254 62.614 39.2663 57.939 37.6384ZM46.3117 30.248C49.5086 27.4276 52.4906 26.3221 53.8484 27.1142C55.3007 27.9586 55.8593 31.3709 54.9484 35.8539C54.8883 36.1498 54.8281 36.4371 54.7508 36.7244C52.8429 36.2892 50.9093 35.9757 48.9672 35.8017C47.85 34.1826 46.6297 32.6331 45.3063 31.1794C45.6414 30.8573 45.9679 30.5526 46.3117 30.248ZM36.3688 48.9809C36.807 49.7382 37.2539 50.4955 37.7266 51.2354C36.3859 51.0874 35.0539 50.8699 33.739 50.5826C34.1172 49.3291 34.5899 48.032 35.1398 46.7089C35.5352 47.4749 35.939 48.2323 36.3688 48.9809ZM33.7649 38.5089C35.0024 38.2303 36.3171 38.004 37.6836 37.8299C37.2282 38.5524 36.7813 39.2924 36.3602 40.041C35.939 40.7809 35.5265 41.5382 35.1398 42.3042C34.5984 41.0072 34.143 39.7363 33.7649 38.5089ZM36.1195 44.5066C36.6867 43.3053 37.3055 42.1301 37.9586 40.9724C38.6117 39.8146 39.3164 38.6917 40.0554 37.5862C41.3446 37.4904 42.6593 37.4382 44 37.4382C45.3407 37.4382 46.6641 37.4904 47.9446 37.5862C48.675 38.683 49.371 39.806 50.0328 40.9549C50.6945 42.104 51.3133 43.2792 51.8976 44.4717C51.3219 45.673 50.7031 46.8568 50.0414 48.0234C49.3883 49.1811 48.6921 50.304 47.9617 51.4182C46.6812 51.514 45.3492 51.5576 44 51.5576C42.6507 51.5576 41.3446 51.514 40.0812 51.4357C39.3335 50.3302 38.6289 49.1985 37.9672 48.0408C37.3055 46.883 36.6953 45.7079 36.1195 44.5066ZM51.6398 48.9634C52.0781 48.1975 52.4906 47.4227 52.8945 46.6393C53.4445 47.9015 53.9258 49.1811 54.3468 50.4955C53.0148 50.8002 51.6656 51.0352 50.3078 51.1919C50.7718 50.4607 51.2101 49.7121 51.6398 48.9634ZM52.8773 42.3042C52.4735 41.5382 52.061 40.7721 51.6312 40.0235C51.2101 39.2836 50.7718 38.5524 50.3163 37.8299C51.7 38.004 53.0234 38.2391 54.2609 38.5263C53.8656 39.8146 53.4015 41.0681 52.8773 42.3042ZM44.0171 32.5112C44.9195 33.5036 45.7703 34.5482 46.5609 35.6276C44.8594 35.5493 43.1492 35.5493 41.4476 35.6276C42.2899 34.5047 43.1578 33.4601 44.0171 32.5112ZM34.0484 27.1751C35.4922 26.3221 38.6976 27.5407 42.075 30.57C42.2899 30.7615 42.5046 30.9705 42.7281 31.1794C41.3961 32.6331 40.1671 34.1826 39.0414 35.8017C37.0992 35.9757 35.1742 36.2804 33.2664 36.707C33.1547 36.2631 33.0601 35.8104 32.9657 35.3577C32.1578 31.1446 32.6906 27.9673 34.0484 27.1751ZM31.943 50.1213C31.582 50.0168 31.2297 49.9036 30.8773 49.7817C29.0469 49.1985 26.9672 48.2758 25.4633 47.0658C24.5953 46.4565 24.0109 45.5163 23.8477 44.463C23.8477 42.87 26.5633 40.8331 30.482 39.449C30.9719 39.2749 31.4703 39.1182 31.9687 38.9702C32.5532 40.8592 33.2578 42.7134 34.0742 44.5066C33.2492 46.3259 32.5359 48.2061 31.943 50.1213ZM41.9633 58.652C40.5453 59.9664 38.9039 61.011 37.1164 61.7249C36.1625 62.1862 35.0625 62.2297 34.0828 61.838C32.7164 61.0372 32.1492 57.9643 32.9226 53.8295C33.0172 53.342 33.1203 52.8545 33.2406 52.3757C35.1656 52.7936 37.1078 53.0809 39.0758 53.2289C40.2102 54.8567 41.4563 56.4149 42.7883 57.8773C42.5133 58.1471 42.2382 58.4082 41.9633 58.652ZM44.0688 56.5368C43.1922 55.5792 42.3156 54.5172 41.4648 53.3768C42.2899 53.4117 43.1406 53.429 44 53.429C44.8851 53.429 45.7531 53.4117 46.6125 53.3681C45.8218 54.4736 44.9711 55.5269 44.0688 56.5368ZM55.3008 59.1482C55.2234 60.2102 54.7078 61.2025 53.8828 61.8728C52.5164 62.6737 49.6032 61.6291 46.4578 58.8957C46.0969 58.5823 45.7359 58.2429 45.3664 57.8946C46.6812 56.4235 47.8929 54.8653 48.9929 53.2289C50.9609 53.0634 52.9203 52.7588 54.8539 52.3148C54.9398 52.6718 55.0172 53.0287 55.0859 53.3768C55.507 55.2571 55.5758 57.2157 55.3008 59.1482ZM56.8648 49.7905C56.6242 49.8688 56.3836 49.9471 56.1344 50.0168C55.5328 48.1191 54.7937 46.2649 53.9429 44.463C54.7679 42.6872 55.4641 40.8592 56.0484 38.9877C56.4953 39.1182 56.925 39.2575 57.3374 39.3968C61.3422 40.7896 64.1523 42.8614 64.1523 44.4456C64.1523 46.1518 61.1531 48.3541 56.8648 49.7905ZM44 48.4847C46.1742 48.4847 47.9359 46.7002 47.9359 44.4978C47.9359 42.2956 46.1742 40.511 44 40.511C41.8257 40.511 40.0641 42.2956 40.0641 44.4978C40.0641 46.7002 41.8257 48.4847 44 48.4847Z" fill="#56CCF2"/>
</svg>
