<svg width="89" height="89" viewBox="0 0 89 89" fill="none" xmlns="http://www.w3.org/2000/svg">
<path d="M44.5 0L83.0381 22.25V66.75L44.5 89L5.96187 66.75V22.25L44.5 0Z" fill="#F7F7F7"/>
<path d="M49.12 26C68.4631 38.7409 62.1905 52.7411 62.1905 52.7411C62.1905 52.7411 67.6849 58.7424 65.4767 64C65.4767 64 63.197 60.3276 59.413 60.3276C55.7556 60.3276 53.5914 64 46.2078 64C29.7851 64 22 50.7163 22 50.7163C36.8002 60.162 46.9118 53.4686 46.9118 53.4686C40.2294 49.7283 26.0562 31.8167 26.0562 31.8167C38.4117 41.998 43.7438 44.6716 43.7438 44.6716C40.5374 42.131 31.6028 29.6806 31.6028 29.6806C38.7527 36.6807 52.9644 46.4413 52.9644 46.4413C57.0398 35.6547 49.12 26 49.12 26Z" fill="#FF5722"/>
</svg>
