<svg width="52" height="49" viewBox="0 0 52 49" fill="none" xmlns="http://www.w3.org/2000/svg">
<path d="M41.6018 27.0023C36.5918 27.0023 32.2418 29.7023 30.1418 33.6398L6.89183 11.843L6.95183 11.7867L12.9618 6.15234C21.7118 -2.05078 35.8918 -2.05078 44.6418 6.15234C51.3518 12.443 52.9118 21.743 49.3218 29.4305C47.1818 27.9023 44.5018 27.0023 41.6018 27.0023ZM4.93183 14.243L29.0118 36.818C28.8718 37.5211 28.8018 38.2523 28.8018 39.0023C28.8018 41.1773 29.4218 43.2117 30.4918 44.9742C30.1918 44.993 29.8818 45.0023 29.5718 45.0023H29.3018C25.9118 45.0023 22.6518 43.7367 20.2518 41.4867L19.2718 40.568C17.9618 39.3398 15.8118 39.4055 14.5918 40.7273L8.82183 46.9711C8.24183 47.5992 7.40183 47.9742 6.52183 48.0023C5.64183 48.0305 4.77183 47.7117 4.14183 47.1211L0.94183 44.1211C0.31183 43.5305 -0.0281703 42.7242 0.00182969 41.8898C0.0318297 41.0555 0.43183 40.2773 1.10183 39.7336L7.76183 34.3242C9.16183 33.1805 9.24183 31.1648 7.93183 29.9367L6.95183 29.018C4.55183 26.768 3.20183 23.7117 3.20183 20.5336V20.2805C3.20183 18.143 3.81183 16.0711 4.93183 14.2523V14.243ZM41.6018 30.0023C44.1479 30.0023 46.5897 30.9506 48.3901 32.6384C50.1904 34.3262 51.2018 36.6154 51.2018 39.0023C51.2018 41.3893 50.1904 43.6785 48.3901 45.3663C46.5897 47.0541 44.1479 48.0023 41.6018 48.0023C39.0558 48.0023 36.614 47.0541 34.8136 45.3663C33.0133 43.6785 32.0018 41.3893 32.0018 39.0023C32.0018 36.6154 33.0133 34.3262 34.8136 32.6384C36.614 30.9506 39.0558 30.0023 41.6018 30.0023Z" fill="#D5AA7F"/>
</svg>
