<svg width="52" height="52" viewBox="0 0 52 52" fill="none" xmlns="http://www.w3.org/2000/svg">
<path d="M48.2857 0C46.4286 0 33.4286 3.25 33.4286 17.875V29.25C33.4286 32.8352 36.7598 35.75 40.8571 35.75H44.5714V48.75C44.5714 50.5477 46.2312 52 48.2857 52C50.3402 52 52 50.5477 52 48.75V35.75V24.375V3.25C52 1.45234 50.3402 0 48.2857 0ZM7.42857 1.625C7.42857 0.792188 6.72054 0.101562 5.76875 0.0101563C4.81696 -0.08125 3.96964 0.467187 3.76071 1.26953L0.24375 15.1125C0.08125 15.7523 0 16.4023 0 17.0523C0 21.7141 4.07411 25.543 9.28571 25.9594V48.75C9.28571 50.5477 10.9455 52 13 52C15.0545 52 16.7143 50.5477 16.7143 48.75V25.9594C21.9259 25.543 26 21.7141 26 17.0523C26 16.4023 25.9187 15.7523 25.7562 15.1125L22.2393 1.26953C22.0304 0.457031 21.1598 -0.08125 20.2196 0.0101563C19.2795 0.101562 18.5714 0.792188 18.5714 1.625V15.2547C18.5714 15.8031 18.0607 16.25 17.4339 16.25C16.842 16.25 16.3545 15.8539 16.2964 15.3359L14.8455 1.48281C14.7643 0.639844 13.9634 0 13 0C12.0366 0 11.2357 0.639844 11.1545 1.48281L9.71518 15.3359C9.65714 15.8539 9.16964 16.25 8.57768 16.25C7.95089 16.25 7.44018 15.8031 7.44018 15.2547V1.625H7.42857ZM13.0348 17.0625H13H12.9652L13 16.9914L13.0348 17.0625Z" fill="#D5AA7F"/>
</svg>
