<svg width="52" height="52" viewBox="0 0 52 52" fill="none" xmlns="http://www.w3.org/2000/svg">
<path d="M36.9124 0H15.1135C5.64481 0 0 5.642 0 15.106V36.868C0 46.358 5.64481 52 15.1135 52H36.8864C46.3551 52 51.9999 46.358 51.9999 36.894V15.106C52.0259 5.642 46.3811 0 36.9124 0ZM33.2706 37.96C32.8804 38.454 32.3081 38.714 31.7358 38.714C31.3196 38.714 30.9034 38.584 30.5392 38.298C27.7818 36.166 24.2181 36.166 21.4607 38.298C20.6023 38.948 19.3797 38.792 18.7293 37.96C18.079 37.102 18.2351 35.88 19.0675 35.23C23.2036 32.032 28.7703 32.032 32.9064 35.23C33.7908 35.88 33.9469 37.102 33.2706 37.96ZM39.0194 29.926C38.6292 30.42 38.057 30.68 37.4847 30.68C37.0685 30.68 36.6523 30.55 36.2881 30.264C30.045 25.454 22.007 25.454 15.7639 30.264C14.9054 30.94 13.6828 30.784 13.0065 29.926C12.3301 29.068 12.5122 27.846 13.3446 27.196C21.0185 21.268 30.9554 21.268 38.6292 27.196C39.5137 27.846 39.6698 29.068 39.0194 29.926ZM43.1555 21.892C42.7653 22.386 42.193 22.646 41.6207 22.646C41.2045 22.646 40.7883 22.516 40.4241 22.23C31.6578 15.47 20.3421 15.47 11.6018 22.23C10.7434 22.88 9.52074 22.724 8.87042 21.892C8.2201 21.034 8.37617 19.812 9.20859 19.162C19.4057 11.284 32.5942 11.284 42.8173 19.162C43.6758 19.812 43.8318 21.034 43.1555 21.892Z" fill="#D5AA7F"/>
</svg>
