<svg width="29" height="52" viewBox="0 0 29 52" fill="none" xmlns="http://www.w3.org/2000/svg">
<path d="M14.2874 33.7825C22.1781 33.7825 28.5749 26.2201 28.5749 16.8912C28.5749 7.56247 22.1781 0 14.2874 0C6.39671 0 0 7.56247 0 16.8912C0 26.2201 6.39671 33.7825 14.2874 33.7825Z" fill="#D5AA7F"/>
<path d="M22.3098 35.365C23.0083 34.9233 23.8126 35.5729 23.8126 36.5344V49.1379C23.8126 51.4767 22.4791 52.6201 20.8281 51.6586L15.1555 48.3583C14.6687 48.0984 13.9067 48.0984 13.4198 48.3583L7.74718 51.6586C6.09619 52.5941 4.7627 51.4507 4.7627 49.1119L4.80503 36.5344C4.80503 35.5729 5.63052 34.9492 6.30785 35.365C8.69968 36.8463 11.409 37.6778 14.2877 37.6778C17.1663 37.6778 19.8968 36.8463 22.3098 35.365Z" fill="#D5AA7F"/>
</svg>
