<svg width="56" height="52" viewBox="0 0 56 52" fill="none" xmlns="http://www.w3.org/2000/svg">
<path d="M28.0005 22.2862C19.3152 22.2862 7.00077 36.5349 7.00077 45.5291C7.00077 49.5799 9.93308 52 14.8472 52C20.1891 52 23.7164 49.089 28.0005 49.089C32.3219 49.089 35.8591 52 41.1538 52C46.068 52 49.0003 49.5799 49.0003 45.5291C49.0003 36.5349 36.6859 22.2862 28.0005 22.2862ZM11.892 20.8225C10.7545 16.8007 7.25014 14.1961 4.06517 15.004C0.880205 15.8118 -0.778996 19.7268 0.358492 23.7487C1.49598 27.7705 5.00032 30.3751 8.18528 29.5672C11.3703 28.7594 13.0295 24.8444 11.892 20.8225ZM21.1581 18.4106C24.5421 17.4658 26.2353 12.6141 24.9403 7.57436C23.6453 2.53462 19.8522 -0.783812 16.4682 0.160994C13.0841 1.1058 11.391 5.95751 12.686 10.9973C13.981 16.037 17.7752 19.3566 21.1581 18.4106ZM51.9348 15.0051C48.7499 14.1973 45.2466 16.8019 44.108 20.8237C42.9705 24.8455 44.6297 28.7605 47.8147 29.5684C50.9997 30.3762 54.5029 27.7716 55.6415 23.7498C56.779 19.728 55.1198 15.813 51.9348 15.0051ZM34.843 18.4106C38.227 19.3554 42.0201 16.037 43.3151 10.9973C44.6101 5.95751 42.917 1.10696 39.5329 0.160994C36.1489 -0.784973 32.3558 2.53462 31.0608 7.57436C29.7658 12.6141 31.4589 17.4658 34.843 18.4106Z" fill="#D5AA7F"/>
</svg>
