<svg width="63" height="52" viewBox="0 0 63 52" fill="none" xmlns="http://www.w3.org/2000/svg">
<path d="M61.5218 15.1667H54.155L52.1075 9.53333C50.0034 3.74156 44.9819 0 39.3131 0H23.6861C18.0186 0 12.9958 3.74156 10.8904 9.53333L8.84294 15.1667H1.47735C0.51635 15.1667 -0.188709 16.1606 0.0450799 17.1857L0.783362 20.4357C0.947015 21.1589 1.53764 21.6667 2.21563 21.6667H4.68518C3.03266 23.2551 1.96831 25.564 1.96831 28.1667V34.6667C1.96831 36.8496 2.72627 38.8199 3.93706 40.3447V47.6667C3.93706 50.0595 5.70032 52 7.87456 52H11.8121C13.9863 52 15.7496 50.0595 15.7496 47.6667V43.3333H47.2496V47.6667C47.2496 50.0595 49.0129 52 51.1871 52H55.1246C57.2989 52 59.0621 50.0595 59.0621 47.6667V40.3447C60.2729 38.8213 61.0309 36.8509 61.0309 34.6667V28.1667C61.0309 25.564 59.9665 23.2551 58.3152 21.6667H60.7848C61.4628 21.6667 62.0534 21.1589 62.2171 20.4357L62.9553 17.1857C63.1879 16.1606 62.4828 15.1667 61.5218 15.1667ZM18.2019 12.7522C19.0989 10.2849 21.2707 8.66667 23.6861 8.66667H39.3131C41.7285 8.66667 43.9003 10.2849 44.7973 12.7522L47.2496 19.5H15.7496L18.2019 12.7522ZM11.8121 34.6396C9.44956 34.6396 7.87456 32.9117 7.87456 30.3198C7.87456 27.7279 9.44956 26 11.8121 26C14.1746 26 17.7183 29.8878 17.7183 32.4797C17.7183 35.0716 14.1746 34.6396 11.8121 34.6396ZM51.1871 34.6396C48.8246 34.6396 45.2809 35.0716 45.2809 32.4797C45.2809 29.8878 48.8246 26 51.1871 26C53.5496 26 55.1246 27.7279 55.1246 30.3198C55.1246 32.9117 53.5496 34.6396 51.1871 34.6396Z" fill="#D5AA7F"/>
</svg>
