<svg width="26" height="30" viewBox="0 0 26 30" fill="none" xmlns="http://www.w3.org/2000/svg">
<path d="M25 12.4545C25 21.3636 13 29 13 29C13 29 1 21.3636 1 12.4545C1 9.41661 2.26428 6.5031 4.51472 4.35496C6.76516 2.20681 9.8174 1 13 1C16.1826 1 19.2348 2.20681 21.4853 4.35496C23.7357 6.5031 25 9.41661 25 12.4545Z" stroke="#222222" stroke-width="1.5" stroke-linecap="round" stroke-linejoin="round"/>
<path d="M13 17C15.2091 17 17 15.2091 17 13C17 10.7909 15.2091 9 13 9C10.7909 9 9 10.7909 9 13C9 15.2091 10.7909 17 13 17Z" stroke="#222222" stroke-width="1.5" stroke-linecap="round" stroke-linejoin="round"/>
</svg>
